G04 #@! TF.GenerationSoftware,KiCad,Pcbnew,5.1.6-c6e7f7d~87~ubuntu18.04.1*
G04 #@! TF.CreationDate,2020-09-06T21:37:12+01:00*
G04 #@! TF.ProjectId,KiCadOpenSession,4b694361-644f-4706-956e-53657373696f,rev?*
G04 #@! TF.SameCoordinates,Original*
G04 #@! TF.FileFunction,Copper,L1,Top*
G04 #@! TF.FilePolarity,Positive*
%FSLAX46Y46*%
G04 Gerber Fmt 4.6, Leading zero omitted, Abs format (unit mm)*
G04 Created by KiCad (PCBNEW 5.1.6-c6e7f7d~87~ubuntu18.04.1) date 2020-09-06 21:37:12*
%MOMM*%
%LPD*%
G01*
G04 APERTURE LIST*
G04 #@! TA.AperFunction,ComponentPad*
%ADD10O,1.700000X1.700000*%
G04 #@! TD*
G04 #@! TA.AperFunction,ComponentPad*
%ADD11R,1.700000X1.700000*%
G04 #@! TD*
G04 #@! TA.AperFunction,ViaPad*
%ADD12C,0.800000*%
G04 #@! TD*
G04 #@! TA.AperFunction,Conductor*
%ADD13C,0.250000*%
G04 #@! TD*
G04 #@! TA.AperFunction,Conductor*
%ADD14C,0.254000*%
G04 #@! TD*
G04 APERTURE END LIST*
G04 #@! TA.AperFunction,SMDPad,CuDef*
G36*
G01*
X150155000Y-125245000D02*
X150155000Y-124945000D01*
G75*
G02*
X150305000Y-124795000I150000J0D01*
G01*
X151955000Y-124795000D01*
G75*
G02*
X152105000Y-124945000I0J-150000D01*
G01*
X152105000Y-125245000D01*
G75*
G02*
X151955000Y-125395000I-150000J0D01*
G01*
X150305000Y-125395000D01*
G75*
G02*
X150155000Y-125245000I0J150000D01*
G01*
G37*
G04 #@! TD.AperFunction*
G04 #@! TA.AperFunction,SMDPad,CuDef*
G36*
G01*
X150155000Y-126515000D02*
X150155000Y-126215000D01*
G75*
G02*
X150305000Y-126065000I150000J0D01*
G01*
X151955000Y-126065000D01*
G75*
G02*
X152105000Y-126215000I0J-150000D01*
G01*
X152105000Y-126515000D01*
G75*
G02*
X151955000Y-126665000I-150000J0D01*
G01*
X150305000Y-126665000D01*
G75*
G02*
X150155000Y-126515000I0J150000D01*
G01*
G37*
G04 #@! TD.AperFunction*
G04 #@! TA.AperFunction,SMDPad,CuDef*
G36*
G01*
X150155000Y-127785000D02*
X150155000Y-127485000D01*
G75*
G02*
X150305000Y-127335000I150000J0D01*
G01*
X151955000Y-127335000D01*
G75*
G02*
X152105000Y-127485000I0J-150000D01*
G01*
X152105000Y-127785000D01*
G75*
G02*
X151955000Y-127935000I-150000J0D01*
G01*
X150305000Y-127935000D01*
G75*
G02*
X150155000Y-127785000I0J150000D01*
G01*
G37*
G04 #@! TD.AperFunction*
G04 #@! TA.AperFunction,SMDPad,CuDef*
G36*
G01*
X150155000Y-129055000D02*
X150155000Y-128755000D01*
G75*
G02*
X150305000Y-128605000I150000J0D01*
G01*
X151955000Y-128605000D01*
G75*
G02*
X152105000Y-128755000I0J-150000D01*
G01*
X152105000Y-129055000D01*
G75*
G02*
X151955000Y-129205000I-150000J0D01*
G01*
X150305000Y-129205000D01*
G75*
G02*
X150155000Y-129055000I0J150000D01*
G01*
G37*
G04 #@! TD.AperFunction*
G04 #@! TA.AperFunction,SMDPad,CuDef*
G36*
G01*
X145205000Y-129055000D02*
X145205000Y-128755000D01*
G75*
G02*
X145355000Y-128605000I150000J0D01*
G01*
X147005000Y-128605000D01*
G75*
G02*
X147155000Y-128755000I0J-150000D01*
G01*
X147155000Y-129055000D01*
G75*
G02*
X147005000Y-129205000I-150000J0D01*
G01*
X145355000Y-129205000D01*
G75*
G02*
X145205000Y-129055000I0J150000D01*
G01*
G37*
G04 #@! TD.AperFunction*
G04 #@! TA.AperFunction,SMDPad,CuDef*
G36*
G01*
X145205000Y-127785000D02*
X145205000Y-127485000D01*
G75*
G02*
X145355000Y-127335000I150000J0D01*
G01*
X147005000Y-127335000D01*
G75*
G02*
X147155000Y-127485000I0J-150000D01*
G01*
X147155000Y-127785000D01*
G75*
G02*
X147005000Y-127935000I-150000J0D01*
G01*
X145355000Y-127935000D01*
G75*
G02*
X145205000Y-127785000I0J150000D01*
G01*
G37*
G04 #@! TD.AperFunction*
G04 #@! TA.AperFunction,SMDPad,CuDef*
G36*
G01*
X145205000Y-126515000D02*
X145205000Y-126215000D01*
G75*
G02*
X145355000Y-126065000I150000J0D01*
G01*
X147005000Y-126065000D01*
G75*
G02*
X147155000Y-126215000I0J-150000D01*
G01*
X147155000Y-126515000D01*
G75*
G02*
X147005000Y-126665000I-150000J0D01*
G01*
X145355000Y-126665000D01*
G75*
G02*
X145205000Y-126515000I0J150000D01*
G01*
G37*
G04 #@! TD.AperFunction*
G04 #@! TA.AperFunction,SMDPad,CuDef*
G36*
G01*
X145205000Y-125245000D02*
X145205000Y-124945000D01*
G75*
G02*
X145355000Y-124795000I150000J0D01*
G01*
X147005000Y-124795000D01*
G75*
G02*
X147155000Y-124945000I0J-150000D01*
G01*
X147155000Y-125245000D01*
G75*
G02*
X147005000Y-125395000I-150000J0D01*
G01*
X145355000Y-125395000D01*
G75*
G02*
X145205000Y-125245000I0J150000D01*
G01*
G37*
G04 #@! TD.AperFunction*
G04 #@! TA.AperFunction,SMDPad,CuDef*
G36*
G01*
X148360000Y-114785000D02*
X148360000Y-115085000D01*
G75*
G02*
X148210000Y-115235000I-150000J0D01*
G01*
X146560000Y-115235000D01*
G75*
G02*
X146410000Y-115085000I0J150000D01*
G01*
X146410000Y-114785000D01*
G75*
G02*
X146560000Y-114635000I150000J0D01*
G01*
X148210000Y-114635000D01*
G75*
G02*
X148360000Y-114785000I0J-150000D01*
G01*
G37*
G04 #@! TD.AperFunction*
G04 #@! TA.AperFunction,SMDPad,CuDef*
G36*
G01*
X148360000Y-113515000D02*
X148360000Y-113815000D01*
G75*
G02*
X148210000Y-113965000I-150000J0D01*
G01*
X146560000Y-113965000D01*
G75*
G02*
X146410000Y-113815000I0J150000D01*
G01*
X146410000Y-113515000D01*
G75*
G02*
X146560000Y-113365000I150000J0D01*
G01*
X148210000Y-113365000D01*
G75*
G02*
X148360000Y-113515000I0J-150000D01*
G01*
G37*
G04 #@! TD.AperFunction*
G04 #@! TA.AperFunction,SMDPad,CuDef*
G36*
G01*
X148360000Y-112245000D02*
X148360000Y-112545000D01*
G75*
G02*
X148210000Y-112695000I-150000J0D01*
G01*
X146560000Y-112695000D01*
G75*
G02*
X146410000Y-112545000I0J150000D01*
G01*
X146410000Y-112245000D01*
G75*
G02*
X146560000Y-112095000I150000J0D01*
G01*
X148210000Y-112095000D01*
G75*
G02*
X148360000Y-112245000I0J-150000D01*
G01*
G37*
G04 #@! TD.AperFunction*
G04 #@! TA.AperFunction,SMDPad,CuDef*
G36*
G01*
X148360000Y-110975000D02*
X148360000Y-111275000D01*
G75*
G02*
X148210000Y-111425000I-150000J0D01*
G01*
X146560000Y-111425000D01*
G75*
G02*
X146410000Y-111275000I0J150000D01*
G01*
X146410000Y-110975000D01*
G75*
G02*
X146560000Y-110825000I150000J0D01*
G01*
X148210000Y-110825000D01*
G75*
G02*
X148360000Y-110975000I0J-150000D01*
G01*
G37*
G04 #@! TD.AperFunction*
G04 #@! TA.AperFunction,SMDPad,CuDef*
G36*
G01*
X148360000Y-109705000D02*
X148360000Y-110005000D01*
G75*
G02*
X148210000Y-110155000I-150000J0D01*
G01*
X146560000Y-110155000D01*
G75*
G02*
X146410000Y-110005000I0J150000D01*
G01*
X146410000Y-109705000D01*
G75*
G02*
X146560000Y-109555000I150000J0D01*
G01*
X148210000Y-109555000D01*
G75*
G02*
X148360000Y-109705000I0J-150000D01*
G01*
G37*
G04 #@! TD.AperFunction*
G04 #@! TA.AperFunction,SMDPad,CuDef*
G36*
G01*
X148360000Y-108435000D02*
X148360000Y-108735000D01*
G75*
G02*
X148210000Y-108885000I-150000J0D01*
G01*
X146560000Y-108885000D01*
G75*
G02*
X146410000Y-108735000I0J150000D01*
G01*
X146410000Y-108435000D01*
G75*
G02*
X146560000Y-108285000I150000J0D01*
G01*
X148210000Y-108285000D01*
G75*
G02*
X148360000Y-108435000I0J-150000D01*
G01*
G37*
G04 #@! TD.AperFunction*
G04 #@! TA.AperFunction,SMDPad,CuDef*
G36*
G01*
X148360000Y-107165000D02*
X148360000Y-107465000D01*
G75*
G02*
X148210000Y-107615000I-150000J0D01*
G01*
X146560000Y-107615000D01*
G75*
G02*
X146410000Y-107465000I0J150000D01*
G01*
X146410000Y-107165000D01*
G75*
G02*
X146560000Y-107015000I150000J0D01*
G01*
X148210000Y-107015000D01*
G75*
G02*
X148360000Y-107165000I0J-150000D01*
G01*
G37*
G04 #@! TD.AperFunction*
G04 #@! TA.AperFunction,SMDPad,CuDef*
G36*
G01*
X148360000Y-105895000D02*
X148360000Y-106195000D01*
G75*
G02*
X148210000Y-106345000I-150000J0D01*
G01*
X146560000Y-106345000D01*
G75*
G02*
X146410000Y-106195000I0J150000D01*
G01*
X146410000Y-105895000D01*
G75*
G02*
X146560000Y-105745000I150000J0D01*
G01*
X148210000Y-105745000D01*
G75*
G02*
X148360000Y-105895000I0J-150000D01*
G01*
G37*
G04 #@! TD.AperFunction*
G04 #@! TA.AperFunction,SMDPad,CuDef*
G36*
G01*
X153310000Y-105895000D02*
X153310000Y-106195000D01*
G75*
G02*
X153160000Y-106345000I-150000J0D01*
G01*
X151510000Y-106345000D01*
G75*
G02*
X151360000Y-106195000I0J150000D01*
G01*
X151360000Y-105895000D01*
G75*
G02*
X151510000Y-105745000I150000J0D01*
G01*
X153160000Y-105745000D01*
G75*
G02*
X153310000Y-105895000I0J-150000D01*
G01*
G37*
G04 #@! TD.AperFunction*
G04 #@! TA.AperFunction,SMDPad,CuDef*
G36*
G01*
X153310000Y-107165000D02*
X153310000Y-107465000D01*
G75*
G02*
X153160000Y-107615000I-150000J0D01*
G01*
X151510000Y-107615000D01*
G75*
G02*
X151360000Y-107465000I0J150000D01*
G01*
X151360000Y-107165000D01*
G75*
G02*
X151510000Y-107015000I150000J0D01*
G01*
X153160000Y-107015000D01*
G75*
G02*
X153310000Y-107165000I0J-150000D01*
G01*
G37*
G04 #@! TD.AperFunction*
G04 #@! TA.AperFunction,SMDPad,CuDef*
G36*
G01*
X153310000Y-108435000D02*
X153310000Y-108735000D01*
G75*
G02*
X153160000Y-108885000I-150000J0D01*
G01*
X151510000Y-108885000D01*
G75*
G02*
X151360000Y-108735000I0J150000D01*
G01*
X151360000Y-108435000D01*
G75*
G02*
X151510000Y-108285000I150000J0D01*
G01*
X153160000Y-108285000D01*
G75*
G02*
X153310000Y-108435000I0J-150000D01*
G01*
G37*
G04 #@! TD.AperFunction*
G04 #@! TA.AperFunction,SMDPad,CuDef*
G36*
G01*
X153310000Y-109705000D02*
X153310000Y-110005000D01*
G75*
G02*
X153160000Y-110155000I-150000J0D01*
G01*
X151510000Y-110155000D01*
G75*
G02*
X151360000Y-110005000I0J150000D01*
G01*
X151360000Y-109705000D01*
G75*
G02*
X151510000Y-109555000I150000J0D01*
G01*
X153160000Y-109555000D01*
G75*
G02*
X153310000Y-109705000I0J-150000D01*
G01*
G37*
G04 #@! TD.AperFunction*
G04 #@! TA.AperFunction,SMDPad,CuDef*
G36*
G01*
X153310000Y-110975000D02*
X153310000Y-111275000D01*
G75*
G02*
X153160000Y-111425000I-150000J0D01*
G01*
X151510000Y-111425000D01*
G75*
G02*
X151360000Y-111275000I0J150000D01*
G01*
X151360000Y-110975000D01*
G75*
G02*
X151510000Y-110825000I150000J0D01*
G01*
X153160000Y-110825000D01*
G75*
G02*
X153310000Y-110975000I0J-150000D01*
G01*
G37*
G04 #@! TD.AperFunction*
G04 #@! TA.AperFunction,SMDPad,CuDef*
G36*
G01*
X153310000Y-112245000D02*
X153310000Y-112545000D01*
G75*
G02*
X153160000Y-112695000I-150000J0D01*
G01*
X151510000Y-112695000D01*
G75*
G02*
X151360000Y-112545000I0J150000D01*
G01*
X151360000Y-112245000D01*
G75*
G02*
X151510000Y-112095000I150000J0D01*
G01*
X153160000Y-112095000D01*
G75*
G02*
X153310000Y-112245000I0J-150000D01*
G01*
G37*
G04 #@! TD.AperFunction*
G04 #@! TA.AperFunction,SMDPad,CuDef*
G36*
G01*
X153310000Y-113515000D02*
X153310000Y-113815000D01*
G75*
G02*
X153160000Y-113965000I-150000J0D01*
G01*
X151510000Y-113965000D01*
G75*
G02*
X151360000Y-113815000I0J150000D01*
G01*
X151360000Y-113515000D01*
G75*
G02*
X151510000Y-113365000I150000J0D01*
G01*
X153160000Y-113365000D01*
G75*
G02*
X153310000Y-113515000I0J-150000D01*
G01*
G37*
G04 #@! TD.AperFunction*
G04 #@! TA.AperFunction,SMDPad,CuDef*
G36*
G01*
X153310000Y-114785000D02*
X153310000Y-115085000D01*
G75*
G02*
X153160000Y-115235000I-150000J0D01*
G01*
X151510000Y-115235000D01*
G75*
G02*
X151360000Y-115085000I0J150000D01*
G01*
X151360000Y-114785000D01*
G75*
G02*
X151510000Y-114635000I150000J0D01*
G01*
X153160000Y-114635000D01*
G75*
G02*
X153310000Y-114785000I0J-150000D01*
G01*
G37*
G04 #@! TD.AperFunction*
G04 #@! TA.AperFunction,SMDPad,CuDef*
G36*
G01*
X151425000Y-93495000D02*
X151425000Y-93195000D01*
G75*
G02*
X151575000Y-93045000I150000J0D01*
G01*
X153225000Y-93045000D01*
G75*
G02*
X153375000Y-93195000I0J-150000D01*
G01*
X153375000Y-93495000D01*
G75*
G02*
X153225000Y-93645000I-150000J0D01*
G01*
X151575000Y-93645000D01*
G75*
G02*
X151425000Y-93495000I0J150000D01*
G01*
G37*
G04 #@! TD.AperFunction*
G04 #@! TA.AperFunction,SMDPad,CuDef*
G36*
G01*
X151425000Y-94765000D02*
X151425000Y-94465000D01*
G75*
G02*
X151575000Y-94315000I150000J0D01*
G01*
X153225000Y-94315000D01*
G75*
G02*
X153375000Y-94465000I0J-150000D01*
G01*
X153375000Y-94765000D01*
G75*
G02*
X153225000Y-94915000I-150000J0D01*
G01*
X151575000Y-94915000D01*
G75*
G02*
X151425000Y-94765000I0J150000D01*
G01*
G37*
G04 #@! TD.AperFunction*
G04 #@! TA.AperFunction,SMDPad,CuDef*
G36*
G01*
X151425000Y-96035000D02*
X151425000Y-95735000D01*
G75*
G02*
X151575000Y-95585000I150000J0D01*
G01*
X153225000Y-95585000D01*
G75*
G02*
X153375000Y-95735000I0J-150000D01*
G01*
X153375000Y-96035000D01*
G75*
G02*
X153225000Y-96185000I-150000J0D01*
G01*
X151575000Y-96185000D01*
G75*
G02*
X151425000Y-96035000I0J150000D01*
G01*
G37*
G04 #@! TD.AperFunction*
G04 #@! TA.AperFunction,SMDPad,CuDef*
G36*
G01*
X151425000Y-97305000D02*
X151425000Y-97005000D01*
G75*
G02*
X151575000Y-96855000I150000J0D01*
G01*
X153225000Y-96855000D01*
G75*
G02*
X153375000Y-97005000I0J-150000D01*
G01*
X153375000Y-97305000D01*
G75*
G02*
X153225000Y-97455000I-150000J0D01*
G01*
X151575000Y-97455000D01*
G75*
G02*
X151425000Y-97305000I0J150000D01*
G01*
G37*
G04 #@! TD.AperFunction*
G04 #@! TA.AperFunction,SMDPad,CuDef*
G36*
G01*
X146475000Y-97305000D02*
X146475000Y-97005000D01*
G75*
G02*
X146625000Y-96855000I150000J0D01*
G01*
X148275000Y-96855000D01*
G75*
G02*
X148425000Y-97005000I0J-150000D01*
G01*
X148425000Y-97305000D01*
G75*
G02*
X148275000Y-97455000I-150000J0D01*
G01*
X146625000Y-97455000D01*
G75*
G02*
X146475000Y-97305000I0J150000D01*
G01*
G37*
G04 #@! TD.AperFunction*
G04 #@! TA.AperFunction,SMDPad,CuDef*
G36*
G01*
X146475000Y-96035000D02*
X146475000Y-95735000D01*
G75*
G02*
X146625000Y-95585000I150000J0D01*
G01*
X148275000Y-95585000D01*
G75*
G02*
X148425000Y-95735000I0J-150000D01*
G01*
X148425000Y-96035000D01*
G75*
G02*
X148275000Y-96185000I-150000J0D01*
G01*
X146625000Y-96185000D01*
G75*
G02*
X146475000Y-96035000I0J150000D01*
G01*
G37*
G04 #@! TD.AperFunction*
G04 #@! TA.AperFunction,SMDPad,CuDef*
G36*
G01*
X146475000Y-94765000D02*
X146475000Y-94465000D01*
G75*
G02*
X146625000Y-94315000I150000J0D01*
G01*
X148275000Y-94315000D01*
G75*
G02*
X148425000Y-94465000I0J-150000D01*
G01*
X148425000Y-94765000D01*
G75*
G02*
X148275000Y-94915000I-150000J0D01*
G01*
X146625000Y-94915000D01*
G75*
G02*
X146475000Y-94765000I0J150000D01*
G01*
G37*
G04 #@! TD.AperFunction*
G04 #@! TA.AperFunction,SMDPad,CuDef*
G36*
G01*
X146475000Y-93495000D02*
X146475000Y-93195000D01*
G75*
G02*
X146625000Y-93045000I150000J0D01*
G01*
X148275000Y-93045000D01*
G75*
G02*
X148425000Y-93195000I0J-150000D01*
G01*
X148425000Y-93495000D01*
G75*
G02*
X148275000Y-93645000I-150000J0D01*
G01*
X146625000Y-93645000D01*
G75*
G02*
X146475000Y-93495000I0J150000D01*
G01*
G37*
G04 #@! TD.AperFunction*
G04 #@! TA.AperFunction,SMDPad,CuDef*
G36*
G01*
X145620000Y-122370001D02*
X145620000Y-121469999D01*
G75*
G02*
X145869999Y-121220000I249999J0D01*
G01*
X146520001Y-121220000D01*
G75*
G02*
X146770000Y-121469999I0J-249999D01*
G01*
X146770000Y-122370001D01*
G75*
G02*
X146520001Y-122620000I-249999J0D01*
G01*
X145869999Y-122620000D01*
G75*
G02*
X145620000Y-122370001I0J249999D01*
G01*
G37*
G04 #@! TD.AperFunction*
G04 #@! TA.AperFunction,SMDPad,CuDef*
G36*
G01*
X143570000Y-122370001D02*
X143570000Y-121469999D01*
G75*
G02*
X143819999Y-121220000I249999J0D01*
G01*
X144470001Y-121220000D01*
G75*
G02*
X144720000Y-121469999I0J-249999D01*
G01*
X144720000Y-122370001D01*
G75*
G02*
X144470001Y-122620000I-249999J0D01*
G01*
X143819999Y-122620000D01*
G75*
G02*
X143570000Y-122370001I0J249999D01*
G01*
G37*
G04 #@! TD.AperFunction*
G04 #@! TA.AperFunction,SMDPad,CuDef*
G36*
G01*
X146890000Y-90620001D02*
X146890000Y-89719999D01*
G75*
G02*
X147139999Y-89470000I249999J0D01*
G01*
X147790001Y-89470000D01*
G75*
G02*
X148040000Y-89719999I0J-249999D01*
G01*
X148040000Y-90620001D01*
G75*
G02*
X147790001Y-90870000I-249999J0D01*
G01*
X147139999Y-90870000D01*
G75*
G02*
X146890000Y-90620001I0J249999D01*
G01*
G37*
G04 #@! TD.AperFunction*
G04 #@! TA.AperFunction,SMDPad,CuDef*
G36*
G01*
X144840000Y-90620001D02*
X144840000Y-89719999D01*
G75*
G02*
X145089999Y-89470000I249999J0D01*
G01*
X145740001Y-89470000D01*
G75*
G02*
X145990000Y-89719999I0J-249999D01*
G01*
X145990000Y-90620001D01*
G75*
G02*
X145740001Y-90870000I-249999J0D01*
G01*
X145089999Y-90870000D01*
G75*
G02*
X144840000Y-90620001I0J249999D01*
G01*
G37*
G04 #@! TD.AperFunction*
D10*
X161290000Y-140970000D03*
X158750000Y-140970000D03*
X161290000Y-138430000D03*
X158750000Y-138430000D03*
X161290000Y-135890000D03*
X158750000Y-135890000D03*
X161290000Y-133350000D03*
X158750000Y-133350000D03*
X161290000Y-130810000D03*
X158750000Y-130810000D03*
X161290000Y-128270000D03*
X158750000Y-128270000D03*
X161290000Y-125730000D03*
X158750000Y-125730000D03*
X161290000Y-123190000D03*
X158750000Y-123190000D03*
X161290000Y-120650000D03*
X158750000Y-120650000D03*
X161290000Y-118110000D03*
X158750000Y-118110000D03*
X161290000Y-115570000D03*
X158750000Y-115570000D03*
X161290000Y-113030000D03*
X158750000Y-113030000D03*
X161290000Y-110490000D03*
X158750000Y-110490000D03*
X161290000Y-107950000D03*
X158750000Y-107950000D03*
X161290000Y-105410000D03*
X158750000Y-105410000D03*
X161290000Y-102870000D03*
X158750000Y-102870000D03*
X161290000Y-100330000D03*
X158750000Y-100330000D03*
X161290000Y-97790000D03*
X158750000Y-97790000D03*
X161290000Y-95250000D03*
X158750000Y-95250000D03*
X161290000Y-92710000D03*
X158750000Y-92710000D03*
X161290000Y-90170000D03*
X158750000Y-90170000D03*
X161290000Y-87630000D03*
X158750000Y-87630000D03*
X161290000Y-85090000D03*
X158750000Y-85090000D03*
X161290000Y-82550000D03*
X158750000Y-82550000D03*
X161290000Y-80010000D03*
D11*
X158750000Y-80010000D03*
D12*
X155575000Y-85725000D03*
X155575000Y-92075000D03*
X147320000Y-100965000D03*
X151130000Y-100965000D03*
X147320000Y-85090000D03*
X143510000Y-92710000D03*
X144145000Y-112395000D03*
X145415000Y-118110000D03*
X153670000Y-122555000D03*
X144145000Y-137160000D03*
X153670000Y-137160000D03*
X144780000Y-79375000D03*
X153670000Y-79375000D03*
X151130000Y-119380000D03*
X153670000Y-116840000D03*
X149860000Y-110490000D03*
X143510000Y-125730000D03*
X155485000Y-102235000D03*
X144780000Y-97155000D03*
X156210000Y-100330000D03*
D13*
X155485000Y-100240000D02*
X152400000Y-97155000D01*
X155485000Y-102235000D02*
X155485000Y-100240000D01*
X159925001Y-119474999D02*
X159925001Y-121379999D01*
X161290000Y-118110000D02*
X159925001Y-119474999D01*
X159925001Y-121379999D02*
X159385000Y-121920000D01*
X159385000Y-121920000D02*
X156845000Y-121920000D01*
X156845000Y-121920000D02*
X156210000Y-122555000D01*
X156210000Y-122555000D02*
X156210000Y-128270000D01*
X155575000Y-128905000D02*
X151130000Y-128905000D01*
X156210000Y-128270000D02*
X155575000Y-128905000D01*
X147955000Y-126365000D02*
X146180000Y-126365000D01*
X148590000Y-125730000D02*
X147955000Y-126365000D01*
X148590000Y-124460000D02*
X148590000Y-125730000D01*
X158750000Y-118110000D02*
X154940000Y-118110000D01*
X154940000Y-118110000D02*
X148590000Y-124460000D01*
X144780000Y-97155000D02*
X144780000Y-96210000D01*
X144780000Y-96210000D02*
X146375000Y-94615000D01*
X146375000Y-94615000D02*
X147450000Y-94615000D01*
X153475000Y-95885000D02*
X152400000Y-95885000D01*
X156210000Y-98620000D02*
X153475000Y-95885000D01*
X156210000Y-100330000D02*
X156210000Y-98620000D01*
X159124003Y-119474999D02*
X156115001Y-119474999D01*
X159925001Y-118674001D02*
X159124003Y-119474999D01*
X161290000Y-115570000D02*
X159925001Y-116934999D01*
X159925001Y-116934999D02*
X159925001Y-118674001D01*
X156115001Y-119474999D02*
X155575000Y-120015000D01*
X155575000Y-120015000D02*
X155575000Y-127000000D01*
X155575000Y-127000000D02*
X154940000Y-127635000D01*
X154940000Y-127635000D02*
X151130000Y-127635000D01*
X155575000Y-112395000D02*
X158750000Y-115570000D01*
X152335000Y-112395000D02*
X155575000Y-112395000D01*
X148460000Y-108585000D02*
X147385000Y-108585000D01*
X149225000Y-107820000D02*
X148460000Y-108585000D01*
X149225000Y-104775000D02*
X149225000Y-107820000D01*
X149860000Y-104140000D02*
X149225000Y-104775000D01*
X161290000Y-113030000D02*
X160114999Y-111854999D01*
X160114999Y-111854999D02*
X156939999Y-111854999D01*
X154940000Y-109855000D02*
X154940000Y-104775000D01*
X154940000Y-104775000D02*
X154305000Y-104140000D01*
X156939999Y-111854999D02*
X154940000Y-109855000D01*
X154305000Y-104140000D02*
X149860000Y-104140000D01*
X147320000Y-93280000D02*
X147385000Y-93345000D01*
X147320000Y-90170000D02*
X147320000Y-93280000D01*
X146310000Y-111125000D02*
X143510000Y-108325000D01*
X147385000Y-111125000D02*
X146310000Y-111125000D01*
X146375000Y-93345000D02*
X147450000Y-93345000D01*
X143510000Y-96210000D02*
X146375000Y-93345000D01*
X143510000Y-108325000D02*
X143510000Y-96210000D01*
X146050000Y-125030000D02*
X146115000Y-125095000D01*
X146050000Y-121920000D02*
X146050000Y-125030000D01*
X146195000Y-121920000D02*
X147955000Y-121920000D01*
X147955000Y-121920000D02*
X149225000Y-120650000D01*
X148460000Y-112395000D02*
X147385000Y-112395000D01*
X149225000Y-113160000D02*
X148460000Y-112395000D01*
X149225000Y-120650000D02*
X149225000Y-113160000D01*
X142240000Y-127635000D02*
X146050000Y-127635000D01*
X144000000Y-121920000D02*
X142240000Y-121920000D01*
X142240000Y-121920000D02*
X142240000Y-127635000D01*
X147385000Y-114935000D02*
X142240000Y-114935000D01*
X142240000Y-114935000D02*
X142240000Y-121920000D01*
X142240000Y-82550000D02*
X142240000Y-95885000D01*
X142240000Y-95885000D02*
X142240000Y-114935000D01*
X145270000Y-90170000D02*
X142240000Y-90170000D01*
X158750000Y-82550000D02*
X161290000Y-82550000D01*
X151130000Y-125095000D02*
X151130000Y-126365000D01*
X151130000Y-126365000D02*
X149860000Y-126365000D01*
X149860000Y-126365000D02*
X148590000Y-127635000D01*
X148590000Y-127635000D02*
X146180000Y-127635000D01*
X152400000Y-93345000D02*
X152400000Y-82550000D01*
X158750000Y-82550000D02*
X152400000Y-82550000D01*
X152400000Y-82550000D02*
X142240000Y-82550000D01*
X152400000Y-93345000D02*
X152400000Y-94615000D01*
X149225000Y-95885000D02*
X147450000Y-95885000D01*
X152400000Y-94615000D02*
X150495000Y-94615000D01*
X150495000Y-94615000D02*
X149225000Y-95885000D01*
D14*
G36*
X164338000Y-144018000D02*
G01*
X140462000Y-144018000D01*
X140462000Y-129205000D01*
X144566928Y-129205000D01*
X144579188Y-129329482D01*
X144615498Y-129449180D01*
X144674463Y-129559494D01*
X144753815Y-129656185D01*
X144850506Y-129735537D01*
X144960820Y-129794502D01*
X145080518Y-129830812D01*
X145205000Y-129843072D01*
X145894250Y-129840000D01*
X146053000Y-129681250D01*
X146053000Y-129032000D01*
X146307000Y-129032000D01*
X146307000Y-129681250D01*
X146465750Y-129840000D01*
X147155000Y-129843072D01*
X147279482Y-129830812D01*
X147399180Y-129794502D01*
X147509494Y-129735537D01*
X147606185Y-129656185D01*
X147685537Y-129559494D01*
X147744502Y-129449180D01*
X147780812Y-129329482D01*
X147793072Y-129205000D01*
X147790000Y-129190750D01*
X147631250Y-129032000D01*
X146307000Y-129032000D01*
X146053000Y-129032000D01*
X144728750Y-129032000D01*
X144570000Y-129190750D01*
X144566928Y-129205000D01*
X140462000Y-129205000D01*
X140462000Y-82550000D01*
X141476323Y-82550000D01*
X141480000Y-82587333D01*
X141480001Y-90132661D01*
X141476323Y-90170000D01*
X141480001Y-90207339D01*
X141480001Y-95847658D01*
X141480000Y-95847668D01*
X141480001Y-114897657D01*
X141476323Y-114935000D01*
X141480000Y-114972333D01*
X141480001Y-121882657D01*
X141476323Y-121920000D01*
X141480000Y-121957333D01*
X141480001Y-127597657D01*
X141476323Y-127635000D01*
X141490997Y-127783986D01*
X141534454Y-127927247D01*
X141605026Y-128059276D01*
X141699999Y-128175001D01*
X141815724Y-128269974D01*
X141947753Y-128340546D01*
X142091014Y-128384003D01*
X142202667Y-128395000D01*
X142240000Y-128398677D01*
X142277333Y-128395000D01*
X144605130Y-128395000D01*
X144579188Y-128480518D01*
X144566928Y-128605000D01*
X144570000Y-128619250D01*
X144728750Y-128778000D01*
X146053000Y-128778000D01*
X146053000Y-128758000D01*
X146307000Y-128758000D01*
X146307000Y-128778000D01*
X147631250Y-128778000D01*
X147790000Y-128619250D01*
X147793072Y-128605000D01*
X147780812Y-128480518D01*
X147754870Y-128395000D01*
X148552678Y-128395000D01*
X148590000Y-128398676D01*
X148627322Y-128395000D01*
X148627333Y-128395000D01*
X148738986Y-128384003D01*
X148882247Y-128340546D01*
X149014276Y-128269974D01*
X149130001Y-128175001D01*
X149153804Y-128145997D01*
X149516928Y-127782873D01*
X149516928Y-127785000D01*
X149532071Y-127938745D01*
X149576916Y-128086582D01*
X149649742Y-128222829D01*
X149688454Y-128270000D01*
X149649742Y-128317171D01*
X149576916Y-128453418D01*
X149532071Y-128601255D01*
X149516928Y-128755000D01*
X149516928Y-129055000D01*
X149532071Y-129208745D01*
X149576916Y-129356582D01*
X149649742Y-129492829D01*
X149747749Y-129612251D01*
X149867171Y-129710258D01*
X150003418Y-129783084D01*
X150151255Y-129827929D01*
X150305000Y-129843072D01*
X151955000Y-129843072D01*
X152108745Y-129827929D01*
X152256582Y-129783084D01*
X152392829Y-129710258D01*
X152447976Y-129665000D01*
X155537678Y-129665000D01*
X155575000Y-129668676D01*
X155612322Y-129665000D01*
X155612333Y-129665000D01*
X155723986Y-129654003D01*
X155867247Y-129610546D01*
X155999276Y-129539974D01*
X156115001Y-129445001D01*
X156138803Y-129415998D01*
X156721002Y-128833800D01*
X156750001Y-128810001D01*
X156844974Y-128694276D01*
X156915546Y-128562247D01*
X156959003Y-128418986D01*
X156970000Y-128307333D01*
X156973677Y-128270000D01*
X156970000Y-128232667D01*
X156970000Y-122869801D01*
X157159802Y-122680000D01*
X157353897Y-122680000D01*
X157322068Y-122756842D01*
X157265000Y-123043740D01*
X157265000Y-123336260D01*
X157322068Y-123623158D01*
X157434010Y-123893411D01*
X157596525Y-124136632D01*
X157803368Y-124343475D01*
X157977760Y-124460000D01*
X157803368Y-124576525D01*
X157596525Y-124783368D01*
X157434010Y-125026589D01*
X157322068Y-125296842D01*
X157265000Y-125583740D01*
X157265000Y-125876260D01*
X157322068Y-126163158D01*
X157434010Y-126433411D01*
X157596525Y-126676632D01*
X157803368Y-126883475D01*
X157977760Y-127000000D01*
X157803368Y-127116525D01*
X157596525Y-127323368D01*
X157434010Y-127566589D01*
X157322068Y-127836842D01*
X157265000Y-128123740D01*
X157265000Y-128416260D01*
X157322068Y-128703158D01*
X157434010Y-128973411D01*
X157596525Y-129216632D01*
X157803368Y-129423475D01*
X157977760Y-129540000D01*
X157803368Y-129656525D01*
X157596525Y-129863368D01*
X157434010Y-130106589D01*
X157322068Y-130376842D01*
X157265000Y-130663740D01*
X157265000Y-130956260D01*
X157322068Y-131243158D01*
X157434010Y-131513411D01*
X157596525Y-131756632D01*
X157803368Y-131963475D01*
X157977760Y-132080000D01*
X157803368Y-132196525D01*
X157596525Y-132403368D01*
X157434010Y-132646589D01*
X157322068Y-132916842D01*
X157265000Y-133203740D01*
X157265000Y-133496260D01*
X157322068Y-133783158D01*
X157434010Y-134053411D01*
X157596525Y-134296632D01*
X157803368Y-134503475D01*
X157977760Y-134620000D01*
X157803368Y-134736525D01*
X157596525Y-134943368D01*
X157434010Y-135186589D01*
X157322068Y-135456842D01*
X157265000Y-135743740D01*
X157265000Y-136036260D01*
X157322068Y-136323158D01*
X157434010Y-136593411D01*
X157596525Y-136836632D01*
X157803368Y-137043475D01*
X157977760Y-137160000D01*
X157803368Y-137276525D01*
X157596525Y-137483368D01*
X157434010Y-137726589D01*
X157322068Y-137996842D01*
X157265000Y-138283740D01*
X157265000Y-138576260D01*
X157322068Y-138863158D01*
X157434010Y-139133411D01*
X157596525Y-139376632D01*
X157803368Y-139583475D01*
X157977760Y-139700000D01*
X157803368Y-139816525D01*
X157596525Y-140023368D01*
X157434010Y-140266589D01*
X157322068Y-140536842D01*
X157265000Y-140823740D01*
X157265000Y-141116260D01*
X157322068Y-141403158D01*
X157434010Y-141673411D01*
X157596525Y-141916632D01*
X157803368Y-142123475D01*
X158046589Y-142285990D01*
X158316842Y-142397932D01*
X158603740Y-142455000D01*
X158896260Y-142455000D01*
X159183158Y-142397932D01*
X159453411Y-142285990D01*
X159696632Y-142123475D01*
X159903475Y-141916632D01*
X160020000Y-141742240D01*
X160136525Y-141916632D01*
X160343368Y-142123475D01*
X160586589Y-142285990D01*
X160856842Y-142397932D01*
X161143740Y-142455000D01*
X161436260Y-142455000D01*
X161723158Y-142397932D01*
X161993411Y-142285990D01*
X162236632Y-142123475D01*
X162443475Y-141916632D01*
X162605990Y-141673411D01*
X162717932Y-141403158D01*
X162775000Y-141116260D01*
X162775000Y-140823740D01*
X162717932Y-140536842D01*
X162605990Y-140266589D01*
X162443475Y-140023368D01*
X162236632Y-139816525D01*
X162062240Y-139700000D01*
X162236632Y-139583475D01*
X162443475Y-139376632D01*
X162605990Y-139133411D01*
X162717932Y-138863158D01*
X162775000Y-138576260D01*
X162775000Y-138283740D01*
X162717932Y-137996842D01*
X162605990Y-137726589D01*
X162443475Y-137483368D01*
X162236632Y-137276525D01*
X162062240Y-137160000D01*
X162236632Y-137043475D01*
X162443475Y-136836632D01*
X162605990Y-136593411D01*
X162717932Y-136323158D01*
X162775000Y-136036260D01*
X162775000Y-135743740D01*
X162717932Y-135456842D01*
X162605990Y-135186589D01*
X162443475Y-134943368D01*
X162236632Y-134736525D01*
X162062240Y-134620000D01*
X162236632Y-134503475D01*
X162443475Y-134296632D01*
X162605990Y-134053411D01*
X162717932Y-133783158D01*
X162775000Y-133496260D01*
X162775000Y-133203740D01*
X162717932Y-132916842D01*
X162605990Y-132646589D01*
X162443475Y-132403368D01*
X162236632Y-132196525D01*
X162062240Y-132080000D01*
X162236632Y-131963475D01*
X162443475Y-131756632D01*
X162605990Y-131513411D01*
X162717932Y-131243158D01*
X162775000Y-130956260D01*
X162775000Y-130663740D01*
X162717932Y-130376842D01*
X162605990Y-130106589D01*
X162443475Y-129863368D01*
X162236632Y-129656525D01*
X162062240Y-129540000D01*
X162236632Y-129423475D01*
X162443475Y-129216632D01*
X162605990Y-128973411D01*
X162717932Y-128703158D01*
X162775000Y-128416260D01*
X162775000Y-128123740D01*
X162717932Y-127836842D01*
X162605990Y-127566589D01*
X162443475Y-127323368D01*
X162236632Y-127116525D01*
X162062240Y-127000000D01*
X162236632Y-126883475D01*
X162443475Y-126676632D01*
X162605990Y-126433411D01*
X162717932Y-126163158D01*
X162775000Y-125876260D01*
X162775000Y-125583740D01*
X162717932Y-125296842D01*
X162605990Y-125026589D01*
X162443475Y-124783368D01*
X162236632Y-124576525D01*
X162062240Y-124460000D01*
X162236632Y-124343475D01*
X162443475Y-124136632D01*
X162605990Y-123893411D01*
X162717932Y-123623158D01*
X162775000Y-123336260D01*
X162775000Y-123043740D01*
X162717932Y-122756842D01*
X162605990Y-122486589D01*
X162443475Y-122243368D01*
X162236632Y-122036525D01*
X162062240Y-121920000D01*
X162236632Y-121803475D01*
X162443475Y-121596632D01*
X162605990Y-121353411D01*
X162717932Y-121083158D01*
X162775000Y-120796260D01*
X162775000Y-120503740D01*
X162717932Y-120216842D01*
X162605990Y-119946589D01*
X162443475Y-119703368D01*
X162236632Y-119496525D01*
X162062240Y-119380000D01*
X162236632Y-119263475D01*
X162443475Y-119056632D01*
X162605990Y-118813411D01*
X162717932Y-118543158D01*
X162775000Y-118256260D01*
X162775000Y-117963740D01*
X162717932Y-117676842D01*
X162605990Y-117406589D01*
X162443475Y-117163368D01*
X162236632Y-116956525D01*
X162062240Y-116840000D01*
X162236632Y-116723475D01*
X162443475Y-116516632D01*
X162605990Y-116273411D01*
X162717932Y-116003158D01*
X162775000Y-115716260D01*
X162775000Y-115423740D01*
X162717932Y-115136842D01*
X162605990Y-114866589D01*
X162443475Y-114623368D01*
X162236632Y-114416525D01*
X162062240Y-114300000D01*
X162236632Y-114183475D01*
X162443475Y-113976632D01*
X162605990Y-113733411D01*
X162717932Y-113463158D01*
X162775000Y-113176260D01*
X162775000Y-112883740D01*
X162717932Y-112596842D01*
X162605990Y-112326589D01*
X162443475Y-112083368D01*
X162236632Y-111876525D01*
X162062240Y-111760000D01*
X162236632Y-111643475D01*
X162443475Y-111436632D01*
X162605990Y-111193411D01*
X162717932Y-110923158D01*
X162775000Y-110636260D01*
X162775000Y-110343740D01*
X162717932Y-110056842D01*
X162605990Y-109786589D01*
X162443475Y-109543368D01*
X162236632Y-109336525D01*
X162062240Y-109220000D01*
X162236632Y-109103475D01*
X162443475Y-108896632D01*
X162605990Y-108653411D01*
X162717932Y-108383158D01*
X162775000Y-108096260D01*
X162775000Y-107803740D01*
X162717932Y-107516842D01*
X162605990Y-107246589D01*
X162443475Y-107003368D01*
X162236632Y-106796525D01*
X162062240Y-106680000D01*
X162236632Y-106563475D01*
X162443475Y-106356632D01*
X162605990Y-106113411D01*
X162717932Y-105843158D01*
X162775000Y-105556260D01*
X162775000Y-105263740D01*
X162717932Y-104976842D01*
X162605990Y-104706589D01*
X162443475Y-104463368D01*
X162236632Y-104256525D01*
X162062240Y-104140000D01*
X162236632Y-104023475D01*
X162443475Y-103816632D01*
X162605990Y-103573411D01*
X162717932Y-103303158D01*
X162775000Y-103016260D01*
X162775000Y-102723740D01*
X162717932Y-102436842D01*
X162605990Y-102166589D01*
X162443475Y-101923368D01*
X162236632Y-101716525D01*
X162062240Y-101600000D01*
X162236632Y-101483475D01*
X162443475Y-101276632D01*
X162605990Y-101033411D01*
X162717932Y-100763158D01*
X162775000Y-100476260D01*
X162775000Y-100183740D01*
X162717932Y-99896842D01*
X162605990Y-99626589D01*
X162443475Y-99383368D01*
X162236632Y-99176525D01*
X162062240Y-99060000D01*
X162236632Y-98943475D01*
X162443475Y-98736632D01*
X162605990Y-98493411D01*
X162717932Y-98223158D01*
X162775000Y-97936260D01*
X162775000Y-97643740D01*
X162717932Y-97356842D01*
X162605990Y-97086589D01*
X162443475Y-96843368D01*
X162236632Y-96636525D01*
X162062240Y-96520000D01*
X162236632Y-96403475D01*
X162443475Y-96196632D01*
X162605990Y-95953411D01*
X162717932Y-95683158D01*
X162775000Y-95396260D01*
X162775000Y-95103740D01*
X162717932Y-94816842D01*
X162605990Y-94546589D01*
X162443475Y-94303368D01*
X162236632Y-94096525D01*
X162062240Y-93980000D01*
X162236632Y-93863475D01*
X162443475Y-93656632D01*
X162605990Y-93413411D01*
X162717932Y-93143158D01*
X162775000Y-92856260D01*
X162775000Y-92563740D01*
X162717932Y-92276842D01*
X162605990Y-92006589D01*
X162443475Y-91763368D01*
X162236632Y-91556525D01*
X162062240Y-91440000D01*
X162236632Y-91323475D01*
X162443475Y-91116632D01*
X162605990Y-90873411D01*
X162717932Y-90603158D01*
X162775000Y-90316260D01*
X162775000Y-90023740D01*
X162717932Y-89736842D01*
X162605990Y-89466589D01*
X162443475Y-89223368D01*
X162236632Y-89016525D01*
X162062240Y-88900000D01*
X162236632Y-88783475D01*
X162443475Y-88576632D01*
X162605990Y-88333411D01*
X162717932Y-88063158D01*
X162775000Y-87776260D01*
X162775000Y-87483740D01*
X162717932Y-87196842D01*
X162605990Y-86926589D01*
X162443475Y-86683368D01*
X162236632Y-86476525D01*
X162062240Y-86360000D01*
X162236632Y-86243475D01*
X162443475Y-86036632D01*
X162605990Y-85793411D01*
X162717932Y-85523158D01*
X162775000Y-85236260D01*
X162775000Y-84943740D01*
X162717932Y-84656842D01*
X162605990Y-84386589D01*
X162443475Y-84143368D01*
X162236632Y-83936525D01*
X162062240Y-83820000D01*
X162236632Y-83703475D01*
X162443475Y-83496632D01*
X162605990Y-83253411D01*
X162717932Y-82983158D01*
X162775000Y-82696260D01*
X162775000Y-82403740D01*
X162717932Y-82116842D01*
X162605990Y-81846589D01*
X162443475Y-81603368D01*
X162236632Y-81396525D01*
X162054466Y-81274805D01*
X162171355Y-81205178D01*
X162387588Y-81010269D01*
X162561641Y-80776920D01*
X162686825Y-80514099D01*
X162731476Y-80366890D01*
X162610155Y-80137000D01*
X161417000Y-80137000D01*
X161417000Y-80157000D01*
X161163000Y-80157000D01*
X161163000Y-80137000D01*
X158877000Y-80137000D01*
X158877000Y-80157000D01*
X158623000Y-80157000D01*
X158623000Y-80137000D01*
X157423750Y-80137000D01*
X157265000Y-80295750D01*
X157261928Y-80860000D01*
X157274188Y-80984482D01*
X157310498Y-81104180D01*
X157369463Y-81214494D01*
X157448815Y-81311185D01*
X157545506Y-81390537D01*
X157655820Y-81449502D01*
X157728380Y-81471513D01*
X157596525Y-81603368D01*
X157471822Y-81790000D01*
X152437333Y-81790000D01*
X152400000Y-81786323D01*
X152362667Y-81790000D01*
X142277333Y-81790000D01*
X142240000Y-81786323D01*
X142202667Y-81790000D01*
X142091014Y-81800997D01*
X141947753Y-81844454D01*
X141815724Y-81915026D01*
X141699999Y-82009999D01*
X141605026Y-82125724D01*
X141534454Y-82257753D01*
X141490997Y-82401014D01*
X141476323Y-82550000D01*
X140462000Y-82550000D01*
X140462000Y-79160000D01*
X157261928Y-79160000D01*
X157265000Y-79724250D01*
X157423750Y-79883000D01*
X158623000Y-79883000D01*
X158623000Y-78683750D01*
X158877000Y-78683750D01*
X158877000Y-79883000D01*
X161163000Y-79883000D01*
X161163000Y-78689186D01*
X161417000Y-78689186D01*
X161417000Y-79883000D01*
X162610155Y-79883000D01*
X162731476Y-79653110D01*
X162686825Y-79505901D01*
X162561641Y-79243080D01*
X162387588Y-79009731D01*
X162171355Y-78814822D01*
X161921252Y-78665843D01*
X161646891Y-78568519D01*
X161417000Y-78689186D01*
X161163000Y-78689186D01*
X160933109Y-78568519D01*
X160658748Y-78665843D01*
X160408645Y-78814822D01*
X160212498Y-78991626D01*
X160189502Y-78915820D01*
X160130537Y-78805506D01*
X160051185Y-78708815D01*
X159954494Y-78629463D01*
X159844180Y-78570498D01*
X159724482Y-78534188D01*
X159600000Y-78521928D01*
X159035750Y-78525000D01*
X158877000Y-78683750D01*
X158623000Y-78683750D01*
X158464250Y-78525000D01*
X157900000Y-78521928D01*
X157775518Y-78534188D01*
X157655820Y-78570498D01*
X157545506Y-78629463D01*
X157448815Y-78708815D01*
X157369463Y-78805506D01*
X157310498Y-78915820D01*
X157274188Y-79035518D01*
X157261928Y-79160000D01*
X140462000Y-79160000D01*
X140462000Y-76962000D01*
X164338000Y-76962000D01*
X164338000Y-144018000D01*
G37*
X164338000Y-144018000D02*
X140462000Y-144018000D01*
X140462000Y-129205000D01*
X144566928Y-129205000D01*
X144579188Y-129329482D01*
X144615498Y-129449180D01*
X144674463Y-129559494D01*
X144753815Y-129656185D01*
X144850506Y-129735537D01*
X144960820Y-129794502D01*
X145080518Y-129830812D01*
X145205000Y-129843072D01*
X145894250Y-129840000D01*
X146053000Y-129681250D01*
X146053000Y-129032000D01*
X146307000Y-129032000D01*
X146307000Y-129681250D01*
X146465750Y-129840000D01*
X147155000Y-129843072D01*
X147279482Y-129830812D01*
X147399180Y-129794502D01*
X147509494Y-129735537D01*
X147606185Y-129656185D01*
X147685537Y-129559494D01*
X147744502Y-129449180D01*
X147780812Y-129329482D01*
X147793072Y-129205000D01*
X147790000Y-129190750D01*
X147631250Y-129032000D01*
X146307000Y-129032000D01*
X146053000Y-129032000D01*
X144728750Y-129032000D01*
X144570000Y-129190750D01*
X144566928Y-129205000D01*
X140462000Y-129205000D01*
X140462000Y-82550000D01*
X141476323Y-82550000D01*
X141480000Y-82587333D01*
X141480001Y-90132661D01*
X141476323Y-90170000D01*
X141480001Y-90207339D01*
X141480001Y-95847658D01*
X141480000Y-95847668D01*
X141480001Y-114897657D01*
X141476323Y-114935000D01*
X141480000Y-114972333D01*
X141480001Y-121882657D01*
X141476323Y-121920000D01*
X141480000Y-121957333D01*
X141480001Y-127597657D01*
X141476323Y-127635000D01*
X141490997Y-127783986D01*
X141534454Y-127927247D01*
X141605026Y-128059276D01*
X141699999Y-128175001D01*
X141815724Y-128269974D01*
X141947753Y-128340546D01*
X142091014Y-128384003D01*
X142202667Y-128395000D01*
X142240000Y-128398677D01*
X142277333Y-128395000D01*
X144605130Y-128395000D01*
X144579188Y-128480518D01*
X144566928Y-128605000D01*
X144570000Y-128619250D01*
X144728750Y-128778000D01*
X146053000Y-128778000D01*
X146053000Y-128758000D01*
X146307000Y-128758000D01*
X146307000Y-128778000D01*
X147631250Y-128778000D01*
X147790000Y-128619250D01*
X147793072Y-128605000D01*
X147780812Y-128480518D01*
X147754870Y-128395000D01*
X148552678Y-128395000D01*
X148590000Y-128398676D01*
X148627322Y-128395000D01*
X148627333Y-128395000D01*
X148738986Y-128384003D01*
X148882247Y-128340546D01*
X149014276Y-128269974D01*
X149130001Y-128175001D01*
X149153804Y-128145997D01*
X149516928Y-127782873D01*
X149516928Y-127785000D01*
X149532071Y-127938745D01*
X149576916Y-128086582D01*
X149649742Y-128222829D01*
X149688454Y-128270000D01*
X149649742Y-128317171D01*
X149576916Y-128453418D01*
X149532071Y-128601255D01*
X149516928Y-128755000D01*
X149516928Y-129055000D01*
X149532071Y-129208745D01*
X149576916Y-129356582D01*
X149649742Y-129492829D01*
X149747749Y-129612251D01*
X149867171Y-129710258D01*
X150003418Y-129783084D01*
X150151255Y-129827929D01*
X150305000Y-129843072D01*
X151955000Y-129843072D01*
X152108745Y-129827929D01*
X152256582Y-129783084D01*
X152392829Y-129710258D01*
X152447976Y-129665000D01*
X155537678Y-129665000D01*
X155575000Y-129668676D01*
X155612322Y-129665000D01*
X155612333Y-129665000D01*
X155723986Y-129654003D01*
X155867247Y-129610546D01*
X155999276Y-129539974D01*
X156115001Y-129445001D01*
X156138803Y-129415998D01*
X156721002Y-128833800D01*
X156750001Y-128810001D01*
X156844974Y-128694276D01*
X156915546Y-128562247D01*
X156959003Y-128418986D01*
X156970000Y-128307333D01*
X156973677Y-128270000D01*
X156970000Y-128232667D01*
X156970000Y-122869801D01*
X157159802Y-122680000D01*
X157353897Y-122680000D01*
X157322068Y-122756842D01*
X157265000Y-123043740D01*
X157265000Y-123336260D01*
X157322068Y-123623158D01*
X157434010Y-123893411D01*
X157596525Y-124136632D01*
X157803368Y-124343475D01*
X157977760Y-124460000D01*
X157803368Y-124576525D01*
X157596525Y-124783368D01*
X157434010Y-125026589D01*
X157322068Y-125296842D01*
X157265000Y-125583740D01*
X157265000Y-125876260D01*
X157322068Y-126163158D01*
X157434010Y-126433411D01*
X157596525Y-126676632D01*
X157803368Y-126883475D01*
X157977760Y-127000000D01*
X157803368Y-127116525D01*
X157596525Y-127323368D01*
X157434010Y-127566589D01*
X157322068Y-127836842D01*
X157265000Y-128123740D01*
X157265000Y-128416260D01*
X157322068Y-128703158D01*
X157434010Y-128973411D01*
X157596525Y-129216632D01*
X157803368Y-129423475D01*
X157977760Y-129540000D01*
X157803368Y-129656525D01*
X157596525Y-129863368D01*
X157434010Y-130106589D01*
X157322068Y-130376842D01*
X157265000Y-130663740D01*
X157265000Y-130956260D01*
X157322068Y-131243158D01*
X157434010Y-131513411D01*
X157596525Y-131756632D01*
X157803368Y-131963475D01*
X157977760Y-132080000D01*
X157803368Y-132196525D01*
X157596525Y-132403368D01*
X157434010Y-132646589D01*
X157322068Y-132916842D01*
X157265000Y-133203740D01*
X157265000Y-133496260D01*
X157322068Y-133783158D01*
X157434010Y-134053411D01*
X157596525Y-134296632D01*
X157803368Y-134503475D01*
X157977760Y-134620000D01*
X157803368Y-134736525D01*
X157596525Y-134943368D01*
X157434010Y-135186589D01*
X157322068Y-135456842D01*
X157265000Y-135743740D01*
X157265000Y-136036260D01*
X157322068Y-136323158D01*
X157434010Y-136593411D01*
X157596525Y-136836632D01*
X157803368Y-137043475D01*
X157977760Y-137160000D01*
X157803368Y-137276525D01*
X157596525Y-137483368D01*
X157434010Y-137726589D01*
X157322068Y-137996842D01*
X157265000Y-138283740D01*
X157265000Y-138576260D01*
X157322068Y-138863158D01*
X157434010Y-139133411D01*
X157596525Y-139376632D01*
X157803368Y-139583475D01*
X157977760Y-139700000D01*
X157803368Y-139816525D01*
X157596525Y-140023368D01*
X157434010Y-140266589D01*
X157322068Y-140536842D01*
X157265000Y-140823740D01*
X157265000Y-141116260D01*
X157322068Y-141403158D01*
X157434010Y-141673411D01*
X157596525Y-141916632D01*
X157803368Y-142123475D01*
X158046589Y-142285990D01*
X158316842Y-142397932D01*
X158603740Y-142455000D01*
X158896260Y-142455000D01*
X159183158Y-142397932D01*
X159453411Y-142285990D01*
X159696632Y-142123475D01*
X159903475Y-141916632D01*
X160020000Y-141742240D01*
X160136525Y-141916632D01*
X160343368Y-142123475D01*
X160586589Y-142285990D01*
X160856842Y-142397932D01*
X161143740Y-142455000D01*
X161436260Y-142455000D01*
X161723158Y-142397932D01*
X161993411Y-142285990D01*
X162236632Y-142123475D01*
X162443475Y-141916632D01*
X162605990Y-141673411D01*
X162717932Y-141403158D01*
X162775000Y-141116260D01*
X162775000Y-140823740D01*
X162717932Y-140536842D01*
X162605990Y-140266589D01*
X162443475Y-140023368D01*
X162236632Y-139816525D01*
X162062240Y-139700000D01*
X162236632Y-139583475D01*
X162443475Y-139376632D01*
X162605990Y-139133411D01*
X162717932Y-138863158D01*
X162775000Y-138576260D01*
X162775000Y-138283740D01*
X162717932Y-137996842D01*
X162605990Y-137726589D01*
X162443475Y-137483368D01*
X162236632Y-137276525D01*
X162062240Y-137160000D01*
X162236632Y-137043475D01*
X162443475Y-136836632D01*
X162605990Y-136593411D01*
X162717932Y-136323158D01*
X162775000Y-136036260D01*
X162775000Y-135743740D01*
X162717932Y-135456842D01*
X162605990Y-135186589D01*
X162443475Y-134943368D01*
X162236632Y-134736525D01*
X162062240Y-134620000D01*
X162236632Y-134503475D01*
X162443475Y-134296632D01*
X162605990Y-134053411D01*
X162717932Y-133783158D01*
X162775000Y-133496260D01*
X162775000Y-133203740D01*
X162717932Y-132916842D01*
X162605990Y-132646589D01*
X162443475Y-132403368D01*
X162236632Y-132196525D01*
X162062240Y-132080000D01*
X162236632Y-131963475D01*
X162443475Y-131756632D01*
X162605990Y-131513411D01*
X162717932Y-131243158D01*
X162775000Y-130956260D01*
X162775000Y-130663740D01*
X162717932Y-130376842D01*
X162605990Y-130106589D01*
X162443475Y-129863368D01*
X162236632Y-129656525D01*
X162062240Y-129540000D01*
X162236632Y-129423475D01*
X162443475Y-129216632D01*
X162605990Y-128973411D01*
X162717932Y-128703158D01*
X162775000Y-128416260D01*
X162775000Y-128123740D01*
X162717932Y-127836842D01*
X162605990Y-127566589D01*
X162443475Y-127323368D01*
X162236632Y-127116525D01*
X162062240Y-127000000D01*
X162236632Y-126883475D01*
X162443475Y-126676632D01*
X162605990Y-126433411D01*
X162717932Y-126163158D01*
X162775000Y-125876260D01*
X162775000Y-125583740D01*
X162717932Y-125296842D01*
X162605990Y-125026589D01*
X162443475Y-124783368D01*
X162236632Y-124576525D01*
X162062240Y-124460000D01*
X162236632Y-124343475D01*
X162443475Y-124136632D01*
X162605990Y-123893411D01*
X162717932Y-123623158D01*
X162775000Y-123336260D01*
X162775000Y-123043740D01*
X162717932Y-122756842D01*
X162605990Y-122486589D01*
X162443475Y-122243368D01*
X162236632Y-122036525D01*
X162062240Y-121920000D01*
X162236632Y-121803475D01*
X162443475Y-121596632D01*
X162605990Y-121353411D01*
X162717932Y-121083158D01*
X162775000Y-120796260D01*
X162775000Y-120503740D01*
X162717932Y-120216842D01*
X162605990Y-119946589D01*
X162443475Y-119703368D01*
X162236632Y-119496525D01*
X162062240Y-119380000D01*
X162236632Y-119263475D01*
X162443475Y-119056632D01*
X162605990Y-118813411D01*
X162717932Y-118543158D01*
X162775000Y-118256260D01*
X162775000Y-117963740D01*
X162717932Y-117676842D01*
X162605990Y-117406589D01*
X162443475Y-117163368D01*
X162236632Y-116956525D01*
X162062240Y-116840000D01*
X162236632Y-116723475D01*
X162443475Y-116516632D01*
X162605990Y-116273411D01*
X162717932Y-116003158D01*
X162775000Y-115716260D01*
X162775000Y-115423740D01*
X162717932Y-115136842D01*
X162605990Y-114866589D01*
X162443475Y-114623368D01*
X162236632Y-114416525D01*
X162062240Y-114300000D01*
X162236632Y-114183475D01*
X162443475Y-113976632D01*
X162605990Y-113733411D01*
X162717932Y-113463158D01*
X162775000Y-113176260D01*
X162775000Y-112883740D01*
X162717932Y-112596842D01*
X162605990Y-112326589D01*
X162443475Y-112083368D01*
X162236632Y-111876525D01*
X162062240Y-111760000D01*
X162236632Y-111643475D01*
X162443475Y-111436632D01*
X162605990Y-111193411D01*
X162717932Y-110923158D01*
X162775000Y-110636260D01*
X162775000Y-110343740D01*
X162717932Y-110056842D01*
X162605990Y-109786589D01*
X162443475Y-109543368D01*
X162236632Y-109336525D01*
X162062240Y-109220000D01*
X162236632Y-109103475D01*
X162443475Y-108896632D01*
X162605990Y-108653411D01*
X162717932Y-108383158D01*
X162775000Y-108096260D01*
X162775000Y-107803740D01*
X162717932Y-107516842D01*
X162605990Y-107246589D01*
X162443475Y-107003368D01*
X162236632Y-106796525D01*
X162062240Y-106680000D01*
X162236632Y-106563475D01*
X162443475Y-106356632D01*
X162605990Y-106113411D01*
X162717932Y-105843158D01*
X162775000Y-105556260D01*
X162775000Y-105263740D01*
X162717932Y-104976842D01*
X162605990Y-104706589D01*
X162443475Y-104463368D01*
X162236632Y-104256525D01*
X162062240Y-104140000D01*
X162236632Y-104023475D01*
X162443475Y-103816632D01*
X162605990Y-103573411D01*
X162717932Y-103303158D01*
X162775000Y-103016260D01*
X162775000Y-102723740D01*
X162717932Y-102436842D01*
X162605990Y-102166589D01*
X162443475Y-101923368D01*
X162236632Y-101716525D01*
X162062240Y-101600000D01*
X162236632Y-101483475D01*
X162443475Y-101276632D01*
X162605990Y-101033411D01*
X162717932Y-100763158D01*
X162775000Y-100476260D01*
X162775000Y-100183740D01*
X162717932Y-99896842D01*
X162605990Y-99626589D01*
X162443475Y-99383368D01*
X162236632Y-99176525D01*
X162062240Y-99060000D01*
X162236632Y-98943475D01*
X162443475Y-98736632D01*
X162605990Y-98493411D01*
X162717932Y-98223158D01*
X162775000Y-97936260D01*
X162775000Y-97643740D01*
X162717932Y-97356842D01*
X162605990Y-97086589D01*
X162443475Y-96843368D01*
X162236632Y-96636525D01*
X162062240Y-96520000D01*
X162236632Y-96403475D01*
X162443475Y-96196632D01*
X162605990Y-95953411D01*
X162717932Y-95683158D01*
X162775000Y-95396260D01*
X162775000Y-95103740D01*
X162717932Y-94816842D01*
X162605990Y-94546589D01*
X162443475Y-94303368D01*
X162236632Y-94096525D01*
X162062240Y-93980000D01*
X162236632Y-93863475D01*
X162443475Y-93656632D01*
X162605990Y-93413411D01*
X162717932Y-93143158D01*
X162775000Y-92856260D01*
X162775000Y-92563740D01*
X162717932Y-92276842D01*
X162605990Y-92006589D01*
X162443475Y-91763368D01*
X162236632Y-91556525D01*
X162062240Y-91440000D01*
X162236632Y-91323475D01*
X162443475Y-91116632D01*
X162605990Y-90873411D01*
X162717932Y-90603158D01*
X162775000Y-90316260D01*
X162775000Y-90023740D01*
X162717932Y-89736842D01*
X162605990Y-89466589D01*
X162443475Y-89223368D01*
X162236632Y-89016525D01*
X162062240Y-88900000D01*
X162236632Y-88783475D01*
X162443475Y-88576632D01*
X162605990Y-88333411D01*
X162717932Y-88063158D01*
X162775000Y-87776260D01*
X162775000Y-87483740D01*
X162717932Y-87196842D01*
X162605990Y-86926589D01*
X162443475Y-86683368D01*
X162236632Y-86476525D01*
X162062240Y-86360000D01*
X162236632Y-86243475D01*
X162443475Y-86036632D01*
X162605990Y-85793411D01*
X162717932Y-85523158D01*
X162775000Y-85236260D01*
X162775000Y-84943740D01*
X162717932Y-84656842D01*
X162605990Y-84386589D01*
X162443475Y-84143368D01*
X162236632Y-83936525D01*
X162062240Y-83820000D01*
X162236632Y-83703475D01*
X162443475Y-83496632D01*
X162605990Y-83253411D01*
X162717932Y-82983158D01*
X162775000Y-82696260D01*
X162775000Y-82403740D01*
X162717932Y-82116842D01*
X162605990Y-81846589D01*
X162443475Y-81603368D01*
X162236632Y-81396525D01*
X162054466Y-81274805D01*
X162171355Y-81205178D01*
X162387588Y-81010269D01*
X162561641Y-80776920D01*
X162686825Y-80514099D01*
X162731476Y-80366890D01*
X162610155Y-80137000D01*
X161417000Y-80137000D01*
X161417000Y-80157000D01*
X161163000Y-80157000D01*
X161163000Y-80137000D01*
X158877000Y-80137000D01*
X158877000Y-80157000D01*
X158623000Y-80157000D01*
X158623000Y-80137000D01*
X157423750Y-80137000D01*
X157265000Y-80295750D01*
X157261928Y-80860000D01*
X157274188Y-80984482D01*
X157310498Y-81104180D01*
X157369463Y-81214494D01*
X157448815Y-81311185D01*
X157545506Y-81390537D01*
X157655820Y-81449502D01*
X157728380Y-81471513D01*
X157596525Y-81603368D01*
X157471822Y-81790000D01*
X152437333Y-81790000D01*
X152400000Y-81786323D01*
X152362667Y-81790000D01*
X142277333Y-81790000D01*
X142240000Y-81786323D01*
X142202667Y-81790000D01*
X142091014Y-81800997D01*
X141947753Y-81844454D01*
X141815724Y-81915026D01*
X141699999Y-82009999D01*
X141605026Y-82125724D01*
X141534454Y-82257753D01*
X141490997Y-82401014D01*
X141476323Y-82550000D01*
X140462000Y-82550000D01*
X140462000Y-79160000D01*
X157261928Y-79160000D01*
X157265000Y-79724250D01*
X157423750Y-79883000D01*
X158623000Y-79883000D01*
X158623000Y-78683750D01*
X158877000Y-78683750D01*
X158877000Y-79883000D01*
X161163000Y-79883000D01*
X161163000Y-78689186D01*
X161417000Y-78689186D01*
X161417000Y-79883000D01*
X162610155Y-79883000D01*
X162731476Y-79653110D01*
X162686825Y-79505901D01*
X162561641Y-79243080D01*
X162387588Y-79009731D01*
X162171355Y-78814822D01*
X161921252Y-78665843D01*
X161646891Y-78568519D01*
X161417000Y-78689186D01*
X161163000Y-78689186D01*
X160933109Y-78568519D01*
X160658748Y-78665843D01*
X160408645Y-78814822D01*
X160212498Y-78991626D01*
X160189502Y-78915820D01*
X160130537Y-78805506D01*
X160051185Y-78708815D01*
X159954494Y-78629463D01*
X159844180Y-78570498D01*
X159724482Y-78534188D01*
X159600000Y-78521928D01*
X159035750Y-78525000D01*
X158877000Y-78683750D01*
X158623000Y-78683750D01*
X158464250Y-78525000D01*
X157900000Y-78521928D01*
X157775518Y-78534188D01*
X157655820Y-78570498D01*
X157545506Y-78629463D01*
X157448815Y-78708815D01*
X157369463Y-78805506D01*
X157310498Y-78915820D01*
X157274188Y-79035518D01*
X157261928Y-79160000D01*
X140462000Y-79160000D01*
X140462000Y-76962000D01*
X164338000Y-76962000D01*
X164338000Y-144018000D01*
G36*
X155575000Y-118934998D02*
G01*
X155551201Y-118963997D01*
X155064002Y-119451197D01*
X155034999Y-119474999D01*
X154983352Y-119537932D01*
X154940026Y-119590724D01*
X154922248Y-119623984D01*
X154869454Y-119722754D01*
X154825997Y-119866015D01*
X154815000Y-119977668D01*
X154815000Y-119977678D01*
X154811324Y-120015000D01*
X154815000Y-120052323D01*
X154815001Y-126685197D01*
X154625199Y-126875000D01*
X152651859Y-126875000D01*
X152683084Y-126816582D01*
X152727929Y-126668745D01*
X152743072Y-126515000D01*
X152743072Y-126215000D01*
X152727929Y-126061255D01*
X152683084Y-125913418D01*
X152610258Y-125777171D01*
X152571546Y-125730000D01*
X152610258Y-125682829D01*
X152683084Y-125546582D01*
X152727929Y-125398745D01*
X152743072Y-125245000D01*
X152743072Y-124945000D01*
X152727929Y-124791255D01*
X152683084Y-124643418D01*
X152610258Y-124507171D01*
X152512251Y-124387749D01*
X152392829Y-124289742D01*
X152256582Y-124216916D01*
X152108745Y-124172071D01*
X151955000Y-124156928D01*
X150305000Y-124156928D01*
X150151255Y-124172071D01*
X150003418Y-124216916D01*
X149867171Y-124289742D01*
X149747749Y-124387749D01*
X149649742Y-124507171D01*
X149576916Y-124643418D01*
X149532071Y-124791255D01*
X149516928Y-124945000D01*
X149516928Y-125245000D01*
X149532071Y-125398745D01*
X149576916Y-125546582D01*
X149627552Y-125641315D01*
X149567753Y-125659454D01*
X149435724Y-125730026D01*
X149346459Y-125803284D01*
X149350000Y-125767333D01*
X149353677Y-125730000D01*
X149350000Y-125692667D01*
X149350000Y-124774801D01*
X155254802Y-118870000D01*
X155654200Y-118870000D01*
X155575000Y-118934998D01*
G37*
X155575000Y-118934998D02*
X155551201Y-118963997D01*
X155064002Y-119451197D01*
X155034999Y-119474999D01*
X154983352Y-119537932D01*
X154940026Y-119590724D01*
X154922248Y-119623984D01*
X154869454Y-119722754D01*
X154825997Y-119866015D01*
X154815000Y-119977668D01*
X154815000Y-119977678D01*
X154811324Y-120015000D01*
X154815000Y-120052323D01*
X154815001Y-126685197D01*
X154625199Y-126875000D01*
X152651859Y-126875000D01*
X152683084Y-126816582D01*
X152727929Y-126668745D01*
X152743072Y-126515000D01*
X152743072Y-126215000D01*
X152727929Y-126061255D01*
X152683084Y-125913418D01*
X152610258Y-125777171D01*
X152571546Y-125730000D01*
X152610258Y-125682829D01*
X152683084Y-125546582D01*
X152727929Y-125398745D01*
X152743072Y-125245000D01*
X152743072Y-124945000D01*
X152727929Y-124791255D01*
X152683084Y-124643418D01*
X152610258Y-124507171D01*
X152512251Y-124387749D01*
X152392829Y-124289742D01*
X152256582Y-124216916D01*
X152108745Y-124172071D01*
X151955000Y-124156928D01*
X150305000Y-124156928D01*
X150151255Y-124172071D01*
X150003418Y-124216916D01*
X149867171Y-124289742D01*
X149747749Y-124387749D01*
X149649742Y-124507171D01*
X149576916Y-124643418D01*
X149532071Y-124791255D01*
X149516928Y-124945000D01*
X149516928Y-125245000D01*
X149532071Y-125398745D01*
X149576916Y-125546582D01*
X149627552Y-125641315D01*
X149567753Y-125659454D01*
X149435724Y-125730026D01*
X149346459Y-125803284D01*
X149350000Y-125767333D01*
X149353677Y-125730000D01*
X149350000Y-125692667D01*
X149350000Y-124774801D01*
X155254802Y-118870000D01*
X155654200Y-118870000D01*
X155575000Y-118934998D01*
G36*
X143081595Y-122863387D02*
G01*
X143192038Y-122997962D01*
X143326613Y-123108405D01*
X143480149Y-123190472D01*
X143646745Y-123241008D01*
X143819999Y-123258072D01*
X144470001Y-123258072D01*
X144643255Y-123241008D01*
X144809851Y-123190472D01*
X144963387Y-123108405D01*
X145097962Y-122997962D01*
X145170000Y-122910184D01*
X145242038Y-122997962D01*
X145290000Y-123037324D01*
X145290001Y-124163330D01*
X145201255Y-124172071D01*
X145053418Y-124216916D01*
X144917171Y-124289742D01*
X144797749Y-124387749D01*
X144699742Y-124507171D01*
X144626916Y-124643418D01*
X144582071Y-124791255D01*
X144566928Y-124945000D01*
X144566928Y-125245000D01*
X144582071Y-125398745D01*
X144626916Y-125546582D01*
X144699742Y-125682829D01*
X144738454Y-125730000D01*
X144699742Y-125777171D01*
X144626916Y-125913418D01*
X144582071Y-126061255D01*
X144566928Y-126215000D01*
X144566928Y-126515000D01*
X144582071Y-126668745D01*
X144626916Y-126816582D01*
X144658141Y-126875000D01*
X143000000Y-126875000D01*
X143000000Y-122710734D01*
X143081595Y-122863387D01*
G37*
X143081595Y-122863387D02*
X143192038Y-122997962D01*
X143326613Y-123108405D01*
X143480149Y-123190472D01*
X143646745Y-123241008D01*
X143819999Y-123258072D01*
X144470001Y-123258072D01*
X144643255Y-123241008D01*
X144809851Y-123190472D01*
X144963387Y-123108405D01*
X145097962Y-122997962D01*
X145170000Y-122910184D01*
X145242038Y-122997962D01*
X145290000Y-123037324D01*
X145290001Y-124163330D01*
X145201255Y-124172071D01*
X145053418Y-124216916D01*
X144917171Y-124289742D01*
X144797749Y-124387749D01*
X144699742Y-124507171D01*
X144626916Y-124643418D01*
X144582071Y-124791255D01*
X144566928Y-124945000D01*
X144566928Y-125245000D01*
X144582071Y-125398745D01*
X144626916Y-125546582D01*
X144699742Y-125682829D01*
X144738454Y-125730000D01*
X144699742Y-125777171D01*
X144626916Y-125913418D01*
X144582071Y-126061255D01*
X144566928Y-126215000D01*
X144566928Y-126515000D01*
X144582071Y-126668745D01*
X144626916Y-126816582D01*
X144658141Y-126875000D01*
X143000000Y-126875000D01*
X143000000Y-122710734D01*
X143081595Y-122863387D01*
G36*
X154180001Y-105089803D02*
G01*
X154180000Y-109817677D01*
X154176324Y-109855000D01*
X154180000Y-109892322D01*
X154180000Y-109892332D01*
X154190997Y-110003985D01*
X154207031Y-110056842D01*
X154234454Y-110147246D01*
X154305026Y-110279276D01*
X154327436Y-110306582D01*
X154399999Y-110395001D01*
X154429003Y-110418804D01*
X155648789Y-111638591D01*
X155612333Y-111635000D01*
X155612322Y-111635000D01*
X155575000Y-111631324D01*
X155537678Y-111635000D01*
X153856859Y-111635000D01*
X153888084Y-111576582D01*
X153932929Y-111428745D01*
X153948072Y-111275000D01*
X153948072Y-110975000D01*
X153932929Y-110821255D01*
X153888084Y-110673418D01*
X153815258Y-110537171D01*
X153776546Y-110490000D01*
X153815258Y-110442829D01*
X153888084Y-110306582D01*
X153932929Y-110158745D01*
X153948072Y-110005000D01*
X153948072Y-109705000D01*
X153932929Y-109551255D01*
X153888084Y-109403418D01*
X153816270Y-109269064D01*
X153840537Y-109239494D01*
X153899502Y-109129180D01*
X153935812Y-109009482D01*
X153948072Y-108885000D01*
X153945000Y-108870750D01*
X153786250Y-108712000D01*
X152462000Y-108712000D01*
X152462000Y-108732000D01*
X152208000Y-108732000D01*
X152208000Y-108712000D01*
X150883750Y-108712000D01*
X150725000Y-108870750D01*
X150721928Y-108885000D01*
X150734188Y-109009482D01*
X150770498Y-109129180D01*
X150829463Y-109239494D01*
X150853730Y-109269064D01*
X150781916Y-109403418D01*
X150737071Y-109551255D01*
X150721928Y-109705000D01*
X150721928Y-110005000D01*
X150737071Y-110158745D01*
X150781916Y-110306582D01*
X150854742Y-110442829D01*
X150893454Y-110490000D01*
X150854742Y-110537171D01*
X150781916Y-110673418D01*
X150737071Y-110821255D01*
X150721928Y-110975000D01*
X150721928Y-111275000D01*
X150737071Y-111428745D01*
X150781916Y-111576582D01*
X150854742Y-111712829D01*
X150893454Y-111760000D01*
X150854742Y-111807171D01*
X150781916Y-111943418D01*
X150737071Y-112091255D01*
X150721928Y-112245000D01*
X150721928Y-112545000D01*
X150737071Y-112698745D01*
X150781916Y-112846582D01*
X150854742Y-112982829D01*
X150893454Y-113030000D01*
X150854742Y-113077171D01*
X150781916Y-113213418D01*
X150737071Y-113361255D01*
X150721928Y-113515000D01*
X150721928Y-113815000D01*
X150737071Y-113968745D01*
X150781916Y-114116582D01*
X150854742Y-114252829D01*
X150893454Y-114300000D01*
X150854742Y-114347171D01*
X150781916Y-114483418D01*
X150737071Y-114631255D01*
X150721928Y-114785000D01*
X150721928Y-115085000D01*
X150737071Y-115238745D01*
X150781916Y-115386582D01*
X150854742Y-115522829D01*
X150952749Y-115642251D01*
X151072171Y-115740258D01*
X151208418Y-115813084D01*
X151356255Y-115857929D01*
X151510000Y-115873072D01*
X153160000Y-115873072D01*
X153313745Y-115857929D01*
X153461582Y-115813084D01*
X153597829Y-115740258D01*
X153717251Y-115642251D01*
X153815258Y-115522829D01*
X153888084Y-115386582D01*
X153932929Y-115238745D01*
X153948072Y-115085000D01*
X153948072Y-114785000D01*
X153932929Y-114631255D01*
X153888084Y-114483418D01*
X153815258Y-114347171D01*
X153776546Y-114300000D01*
X153815258Y-114252829D01*
X153888084Y-114116582D01*
X153932929Y-113968745D01*
X153948072Y-113815000D01*
X153948072Y-113515000D01*
X153932929Y-113361255D01*
X153888084Y-113213418D01*
X153856859Y-113155000D01*
X155260199Y-113155000D01*
X157308790Y-115203592D01*
X157265000Y-115423740D01*
X157265000Y-115716260D01*
X157322068Y-116003158D01*
X157434010Y-116273411D01*
X157596525Y-116516632D01*
X157803368Y-116723475D01*
X157977760Y-116840000D01*
X157803368Y-116956525D01*
X157596525Y-117163368D01*
X157471822Y-117350000D01*
X154977322Y-117350000D01*
X154939999Y-117346324D01*
X154902676Y-117350000D01*
X154902667Y-117350000D01*
X154791014Y-117360997D01*
X154647753Y-117404454D01*
X154515723Y-117475026D01*
X154432083Y-117543668D01*
X154399999Y-117569999D01*
X154376201Y-117598997D01*
X148079003Y-123896196D01*
X148049999Y-123919999D01*
X147994871Y-123987174D01*
X147955026Y-124035724D01*
X147901089Y-124136632D01*
X147884454Y-124167754D01*
X147840997Y-124311015D01*
X147830000Y-124422668D01*
X147830000Y-124422678D01*
X147826324Y-124460000D01*
X147830000Y-124497323D01*
X147830001Y-125415198D01*
X147748092Y-125497107D01*
X147777929Y-125398745D01*
X147793072Y-125245000D01*
X147793072Y-124945000D01*
X147777929Y-124791255D01*
X147733084Y-124643418D01*
X147660258Y-124507171D01*
X147562251Y-124387749D01*
X147442829Y-124289742D01*
X147306582Y-124216916D01*
X147158745Y-124172071D01*
X147005000Y-124156928D01*
X146810000Y-124156928D01*
X146810000Y-123205594D01*
X146859851Y-123190472D01*
X147013387Y-123108405D01*
X147147962Y-122997962D01*
X147258405Y-122863387D01*
X147340472Y-122709851D01*
X147349527Y-122680000D01*
X147917678Y-122680000D01*
X147955000Y-122683676D01*
X147992322Y-122680000D01*
X147992333Y-122680000D01*
X148103986Y-122669003D01*
X148247247Y-122625546D01*
X148379276Y-122554974D01*
X148495001Y-122460001D01*
X148518804Y-122430997D01*
X149736004Y-121213798D01*
X149765001Y-121190001D01*
X149859974Y-121074276D01*
X149930546Y-120942247D01*
X149974003Y-120798986D01*
X149985000Y-120687333D01*
X149985000Y-120687324D01*
X149988676Y-120650001D01*
X149985000Y-120612678D01*
X149985000Y-113197322D01*
X149988676Y-113159999D01*
X149985000Y-113122676D01*
X149985000Y-113122667D01*
X149974003Y-113011014D01*
X149930546Y-112867753D01*
X149859974Y-112735724D01*
X149820190Y-112687247D01*
X149788799Y-112648996D01*
X149788795Y-112648992D01*
X149765001Y-112619999D01*
X149736008Y-112596205D01*
X149023803Y-111884002D01*
X149000001Y-111854999D01*
X148884276Y-111760026D01*
X148844134Y-111738569D01*
X148865258Y-111712829D01*
X148938084Y-111576582D01*
X148982929Y-111428745D01*
X148998072Y-111275000D01*
X148998072Y-110975000D01*
X148982929Y-110821255D01*
X148938084Y-110673418D01*
X148865258Y-110537171D01*
X148826546Y-110490000D01*
X148865258Y-110442829D01*
X148938084Y-110306582D01*
X148982929Y-110158745D01*
X148998072Y-110005000D01*
X148998072Y-109705000D01*
X148982929Y-109551255D01*
X148938084Y-109403418D01*
X148865258Y-109267171D01*
X148844134Y-109241431D01*
X148884276Y-109219974D01*
X149000001Y-109125001D01*
X149023803Y-109095998D01*
X149736008Y-108383795D01*
X149765001Y-108360001D01*
X149788795Y-108331008D01*
X149788799Y-108331004D01*
X149859973Y-108244277D01*
X149859974Y-108244276D01*
X149930546Y-108112247D01*
X149974003Y-107968986D01*
X149985000Y-107857333D01*
X149985000Y-107857324D01*
X149988676Y-107820001D01*
X149985000Y-107782678D01*
X149985000Y-107615000D01*
X150721928Y-107615000D01*
X150734188Y-107739482D01*
X150770498Y-107859180D01*
X150819043Y-107950000D01*
X150770498Y-108040820D01*
X150734188Y-108160518D01*
X150721928Y-108285000D01*
X150725000Y-108299250D01*
X150883750Y-108458000D01*
X152208000Y-108458000D01*
X152208000Y-107442000D01*
X152462000Y-107442000D01*
X152462000Y-108458000D01*
X153786250Y-108458000D01*
X153945000Y-108299250D01*
X153948072Y-108285000D01*
X153935812Y-108160518D01*
X153899502Y-108040820D01*
X153850957Y-107950000D01*
X153899502Y-107859180D01*
X153935812Y-107739482D01*
X153948072Y-107615000D01*
X153945000Y-107600750D01*
X153786250Y-107442000D01*
X152462000Y-107442000D01*
X152208000Y-107442000D01*
X150883750Y-107442000D01*
X150725000Y-107600750D01*
X150721928Y-107615000D01*
X149985000Y-107615000D01*
X149985000Y-106345000D01*
X150721928Y-106345000D01*
X150734188Y-106469482D01*
X150770498Y-106589180D01*
X150819043Y-106680000D01*
X150770498Y-106770820D01*
X150734188Y-106890518D01*
X150721928Y-107015000D01*
X150725000Y-107029250D01*
X150883750Y-107188000D01*
X152208000Y-107188000D01*
X152208000Y-106172000D01*
X152462000Y-106172000D01*
X152462000Y-107188000D01*
X153786250Y-107188000D01*
X153945000Y-107029250D01*
X153948072Y-107015000D01*
X153935812Y-106890518D01*
X153899502Y-106770820D01*
X153850957Y-106680000D01*
X153899502Y-106589180D01*
X153935812Y-106469482D01*
X153948072Y-106345000D01*
X153945000Y-106330750D01*
X153786250Y-106172000D01*
X152462000Y-106172000D01*
X152208000Y-106172000D01*
X150883750Y-106172000D01*
X150725000Y-106330750D01*
X150721928Y-106345000D01*
X149985000Y-106345000D01*
X149985000Y-105745000D01*
X150721928Y-105745000D01*
X150725000Y-105759250D01*
X150883750Y-105918000D01*
X152208000Y-105918000D01*
X152208000Y-105268750D01*
X152462000Y-105268750D01*
X152462000Y-105918000D01*
X153786250Y-105918000D01*
X153945000Y-105759250D01*
X153948072Y-105745000D01*
X153935812Y-105620518D01*
X153899502Y-105500820D01*
X153840537Y-105390506D01*
X153761185Y-105293815D01*
X153664494Y-105214463D01*
X153554180Y-105155498D01*
X153434482Y-105119188D01*
X153310000Y-105106928D01*
X152620750Y-105110000D01*
X152462000Y-105268750D01*
X152208000Y-105268750D01*
X152049250Y-105110000D01*
X151360000Y-105106928D01*
X151235518Y-105119188D01*
X151115820Y-105155498D01*
X151005506Y-105214463D01*
X150908815Y-105293815D01*
X150829463Y-105390506D01*
X150770498Y-105500820D01*
X150734188Y-105620518D01*
X150721928Y-105745000D01*
X149985000Y-105745000D01*
X149985000Y-105089801D01*
X150174802Y-104900000D01*
X153990199Y-104900000D01*
X154180001Y-105089803D01*
G37*
X154180001Y-105089803D02*
X154180000Y-109817677D01*
X154176324Y-109855000D01*
X154180000Y-109892322D01*
X154180000Y-109892332D01*
X154190997Y-110003985D01*
X154207031Y-110056842D01*
X154234454Y-110147246D01*
X154305026Y-110279276D01*
X154327436Y-110306582D01*
X154399999Y-110395001D01*
X154429003Y-110418804D01*
X155648789Y-111638591D01*
X155612333Y-111635000D01*
X155612322Y-111635000D01*
X155575000Y-111631324D01*
X155537678Y-111635000D01*
X153856859Y-111635000D01*
X153888084Y-111576582D01*
X153932929Y-111428745D01*
X153948072Y-111275000D01*
X153948072Y-110975000D01*
X153932929Y-110821255D01*
X153888084Y-110673418D01*
X153815258Y-110537171D01*
X153776546Y-110490000D01*
X153815258Y-110442829D01*
X153888084Y-110306582D01*
X153932929Y-110158745D01*
X153948072Y-110005000D01*
X153948072Y-109705000D01*
X153932929Y-109551255D01*
X153888084Y-109403418D01*
X153816270Y-109269064D01*
X153840537Y-109239494D01*
X153899502Y-109129180D01*
X153935812Y-109009482D01*
X153948072Y-108885000D01*
X153945000Y-108870750D01*
X153786250Y-108712000D01*
X152462000Y-108712000D01*
X152462000Y-108732000D01*
X152208000Y-108732000D01*
X152208000Y-108712000D01*
X150883750Y-108712000D01*
X150725000Y-108870750D01*
X150721928Y-108885000D01*
X150734188Y-109009482D01*
X150770498Y-109129180D01*
X150829463Y-109239494D01*
X150853730Y-109269064D01*
X150781916Y-109403418D01*
X150737071Y-109551255D01*
X150721928Y-109705000D01*
X150721928Y-110005000D01*
X150737071Y-110158745D01*
X150781916Y-110306582D01*
X150854742Y-110442829D01*
X150893454Y-110490000D01*
X150854742Y-110537171D01*
X150781916Y-110673418D01*
X150737071Y-110821255D01*
X150721928Y-110975000D01*
X150721928Y-111275000D01*
X150737071Y-111428745D01*
X150781916Y-111576582D01*
X150854742Y-111712829D01*
X150893454Y-111760000D01*
X150854742Y-111807171D01*
X150781916Y-111943418D01*
X150737071Y-112091255D01*
X150721928Y-112245000D01*
X150721928Y-112545000D01*
X150737071Y-112698745D01*
X150781916Y-112846582D01*
X150854742Y-112982829D01*
X150893454Y-113030000D01*
X150854742Y-113077171D01*
X150781916Y-113213418D01*
X150737071Y-113361255D01*
X150721928Y-113515000D01*
X150721928Y-113815000D01*
X150737071Y-113968745D01*
X150781916Y-114116582D01*
X150854742Y-114252829D01*
X150893454Y-114300000D01*
X150854742Y-114347171D01*
X150781916Y-114483418D01*
X150737071Y-114631255D01*
X150721928Y-114785000D01*
X150721928Y-115085000D01*
X150737071Y-115238745D01*
X150781916Y-115386582D01*
X150854742Y-115522829D01*
X150952749Y-115642251D01*
X151072171Y-115740258D01*
X151208418Y-115813084D01*
X151356255Y-115857929D01*
X151510000Y-115873072D01*
X153160000Y-115873072D01*
X153313745Y-115857929D01*
X153461582Y-115813084D01*
X153597829Y-115740258D01*
X153717251Y-115642251D01*
X153815258Y-115522829D01*
X153888084Y-115386582D01*
X153932929Y-115238745D01*
X153948072Y-115085000D01*
X153948072Y-114785000D01*
X153932929Y-114631255D01*
X153888084Y-114483418D01*
X153815258Y-114347171D01*
X153776546Y-114300000D01*
X153815258Y-114252829D01*
X153888084Y-114116582D01*
X153932929Y-113968745D01*
X153948072Y-113815000D01*
X153948072Y-113515000D01*
X153932929Y-113361255D01*
X153888084Y-113213418D01*
X153856859Y-113155000D01*
X155260199Y-113155000D01*
X157308790Y-115203592D01*
X157265000Y-115423740D01*
X157265000Y-115716260D01*
X157322068Y-116003158D01*
X157434010Y-116273411D01*
X157596525Y-116516632D01*
X157803368Y-116723475D01*
X157977760Y-116840000D01*
X157803368Y-116956525D01*
X157596525Y-117163368D01*
X157471822Y-117350000D01*
X154977322Y-117350000D01*
X154939999Y-117346324D01*
X154902676Y-117350000D01*
X154902667Y-117350000D01*
X154791014Y-117360997D01*
X154647753Y-117404454D01*
X154515723Y-117475026D01*
X154432083Y-117543668D01*
X154399999Y-117569999D01*
X154376201Y-117598997D01*
X148079003Y-123896196D01*
X148049999Y-123919999D01*
X147994871Y-123987174D01*
X147955026Y-124035724D01*
X147901089Y-124136632D01*
X147884454Y-124167754D01*
X147840997Y-124311015D01*
X147830000Y-124422668D01*
X147830000Y-124422678D01*
X147826324Y-124460000D01*
X147830000Y-124497323D01*
X147830001Y-125415198D01*
X147748092Y-125497107D01*
X147777929Y-125398745D01*
X147793072Y-125245000D01*
X147793072Y-124945000D01*
X147777929Y-124791255D01*
X147733084Y-124643418D01*
X147660258Y-124507171D01*
X147562251Y-124387749D01*
X147442829Y-124289742D01*
X147306582Y-124216916D01*
X147158745Y-124172071D01*
X147005000Y-124156928D01*
X146810000Y-124156928D01*
X146810000Y-123205594D01*
X146859851Y-123190472D01*
X147013387Y-123108405D01*
X147147962Y-122997962D01*
X147258405Y-122863387D01*
X147340472Y-122709851D01*
X147349527Y-122680000D01*
X147917678Y-122680000D01*
X147955000Y-122683676D01*
X147992322Y-122680000D01*
X147992333Y-122680000D01*
X148103986Y-122669003D01*
X148247247Y-122625546D01*
X148379276Y-122554974D01*
X148495001Y-122460001D01*
X148518804Y-122430997D01*
X149736004Y-121213798D01*
X149765001Y-121190001D01*
X149859974Y-121074276D01*
X149930546Y-120942247D01*
X149974003Y-120798986D01*
X149985000Y-120687333D01*
X149985000Y-120687324D01*
X149988676Y-120650001D01*
X149985000Y-120612678D01*
X149985000Y-113197322D01*
X149988676Y-113159999D01*
X149985000Y-113122676D01*
X149985000Y-113122667D01*
X149974003Y-113011014D01*
X149930546Y-112867753D01*
X149859974Y-112735724D01*
X149820190Y-112687247D01*
X149788799Y-112648996D01*
X149788795Y-112648992D01*
X149765001Y-112619999D01*
X149736008Y-112596205D01*
X149023803Y-111884002D01*
X149000001Y-111854999D01*
X148884276Y-111760026D01*
X148844134Y-111738569D01*
X148865258Y-111712829D01*
X148938084Y-111576582D01*
X148982929Y-111428745D01*
X148998072Y-111275000D01*
X148998072Y-110975000D01*
X148982929Y-110821255D01*
X148938084Y-110673418D01*
X148865258Y-110537171D01*
X148826546Y-110490000D01*
X148865258Y-110442829D01*
X148938084Y-110306582D01*
X148982929Y-110158745D01*
X148998072Y-110005000D01*
X148998072Y-109705000D01*
X148982929Y-109551255D01*
X148938084Y-109403418D01*
X148865258Y-109267171D01*
X148844134Y-109241431D01*
X148884276Y-109219974D01*
X149000001Y-109125001D01*
X149023803Y-109095998D01*
X149736008Y-108383795D01*
X149765001Y-108360001D01*
X149788795Y-108331008D01*
X149788799Y-108331004D01*
X149859973Y-108244277D01*
X149859974Y-108244276D01*
X149930546Y-108112247D01*
X149974003Y-107968986D01*
X149985000Y-107857333D01*
X149985000Y-107857324D01*
X149988676Y-107820001D01*
X149985000Y-107782678D01*
X149985000Y-107615000D01*
X150721928Y-107615000D01*
X150734188Y-107739482D01*
X150770498Y-107859180D01*
X150819043Y-107950000D01*
X150770498Y-108040820D01*
X150734188Y-108160518D01*
X150721928Y-108285000D01*
X150725000Y-108299250D01*
X150883750Y-108458000D01*
X152208000Y-108458000D01*
X152208000Y-107442000D01*
X152462000Y-107442000D01*
X152462000Y-108458000D01*
X153786250Y-108458000D01*
X153945000Y-108299250D01*
X153948072Y-108285000D01*
X153935812Y-108160518D01*
X153899502Y-108040820D01*
X153850957Y-107950000D01*
X153899502Y-107859180D01*
X153935812Y-107739482D01*
X153948072Y-107615000D01*
X153945000Y-107600750D01*
X153786250Y-107442000D01*
X152462000Y-107442000D01*
X152208000Y-107442000D01*
X150883750Y-107442000D01*
X150725000Y-107600750D01*
X150721928Y-107615000D01*
X149985000Y-107615000D01*
X149985000Y-106345000D01*
X150721928Y-106345000D01*
X150734188Y-106469482D01*
X150770498Y-106589180D01*
X150819043Y-106680000D01*
X150770498Y-106770820D01*
X150734188Y-106890518D01*
X150721928Y-107015000D01*
X150725000Y-107029250D01*
X150883750Y-107188000D01*
X152208000Y-107188000D01*
X152208000Y-106172000D01*
X152462000Y-106172000D01*
X152462000Y-107188000D01*
X153786250Y-107188000D01*
X153945000Y-107029250D01*
X153948072Y-107015000D01*
X153935812Y-106890518D01*
X153899502Y-106770820D01*
X153850957Y-106680000D01*
X153899502Y-106589180D01*
X153935812Y-106469482D01*
X153948072Y-106345000D01*
X153945000Y-106330750D01*
X153786250Y-106172000D01*
X152462000Y-106172000D01*
X152208000Y-106172000D01*
X150883750Y-106172000D01*
X150725000Y-106330750D01*
X150721928Y-106345000D01*
X149985000Y-106345000D01*
X149985000Y-105745000D01*
X150721928Y-105745000D01*
X150725000Y-105759250D01*
X150883750Y-105918000D01*
X152208000Y-105918000D01*
X152208000Y-105268750D01*
X152462000Y-105268750D01*
X152462000Y-105918000D01*
X153786250Y-105918000D01*
X153945000Y-105759250D01*
X153948072Y-105745000D01*
X153935812Y-105620518D01*
X153899502Y-105500820D01*
X153840537Y-105390506D01*
X153761185Y-105293815D01*
X153664494Y-105214463D01*
X153554180Y-105155498D01*
X153434482Y-105119188D01*
X153310000Y-105106928D01*
X152620750Y-105110000D01*
X152462000Y-105268750D01*
X152208000Y-105268750D01*
X152049250Y-105110000D01*
X151360000Y-105106928D01*
X151235518Y-105119188D01*
X151115820Y-105155498D01*
X151005506Y-105214463D01*
X150908815Y-105293815D01*
X150829463Y-105390506D01*
X150770498Y-105500820D01*
X150734188Y-105620518D01*
X150721928Y-105745000D01*
X149985000Y-105745000D01*
X149985000Y-105089801D01*
X150174802Y-104900000D01*
X153990199Y-104900000D01*
X154180001Y-105089803D01*
G36*
X146122171Y-115740258D02*
G01*
X146258418Y-115813084D01*
X146406255Y-115857929D01*
X146560000Y-115873072D01*
X148210000Y-115873072D01*
X148363745Y-115857929D01*
X148465001Y-115827214D01*
X148465000Y-120335198D01*
X147640199Y-121160000D01*
X147349527Y-121160000D01*
X147340472Y-121130149D01*
X147258405Y-120976613D01*
X147147962Y-120842038D01*
X147013387Y-120731595D01*
X146859851Y-120649528D01*
X146693255Y-120598992D01*
X146520001Y-120581928D01*
X145869999Y-120581928D01*
X145696745Y-120598992D01*
X145530149Y-120649528D01*
X145376613Y-120731595D01*
X145242038Y-120842038D01*
X145170000Y-120929816D01*
X145097962Y-120842038D01*
X144963387Y-120731595D01*
X144809851Y-120649528D01*
X144643255Y-120598992D01*
X144470001Y-120581928D01*
X143819999Y-120581928D01*
X143646745Y-120598992D01*
X143480149Y-120649528D01*
X143326613Y-120731595D01*
X143192038Y-120842038D01*
X143081595Y-120976613D01*
X143000000Y-121129266D01*
X143000000Y-115695000D01*
X146067024Y-115695000D01*
X146122171Y-115740258D01*
G37*
X146122171Y-115740258D02*
X146258418Y-115813084D01*
X146406255Y-115857929D01*
X146560000Y-115873072D01*
X148210000Y-115873072D01*
X148363745Y-115857929D01*
X148465001Y-115827214D01*
X148465000Y-120335198D01*
X147640199Y-121160000D01*
X147349527Y-121160000D01*
X147340472Y-121130149D01*
X147258405Y-120976613D01*
X147147962Y-120842038D01*
X147013387Y-120731595D01*
X146859851Y-120649528D01*
X146693255Y-120598992D01*
X146520001Y-120581928D01*
X145869999Y-120581928D01*
X145696745Y-120598992D01*
X145530149Y-120649528D01*
X145376613Y-120731595D01*
X145242038Y-120842038D01*
X145170000Y-120929816D01*
X145097962Y-120842038D01*
X144963387Y-120731595D01*
X144809851Y-120649528D01*
X144643255Y-120598992D01*
X144470001Y-120581928D01*
X143819999Y-120581928D01*
X143646745Y-120598992D01*
X143480149Y-120649528D01*
X143326613Y-120731595D01*
X143192038Y-120842038D01*
X143081595Y-120976613D01*
X143000000Y-121129266D01*
X143000000Y-115695000D01*
X146067024Y-115695000D01*
X146122171Y-115740258D01*
G36*
X145746201Y-111636003D02*
G01*
X145769999Y-111665001D01*
X145798997Y-111688799D01*
X145885723Y-111759974D01*
X145925866Y-111781431D01*
X145904742Y-111807171D01*
X145831916Y-111943418D01*
X145787071Y-112091255D01*
X145771928Y-112245000D01*
X145771928Y-112545000D01*
X145787071Y-112698745D01*
X145831916Y-112846582D01*
X145904742Y-112982829D01*
X145943454Y-113030000D01*
X145904742Y-113077171D01*
X145831916Y-113213418D01*
X145787071Y-113361255D01*
X145771928Y-113515000D01*
X145771928Y-113815000D01*
X145787071Y-113968745D01*
X145831916Y-114116582D01*
X145863141Y-114175000D01*
X143000000Y-114175000D01*
X143000000Y-108889801D01*
X145746201Y-111636003D01*
G37*
X145746201Y-111636003D02*
X145769999Y-111665001D01*
X145798997Y-111688799D01*
X145885723Y-111759974D01*
X145925866Y-111781431D01*
X145904742Y-111807171D01*
X145831916Y-111943418D01*
X145787071Y-112091255D01*
X145771928Y-112245000D01*
X145771928Y-112545000D01*
X145787071Y-112698745D01*
X145831916Y-112846582D01*
X145904742Y-112982829D01*
X145943454Y-113030000D01*
X145904742Y-113077171D01*
X145831916Y-113213418D01*
X145787071Y-113361255D01*
X145771928Y-113515000D01*
X145771928Y-113815000D01*
X145787071Y-113968745D01*
X145831916Y-114116582D01*
X145863141Y-114175000D01*
X143000000Y-114175000D01*
X143000000Y-108889801D01*
X145746201Y-111636003D01*
G36*
X157596525Y-83496632D02*
G01*
X157803368Y-83703475D01*
X157977760Y-83820000D01*
X157803368Y-83936525D01*
X157596525Y-84143368D01*
X157434010Y-84386589D01*
X157322068Y-84656842D01*
X157265000Y-84943740D01*
X157265000Y-85236260D01*
X157322068Y-85523158D01*
X157434010Y-85793411D01*
X157596525Y-86036632D01*
X157803368Y-86243475D01*
X157977760Y-86360000D01*
X157803368Y-86476525D01*
X157596525Y-86683368D01*
X157434010Y-86926589D01*
X157322068Y-87196842D01*
X157265000Y-87483740D01*
X157265000Y-87776260D01*
X157322068Y-88063158D01*
X157434010Y-88333411D01*
X157596525Y-88576632D01*
X157803368Y-88783475D01*
X157977760Y-88900000D01*
X157803368Y-89016525D01*
X157596525Y-89223368D01*
X157434010Y-89466589D01*
X157322068Y-89736842D01*
X157265000Y-90023740D01*
X157265000Y-90316260D01*
X157322068Y-90603158D01*
X157434010Y-90873411D01*
X157596525Y-91116632D01*
X157803368Y-91323475D01*
X157977760Y-91440000D01*
X157803368Y-91556525D01*
X157596525Y-91763368D01*
X157434010Y-92006589D01*
X157322068Y-92276842D01*
X157265000Y-92563740D01*
X157265000Y-92856260D01*
X157322068Y-93143158D01*
X157434010Y-93413411D01*
X157596525Y-93656632D01*
X157803368Y-93863475D01*
X157977760Y-93980000D01*
X157803368Y-94096525D01*
X157596525Y-94303368D01*
X157434010Y-94546589D01*
X157322068Y-94816842D01*
X157265000Y-95103740D01*
X157265000Y-95396260D01*
X157322068Y-95683158D01*
X157434010Y-95953411D01*
X157596525Y-96196632D01*
X157803368Y-96403475D01*
X157977760Y-96520000D01*
X157803368Y-96636525D01*
X157596525Y-96843368D01*
X157434010Y-97086589D01*
X157322068Y-97356842D01*
X157265000Y-97643740D01*
X157265000Y-97936260D01*
X157322068Y-98223158D01*
X157434010Y-98493411D01*
X157596525Y-98736632D01*
X157803368Y-98943475D01*
X157977760Y-99060000D01*
X157803368Y-99176525D01*
X157596525Y-99383368D01*
X157434010Y-99626589D01*
X157322068Y-99896842D01*
X157265000Y-100183740D01*
X157265000Y-100476260D01*
X157322068Y-100763158D01*
X157434010Y-101033411D01*
X157596525Y-101276632D01*
X157803368Y-101483475D01*
X157977760Y-101600000D01*
X157803368Y-101716525D01*
X157596525Y-101923368D01*
X157434010Y-102166589D01*
X157322068Y-102436842D01*
X157265000Y-102723740D01*
X157265000Y-103016260D01*
X157322068Y-103303158D01*
X157434010Y-103573411D01*
X157596525Y-103816632D01*
X157803368Y-104023475D01*
X157977760Y-104140000D01*
X157803368Y-104256525D01*
X157596525Y-104463368D01*
X157434010Y-104706589D01*
X157322068Y-104976842D01*
X157265000Y-105263740D01*
X157265000Y-105556260D01*
X157322068Y-105843158D01*
X157434010Y-106113411D01*
X157596525Y-106356632D01*
X157803368Y-106563475D01*
X157977760Y-106680000D01*
X157803368Y-106796525D01*
X157596525Y-107003368D01*
X157434010Y-107246589D01*
X157322068Y-107516842D01*
X157265000Y-107803740D01*
X157265000Y-108096260D01*
X157322068Y-108383158D01*
X157434010Y-108653411D01*
X157596525Y-108896632D01*
X157803368Y-109103475D01*
X157977760Y-109220000D01*
X157803368Y-109336525D01*
X157596525Y-109543368D01*
X157434010Y-109786589D01*
X157322068Y-110056842D01*
X157265000Y-110343740D01*
X157265000Y-110636260D01*
X157322068Y-110923158D01*
X157393247Y-111094999D01*
X157254801Y-111094999D01*
X155700000Y-109540199D01*
X155700000Y-104812333D01*
X155703677Y-104775000D01*
X155689003Y-104626014D01*
X155645546Y-104482753D01*
X155574974Y-104350724D01*
X155503799Y-104263997D01*
X155480001Y-104234999D01*
X155451002Y-104211200D01*
X154868803Y-103629002D01*
X154845001Y-103599999D01*
X154729276Y-103505026D01*
X154597247Y-103434454D01*
X154453986Y-103390997D01*
X154342333Y-103380000D01*
X154342322Y-103380000D01*
X154305000Y-103376324D01*
X154267678Y-103380000D01*
X149897333Y-103380000D01*
X149860000Y-103376323D01*
X149822667Y-103380000D01*
X149711014Y-103390997D01*
X149567753Y-103434454D01*
X149435724Y-103505026D01*
X149319999Y-103599999D01*
X149296200Y-103628998D01*
X148714002Y-104211197D01*
X148684999Y-104234999D01*
X148633352Y-104297932D01*
X148590026Y-104350724D01*
X148546451Y-104432246D01*
X148519454Y-104482754D01*
X148475997Y-104626015D01*
X148465000Y-104737668D01*
X148465000Y-104737678D01*
X148461324Y-104775000D01*
X148465000Y-104812323D01*
X148465000Y-105117269D01*
X148360000Y-105106928D01*
X147670750Y-105110000D01*
X147512000Y-105268750D01*
X147512000Y-105918000D01*
X147532000Y-105918000D01*
X147532000Y-106172000D01*
X147512000Y-106172000D01*
X147512000Y-107188000D01*
X147532000Y-107188000D01*
X147532000Y-107442000D01*
X147512000Y-107442000D01*
X147512000Y-107462000D01*
X147258000Y-107462000D01*
X147258000Y-107442000D01*
X145933750Y-107442000D01*
X145775000Y-107600750D01*
X145771928Y-107615000D01*
X145784188Y-107739482D01*
X145820498Y-107859180D01*
X145879463Y-107969494D01*
X145903730Y-107999064D01*
X145831916Y-108133418D01*
X145787071Y-108281255D01*
X145771928Y-108435000D01*
X145771928Y-108735000D01*
X145787071Y-108888745D01*
X145831916Y-109036582D01*
X145904742Y-109172829D01*
X145943454Y-109220000D01*
X145904742Y-109267171D01*
X145831916Y-109403418D01*
X145792653Y-109532852D01*
X144270000Y-108010199D01*
X144270000Y-106345000D01*
X145771928Y-106345000D01*
X145784188Y-106469482D01*
X145820498Y-106589180D01*
X145869043Y-106680000D01*
X145820498Y-106770820D01*
X145784188Y-106890518D01*
X145771928Y-107015000D01*
X145775000Y-107029250D01*
X145933750Y-107188000D01*
X147258000Y-107188000D01*
X147258000Y-106172000D01*
X145933750Y-106172000D01*
X145775000Y-106330750D01*
X145771928Y-106345000D01*
X144270000Y-106345000D01*
X144270000Y-105745000D01*
X145771928Y-105745000D01*
X145775000Y-105759250D01*
X145933750Y-105918000D01*
X147258000Y-105918000D01*
X147258000Y-105268750D01*
X147099250Y-105110000D01*
X146410000Y-105106928D01*
X146285518Y-105119188D01*
X146165820Y-105155498D01*
X146055506Y-105214463D01*
X145958815Y-105293815D01*
X145879463Y-105390506D01*
X145820498Y-105500820D01*
X145784188Y-105620518D01*
X145771928Y-105745000D01*
X144270000Y-105745000D01*
X144270000Y-98059013D01*
X144289744Y-98072205D01*
X144478102Y-98150226D01*
X144678061Y-98190000D01*
X144881939Y-98190000D01*
X145081898Y-98150226D01*
X145270256Y-98072205D01*
X145439774Y-97958937D01*
X145583937Y-97814774D01*
X145697205Y-97645256D01*
X145775226Y-97456898D01*
X145775603Y-97455000D01*
X145836928Y-97455000D01*
X145849188Y-97579482D01*
X145885498Y-97699180D01*
X145944463Y-97809494D01*
X146023815Y-97906185D01*
X146120506Y-97985537D01*
X146230820Y-98044502D01*
X146350518Y-98080812D01*
X146475000Y-98093072D01*
X147164250Y-98090000D01*
X147323000Y-97931250D01*
X147323000Y-97282000D01*
X147577000Y-97282000D01*
X147577000Y-97931250D01*
X147735750Y-98090000D01*
X148425000Y-98093072D01*
X148549482Y-98080812D01*
X148669180Y-98044502D01*
X148779494Y-97985537D01*
X148876185Y-97906185D01*
X148955537Y-97809494D01*
X149014502Y-97699180D01*
X149050812Y-97579482D01*
X149063072Y-97455000D01*
X149060000Y-97440750D01*
X148901250Y-97282000D01*
X147577000Y-97282000D01*
X147323000Y-97282000D01*
X145998750Y-97282000D01*
X145840000Y-97440750D01*
X145836928Y-97455000D01*
X145775603Y-97455000D01*
X145815000Y-97256939D01*
X145815000Y-97053061D01*
X145775226Y-96853102D01*
X145697205Y-96664744D01*
X145583937Y-96495226D01*
X145576756Y-96488045D01*
X145857653Y-96207148D01*
X145896916Y-96336582D01*
X145968730Y-96470936D01*
X145944463Y-96500506D01*
X145885498Y-96610820D01*
X145849188Y-96730518D01*
X145836928Y-96855000D01*
X145840000Y-96869250D01*
X145998750Y-97028000D01*
X147323000Y-97028000D01*
X147323000Y-97008000D01*
X147577000Y-97008000D01*
X147577000Y-97028000D01*
X148901250Y-97028000D01*
X149060000Y-96869250D01*
X149063072Y-96855000D01*
X149050812Y-96730518D01*
X149024870Y-96645000D01*
X149187678Y-96645000D01*
X149225000Y-96648676D01*
X149262322Y-96645000D01*
X149262333Y-96645000D01*
X149373986Y-96634003D01*
X149517247Y-96590546D01*
X149649276Y-96519974D01*
X149765001Y-96425001D01*
X149788804Y-96395997D01*
X150809802Y-95375000D01*
X150878141Y-95375000D01*
X150846916Y-95433418D01*
X150802071Y-95581255D01*
X150786928Y-95735000D01*
X150786928Y-96035000D01*
X150802071Y-96188745D01*
X150846916Y-96336582D01*
X150919742Y-96472829D01*
X150958454Y-96520000D01*
X150919742Y-96567171D01*
X150846916Y-96703418D01*
X150802071Y-96851255D01*
X150786928Y-97005000D01*
X150786928Y-97305000D01*
X150802071Y-97458745D01*
X150846916Y-97606582D01*
X150919742Y-97742829D01*
X151017749Y-97862251D01*
X151137171Y-97960258D01*
X151273418Y-98033084D01*
X151421255Y-98077929D01*
X151575000Y-98093072D01*
X152263271Y-98093072D01*
X154725001Y-100554803D01*
X154725000Y-101531289D01*
X154681063Y-101575226D01*
X154567795Y-101744744D01*
X154489774Y-101933102D01*
X154450000Y-102133061D01*
X154450000Y-102336939D01*
X154489774Y-102536898D01*
X154567795Y-102725256D01*
X154681063Y-102894774D01*
X154825226Y-103038937D01*
X154994744Y-103152205D01*
X155183102Y-103230226D01*
X155383061Y-103270000D01*
X155586939Y-103270000D01*
X155786898Y-103230226D01*
X155975256Y-103152205D01*
X156144774Y-103038937D01*
X156288937Y-102894774D01*
X156402205Y-102725256D01*
X156480226Y-102536898D01*
X156520000Y-102336939D01*
X156520000Y-102133061D01*
X156480226Y-101933102D01*
X156402205Y-101744744D01*
X156288937Y-101575226D01*
X156245000Y-101531289D01*
X156245000Y-101365000D01*
X156311939Y-101365000D01*
X156511898Y-101325226D01*
X156700256Y-101247205D01*
X156869774Y-101133937D01*
X157013937Y-100989774D01*
X157127205Y-100820256D01*
X157205226Y-100631898D01*
X157245000Y-100431939D01*
X157245000Y-100228061D01*
X157205226Y-100028102D01*
X157127205Y-99839744D01*
X157013937Y-99670226D01*
X156970000Y-99626289D01*
X156970000Y-98657322D01*
X156973676Y-98619999D01*
X156970000Y-98582676D01*
X156970000Y-98582667D01*
X156959003Y-98471014D01*
X156915546Y-98327753D01*
X156859638Y-98223158D01*
X156844974Y-98195723D01*
X156773799Y-98108997D01*
X156750001Y-98079999D01*
X156721003Y-98056201D01*
X154038804Y-95374003D01*
X154015001Y-95344999D01*
X153899276Y-95250026D01*
X153859134Y-95228569D01*
X153880258Y-95202829D01*
X153953084Y-95066582D01*
X153997929Y-94918745D01*
X154013072Y-94765000D01*
X154013072Y-94465000D01*
X153997929Y-94311255D01*
X153953084Y-94163418D01*
X153880258Y-94027171D01*
X153841546Y-93980000D01*
X153880258Y-93932829D01*
X153953084Y-93796582D01*
X153997929Y-93648745D01*
X154013072Y-93495000D01*
X154013072Y-93195000D01*
X153997929Y-93041255D01*
X153953084Y-92893418D01*
X153880258Y-92757171D01*
X153782251Y-92637749D01*
X153662829Y-92539742D01*
X153526582Y-92466916D01*
X153378745Y-92422071D01*
X153225000Y-92406928D01*
X153160000Y-92406928D01*
X153160000Y-83310000D01*
X157471822Y-83310000D01*
X157596525Y-83496632D01*
G37*
X157596525Y-83496632D02*
X157803368Y-83703475D01*
X157977760Y-83820000D01*
X157803368Y-83936525D01*
X157596525Y-84143368D01*
X157434010Y-84386589D01*
X157322068Y-84656842D01*
X157265000Y-84943740D01*
X157265000Y-85236260D01*
X157322068Y-85523158D01*
X157434010Y-85793411D01*
X157596525Y-86036632D01*
X157803368Y-86243475D01*
X157977760Y-86360000D01*
X157803368Y-86476525D01*
X157596525Y-86683368D01*
X157434010Y-86926589D01*
X157322068Y-87196842D01*
X157265000Y-87483740D01*
X157265000Y-87776260D01*
X157322068Y-88063158D01*
X157434010Y-88333411D01*
X157596525Y-88576632D01*
X157803368Y-88783475D01*
X157977760Y-88900000D01*
X157803368Y-89016525D01*
X157596525Y-89223368D01*
X157434010Y-89466589D01*
X157322068Y-89736842D01*
X157265000Y-90023740D01*
X157265000Y-90316260D01*
X157322068Y-90603158D01*
X157434010Y-90873411D01*
X157596525Y-91116632D01*
X157803368Y-91323475D01*
X157977760Y-91440000D01*
X157803368Y-91556525D01*
X157596525Y-91763368D01*
X157434010Y-92006589D01*
X157322068Y-92276842D01*
X157265000Y-92563740D01*
X157265000Y-92856260D01*
X157322068Y-93143158D01*
X157434010Y-93413411D01*
X157596525Y-93656632D01*
X157803368Y-93863475D01*
X157977760Y-93980000D01*
X157803368Y-94096525D01*
X157596525Y-94303368D01*
X157434010Y-94546589D01*
X157322068Y-94816842D01*
X157265000Y-95103740D01*
X157265000Y-95396260D01*
X157322068Y-95683158D01*
X157434010Y-95953411D01*
X157596525Y-96196632D01*
X157803368Y-96403475D01*
X157977760Y-96520000D01*
X157803368Y-96636525D01*
X157596525Y-96843368D01*
X157434010Y-97086589D01*
X157322068Y-97356842D01*
X157265000Y-97643740D01*
X157265000Y-97936260D01*
X157322068Y-98223158D01*
X157434010Y-98493411D01*
X157596525Y-98736632D01*
X157803368Y-98943475D01*
X157977760Y-99060000D01*
X157803368Y-99176525D01*
X157596525Y-99383368D01*
X157434010Y-99626589D01*
X157322068Y-99896842D01*
X157265000Y-100183740D01*
X157265000Y-100476260D01*
X157322068Y-100763158D01*
X157434010Y-101033411D01*
X157596525Y-101276632D01*
X157803368Y-101483475D01*
X157977760Y-101600000D01*
X157803368Y-101716525D01*
X157596525Y-101923368D01*
X157434010Y-102166589D01*
X157322068Y-102436842D01*
X157265000Y-102723740D01*
X157265000Y-103016260D01*
X157322068Y-103303158D01*
X157434010Y-103573411D01*
X157596525Y-103816632D01*
X157803368Y-104023475D01*
X157977760Y-104140000D01*
X157803368Y-104256525D01*
X157596525Y-104463368D01*
X157434010Y-104706589D01*
X157322068Y-104976842D01*
X157265000Y-105263740D01*
X157265000Y-105556260D01*
X157322068Y-105843158D01*
X157434010Y-106113411D01*
X157596525Y-106356632D01*
X157803368Y-106563475D01*
X157977760Y-106680000D01*
X157803368Y-106796525D01*
X157596525Y-107003368D01*
X157434010Y-107246589D01*
X157322068Y-107516842D01*
X157265000Y-107803740D01*
X157265000Y-108096260D01*
X157322068Y-108383158D01*
X157434010Y-108653411D01*
X157596525Y-108896632D01*
X157803368Y-109103475D01*
X157977760Y-109220000D01*
X157803368Y-109336525D01*
X157596525Y-109543368D01*
X157434010Y-109786589D01*
X157322068Y-110056842D01*
X157265000Y-110343740D01*
X157265000Y-110636260D01*
X157322068Y-110923158D01*
X157393247Y-111094999D01*
X157254801Y-111094999D01*
X155700000Y-109540199D01*
X155700000Y-104812333D01*
X155703677Y-104775000D01*
X155689003Y-104626014D01*
X155645546Y-104482753D01*
X155574974Y-104350724D01*
X155503799Y-104263997D01*
X155480001Y-104234999D01*
X155451002Y-104211200D01*
X154868803Y-103629002D01*
X154845001Y-103599999D01*
X154729276Y-103505026D01*
X154597247Y-103434454D01*
X154453986Y-103390997D01*
X154342333Y-103380000D01*
X154342322Y-103380000D01*
X154305000Y-103376324D01*
X154267678Y-103380000D01*
X149897333Y-103380000D01*
X149860000Y-103376323D01*
X149822667Y-103380000D01*
X149711014Y-103390997D01*
X149567753Y-103434454D01*
X149435724Y-103505026D01*
X149319999Y-103599999D01*
X149296200Y-103628998D01*
X148714002Y-104211197D01*
X148684999Y-104234999D01*
X148633352Y-104297932D01*
X148590026Y-104350724D01*
X148546451Y-104432246D01*
X148519454Y-104482754D01*
X148475997Y-104626015D01*
X148465000Y-104737668D01*
X148465000Y-104737678D01*
X148461324Y-104775000D01*
X148465000Y-104812323D01*
X148465000Y-105117269D01*
X148360000Y-105106928D01*
X147670750Y-105110000D01*
X147512000Y-105268750D01*
X147512000Y-105918000D01*
X147532000Y-105918000D01*
X147532000Y-106172000D01*
X147512000Y-106172000D01*
X147512000Y-107188000D01*
X147532000Y-107188000D01*
X147532000Y-107442000D01*
X147512000Y-107442000D01*
X147512000Y-107462000D01*
X147258000Y-107462000D01*
X147258000Y-107442000D01*
X145933750Y-107442000D01*
X145775000Y-107600750D01*
X145771928Y-107615000D01*
X145784188Y-107739482D01*
X145820498Y-107859180D01*
X145879463Y-107969494D01*
X145903730Y-107999064D01*
X145831916Y-108133418D01*
X145787071Y-108281255D01*
X145771928Y-108435000D01*
X145771928Y-108735000D01*
X145787071Y-108888745D01*
X145831916Y-109036582D01*
X145904742Y-109172829D01*
X145943454Y-109220000D01*
X145904742Y-109267171D01*
X145831916Y-109403418D01*
X145792653Y-109532852D01*
X144270000Y-108010199D01*
X144270000Y-106345000D01*
X145771928Y-106345000D01*
X145784188Y-106469482D01*
X145820498Y-106589180D01*
X145869043Y-106680000D01*
X145820498Y-106770820D01*
X145784188Y-106890518D01*
X145771928Y-107015000D01*
X145775000Y-107029250D01*
X145933750Y-107188000D01*
X147258000Y-107188000D01*
X147258000Y-106172000D01*
X145933750Y-106172000D01*
X145775000Y-106330750D01*
X145771928Y-106345000D01*
X144270000Y-106345000D01*
X144270000Y-105745000D01*
X145771928Y-105745000D01*
X145775000Y-105759250D01*
X145933750Y-105918000D01*
X147258000Y-105918000D01*
X147258000Y-105268750D01*
X147099250Y-105110000D01*
X146410000Y-105106928D01*
X146285518Y-105119188D01*
X146165820Y-105155498D01*
X146055506Y-105214463D01*
X145958815Y-105293815D01*
X145879463Y-105390506D01*
X145820498Y-105500820D01*
X145784188Y-105620518D01*
X145771928Y-105745000D01*
X144270000Y-105745000D01*
X144270000Y-98059013D01*
X144289744Y-98072205D01*
X144478102Y-98150226D01*
X144678061Y-98190000D01*
X144881939Y-98190000D01*
X145081898Y-98150226D01*
X145270256Y-98072205D01*
X145439774Y-97958937D01*
X145583937Y-97814774D01*
X145697205Y-97645256D01*
X145775226Y-97456898D01*
X145775603Y-97455000D01*
X145836928Y-97455000D01*
X145849188Y-97579482D01*
X145885498Y-97699180D01*
X145944463Y-97809494D01*
X146023815Y-97906185D01*
X146120506Y-97985537D01*
X146230820Y-98044502D01*
X146350518Y-98080812D01*
X146475000Y-98093072D01*
X147164250Y-98090000D01*
X147323000Y-97931250D01*
X147323000Y-97282000D01*
X147577000Y-97282000D01*
X147577000Y-97931250D01*
X147735750Y-98090000D01*
X148425000Y-98093072D01*
X148549482Y-98080812D01*
X148669180Y-98044502D01*
X148779494Y-97985537D01*
X148876185Y-97906185D01*
X148955537Y-97809494D01*
X149014502Y-97699180D01*
X149050812Y-97579482D01*
X149063072Y-97455000D01*
X149060000Y-97440750D01*
X148901250Y-97282000D01*
X147577000Y-97282000D01*
X147323000Y-97282000D01*
X145998750Y-97282000D01*
X145840000Y-97440750D01*
X145836928Y-97455000D01*
X145775603Y-97455000D01*
X145815000Y-97256939D01*
X145815000Y-97053061D01*
X145775226Y-96853102D01*
X145697205Y-96664744D01*
X145583937Y-96495226D01*
X145576756Y-96488045D01*
X145857653Y-96207148D01*
X145896916Y-96336582D01*
X145968730Y-96470936D01*
X145944463Y-96500506D01*
X145885498Y-96610820D01*
X145849188Y-96730518D01*
X145836928Y-96855000D01*
X145840000Y-96869250D01*
X145998750Y-97028000D01*
X147323000Y-97028000D01*
X147323000Y-97008000D01*
X147577000Y-97008000D01*
X147577000Y-97028000D01*
X148901250Y-97028000D01*
X149060000Y-96869250D01*
X149063072Y-96855000D01*
X149050812Y-96730518D01*
X149024870Y-96645000D01*
X149187678Y-96645000D01*
X149225000Y-96648676D01*
X149262322Y-96645000D01*
X149262333Y-96645000D01*
X149373986Y-96634003D01*
X149517247Y-96590546D01*
X149649276Y-96519974D01*
X149765001Y-96425001D01*
X149788804Y-96395997D01*
X150809802Y-95375000D01*
X150878141Y-95375000D01*
X150846916Y-95433418D01*
X150802071Y-95581255D01*
X150786928Y-95735000D01*
X150786928Y-96035000D01*
X150802071Y-96188745D01*
X150846916Y-96336582D01*
X150919742Y-96472829D01*
X150958454Y-96520000D01*
X150919742Y-96567171D01*
X150846916Y-96703418D01*
X150802071Y-96851255D01*
X150786928Y-97005000D01*
X150786928Y-97305000D01*
X150802071Y-97458745D01*
X150846916Y-97606582D01*
X150919742Y-97742829D01*
X151017749Y-97862251D01*
X151137171Y-97960258D01*
X151273418Y-98033084D01*
X151421255Y-98077929D01*
X151575000Y-98093072D01*
X152263271Y-98093072D01*
X154725001Y-100554803D01*
X154725000Y-101531289D01*
X154681063Y-101575226D01*
X154567795Y-101744744D01*
X154489774Y-101933102D01*
X154450000Y-102133061D01*
X154450000Y-102336939D01*
X154489774Y-102536898D01*
X154567795Y-102725256D01*
X154681063Y-102894774D01*
X154825226Y-103038937D01*
X154994744Y-103152205D01*
X155183102Y-103230226D01*
X155383061Y-103270000D01*
X155586939Y-103270000D01*
X155786898Y-103230226D01*
X155975256Y-103152205D01*
X156144774Y-103038937D01*
X156288937Y-102894774D01*
X156402205Y-102725256D01*
X156480226Y-102536898D01*
X156520000Y-102336939D01*
X156520000Y-102133061D01*
X156480226Y-101933102D01*
X156402205Y-101744744D01*
X156288937Y-101575226D01*
X156245000Y-101531289D01*
X156245000Y-101365000D01*
X156311939Y-101365000D01*
X156511898Y-101325226D01*
X156700256Y-101247205D01*
X156869774Y-101133937D01*
X157013937Y-100989774D01*
X157127205Y-100820256D01*
X157205226Y-100631898D01*
X157245000Y-100431939D01*
X157245000Y-100228061D01*
X157205226Y-100028102D01*
X157127205Y-99839744D01*
X157013937Y-99670226D01*
X156970000Y-99626289D01*
X156970000Y-98657322D01*
X156973676Y-98619999D01*
X156970000Y-98582676D01*
X156970000Y-98582667D01*
X156959003Y-98471014D01*
X156915546Y-98327753D01*
X156859638Y-98223158D01*
X156844974Y-98195723D01*
X156773799Y-98108997D01*
X156750001Y-98079999D01*
X156721003Y-98056201D01*
X154038804Y-95374003D01*
X154015001Y-95344999D01*
X153899276Y-95250026D01*
X153859134Y-95228569D01*
X153880258Y-95202829D01*
X153953084Y-95066582D01*
X153997929Y-94918745D01*
X154013072Y-94765000D01*
X154013072Y-94465000D01*
X153997929Y-94311255D01*
X153953084Y-94163418D01*
X153880258Y-94027171D01*
X153841546Y-93980000D01*
X153880258Y-93932829D01*
X153953084Y-93796582D01*
X153997929Y-93648745D01*
X154013072Y-93495000D01*
X154013072Y-93195000D01*
X153997929Y-93041255D01*
X153953084Y-92893418D01*
X153880258Y-92757171D01*
X153782251Y-92637749D01*
X153662829Y-92539742D01*
X153526582Y-92466916D01*
X153378745Y-92422071D01*
X153225000Y-92406928D01*
X153160000Y-92406928D01*
X153160000Y-83310000D01*
X157471822Y-83310000D01*
X157596525Y-83496632D01*
G36*
X144269528Y-90959851D02*
G01*
X144351595Y-91113387D01*
X144462038Y-91247962D01*
X144596613Y-91358405D01*
X144750149Y-91440472D01*
X144916745Y-91491008D01*
X145089999Y-91508072D01*
X145740001Y-91508072D01*
X145913255Y-91491008D01*
X146079851Y-91440472D01*
X146233387Y-91358405D01*
X146367962Y-91247962D01*
X146440000Y-91160184D01*
X146512038Y-91247962D01*
X146560000Y-91287324D01*
X146560001Y-92413330D01*
X146471255Y-92422071D01*
X146323418Y-92466916D01*
X146187171Y-92539742D01*
X146067749Y-92637749D01*
X146053531Y-92655074D01*
X145950724Y-92710026D01*
X145834999Y-92804999D01*
X145811201Y-92833997D01*
X143000000Y-95645199D01*
X143000000Y-90930000D01*
X144260473Y-90930000D01*
X144269528Y-90959851D01*
G37*
X144269528Y-90959851D02*
X144351595Y-91113387D01*
X144462038Y-91247962D01*
X144596613Y-91358405D01*
X144750149Y-91440472D01*
X144916745Y-91491008D01*
X145089999Y-91508072D01*
X145740001Y-91508072D01*
X145913255Y-91491008D01*
X146079851Y-91440472D01*
X146233387Y-91358405D01*
X146367962Y-91247962D01*
X146440000Y-91160184D01*
X146512038Y-91247962D01*
X146560000Y-91287324D01*
X146560001Y-92413330D01*
X146471255Y-92422071D01*
X146323418Y-92466916D01*
X146187171Y-92539742D01*
X146067749Y-92637749D01*
X146053531Y-92655074D01*
X145950724Y-92710026D01*
X145834999Y-92804999D01*
X145811201Y-92833997D01*
X143000000Y-95645199D01*
X143000000Y-90930000D01*
X144260473Y-90930000D01*
X144269528Y-90959851D01*
G36*
X151640000Y-92406928D02*
G01*
X151575000Y-92406928D01*
X151421255Y-92422071D01*
X151273418Y-92466916D01*
X151137171Y-92539742D01*
X151017749Y-92637749D01*
X150919742Y-92757171D01*
X150846916Y-92893418D01*
X150802071Y-93041255D01*
X150786928Y-93195000D01*
X150786928Y-93495000D01*
X150802071Y-93648745D01*
X150846916Y-93796582D01*
X150878141Y-93855000D01*
X150532322Y-93855000D01*
X150494999Y-93851324D01*
X150457676Y-93855000D01*
X150457667Y-93855000D01*
X150346014Y-93865997D01*
X150202753Y-93909454D01*
X150070724Y-93980026D01*
X149954999Y-94074999D01*
X149931201Y-94103997D01*
X149018092Y-95017107D01*
X149047929Y-94918745D01*
X149063072Y-94765000D01*
X149063072Y-94465000D01*
X149047929Y-94311255D01*
X149003084Y-94163418D01*
X148930258Y-94027171D01*
X148891546Y-93980000D01*
X148930258Y-93932829D01*
X149003084Y-93796582D01*
X149047929Y-93648745D01*
X149063072Y-93495000D01*
X149063072Y-93195000D01*
X149047929Y-93041255D01*
X149003084Y-92893418D01*
X148930258Y-92757171D01*
X148832251Y-92637749D01*
X148712829Y-92539742D01*
X148576582Y-92466916D01*
X148428745Y-92422071D01*
X148275000Y-92406928D01*
X148080000Y-92406928D01*
X148080000Y-91455594D01*
X148129851Y-91440472D01*
X148283387Y-91358405D01*
X148417962Y-91247962D01*
X148528405Y-91113387D01*
X148610472Y-90959851D01*
X148661008Y-90793255D01*
X148678072Y-90620001D01*
X148678072Y-89719999D01*
X148661008Y-89546745D01*
X148610472Y-89380149D01*
X148528405Y-89226613D01*
X148417962Y-89092038D01*
X148283387Y-88981595D01*
X148129851Y-88899528D01*
X147963255Y-88848992D01*
X147790001Y-88831928D01*
X147139999Y-88831928D01*
X146966745Y-88848992D01*
X146800149Y-88899528D01*
X146646613Y-88981595D01*
X146512038Y-89092038D01*
X146440000Y-89179816D01*
X146367962Y-89092038D01*
X146233387Y-88981595D01*
X146079851Y-88899528D01*
X145913255Y-88848992D01*
X145740001Y-88831928D01*
X145089999Y-88831928D01*
X144916745Y-88848992D01*
X144750149Y-88899528D01*
X144596613Y-88981595D01*
X144462038Y-89092038D01*
X144351595Y-89226613D01*
X144269528Y-89380149D01*
X144260473Y-89410000D01*
X143000000Y-89410000D01*
X143000000Y-83310000D01*
X151640001Y-83310000D01*
X151640000Y-92406928D01*
G37*
X151640000Y-92406928D02*
X151575000Y-92406928D01*
X151421255Y-92422071D01*
X151273418Y-92466916D01*
X151137171Y-92539742D01*
X151017749Y-92637749D01*
X150919742Y-92757171D01*
X150846916Y-92893418D01*
X150802071Y-93041255D01*
X150786928Y-93195000D01*
X150786928Y-93495000D01*
X150802071Y-93648745D01*
X150846916Y-93796582D01*
X150878141Y-93855000D01*
X150532322Y-93855000D01*
X150494999Y-93851324D01*
X150457676Y-93855000D01*
X150457667Y-93855000D01*
X150346014Y-93865997D01*
X150202753Y-93909454D01*
X150070724Y-93980026D01*
X149954999Y-94074999D01*
X149931201Y-94103997D01*
X149018092Y-95017107D01*
X149047929Y-94918745D01*
X149063072Y-94765000D01*
X149063072Y-94465000D01*
X149047929Y-94311255D01*
X149003084Y-94163418D01*
X148930258Y-94027171D01*
X148891546Y-93980000D01*
X148930258Y-93932829D01*
X149003084Y-93796582D01*
X149047929Y-93648745D01*
X149063072Y-93495000D01*
X149063072Y-93195000D01*
X149047929Y-93041255D01*
X149003084Y-92893418D01*
X148930258Y-92757171D01*
X148832251Y-92637749D01*
X148712829Y-92539742D01*
X148576582Y-92466916D01*
X148428745Y-92422071D01*
X148275000Y-92406928D01*
X148080000Y-92406928D01*
X148080000Y-91455594D01*
X148129851Y-91440472D01*
X148283387Y-91358405D01*
X148417962Y-91247962D01*
X148528405Y-91113387D01*
X148610472Y-90959851D01*
X148661008Y-90793255D01*
X148678072Y-90620001D01*
X148678072Y-89719999D01*
X148661008Y-89546745D01*
X148610472Y-89380149D01*
X148528405Y-89226613D01*
X148417962Y-89092038D01*
X148283387Y-88981595D01*
X148129851Y-88899528D01*
X147963255Y-88848992D01*
X147790001Y-88831928D01*
X147139999Y-88831928D01*
X146966745Y-88848992D01*
X146800149Y-88899528D01*
X146646613Y-88981595D01*
X146512038Y-89092038D01*
X146440000Y-89179816D01*
X146367962Y-89092038D01*
X146233387Y-88981595D01*
X146079851Y-88899528D01*
X145913255Y-88848992D01*
X145740001Y-88831928D01*
X145089999Y-88831928D01*
X144916745Y-88848992D01*
X144750149Y-88899528D01*
X144596613Y-88981595D01*
X144462038Y-89092038D01*
X144351595Y-89226613D01*
X144269528Y-89380149D01*
X144260473Y-89410000D01*
X143000000Y-89410000D01*
X143000000Y-83310000D01*
X151640001Y-83310000D01*
X151640000Y-92406928D01*
M02*
