G04 #@! TF.GenerationSoftware,KiCad,Pcbnew,5.1.6-c6e7f7d~87~ubuntu18.04.1*
G04 #@! TF.CreationDate,2020-09-06T21:37:12+01:00*
G04 #@! TF.ProjectId,KiCadOpenSession,4b694361-644f-4706-956e-53657373696f,rev?*
G04 #@! TF.SameCoordinates,Original*
G04 #@! TF.FileFunction,Soldermask,Top*
G04 #@! TF.FilePolarity,Negative*
%FSLAX46Y46*%
G04 Gerber Fmt 4.6, Leading zero omitted, Abs format (unit mm)*
G04 Created by KiCad (PCBNEW 5.1.6-c6e7f7d~87~ubuntu18.04.1) date 2020-09-06 21:37:12*
%MOMM*%
%LPD*%
G01*
G04 APERTURE LIST*
%ADD10C,0.100000*%
G04 APERTURE END LIST*
D10*
G36*
X161403512Y-140073927D02*
G01*
X161552812Y-140103624D01*
X161716784Y-140171544D01*
X161864354Y-140270147D01*
X161989853Y-140395646D01*
X162088456Y-140543216D01*
X162156376Y-140707188D01*
X162191000Y-140881259D01*
X162191000Y-141058741D01*
X162156376Y-141232812D01*
X162088456Y-141396784D01*
X161989853Y-141544354D01*
X161864354Y-141669853D01*
X161716784Y-141768456D01*
X161552812Y-141836376D01*
X161403512Y-141866073D01*
X161378742Y-141871000D01*
X161201258Y-141871000D01*
X161176488Y-141866073D01*
X161027188Y-141836376D01*
X160863216Y-141768456D01*
X160715646Y-141669853D01*
X160590147Y-141544354D01*
X160491544Y-141396784D01*
X160423624Y-141232812D01*
X160389000Y-141058741D01*
X160389000Y-140881259D01*
X160423624Y-140707188D01*
X160491544Y-140543216D01*
X160590147Y-140395646D01*
X160715646Y-140270147D01*
X160863216Y-140171544D01*
X161027188Y-140103624D01*
X161176488Y-140073927D01*
X161201258Y-140069000D01*
X161378742Y-140069000D01*
X161403512Y-140073927D01*
G37*
G36*
X158863512Y-140073927D02*
G01*
X159012812Y-140103624D01*
X159176784Y-140171544D01*
X159324354Y-140270147D01*
X159449853Y-140395646D01*
X159548456Y-140543216D01*
X159616376Y-140707188D01*
X159651000Y-140881259D01*
X159651000Y-141058741D01*
X159616376Y-141232812D01*
X159548456Y-141396784D01*
X159449853Y-141544354D01*
X159324354Y-141669853D01*
X159176784Y-141768456D01*
X159012812Y-141836376D01*
X158863512Y-141866073D01*
X158838742Y-141871000D01*
X158661258Y-141871000D01*
X158636488Y-141866073D01*
X158487188Y-141836376D01*
X158323216Y-141768456D01*
X158175646Y-141669853D01*
X158050147Y-141544354D01*
X157951544Y-141396784D01*
X157883624Y-141232812D01*
X157849000Y-141058741D01*
X157849000Y-140881259D01*
X157883624Y-140707188D01*
X157951544Y-140543216D01*
X158050147Y-140395646D01*
X158175646Y-140270147D01*
X158323216Y-140171544D01*
X158487188Y-140103624D01*
X158636488Y-140073927D01*
X158661258Y-140069000D01*
X158838742Y-140069000D01*
X158863512Y-140073927D01*
G37*
G36*
X161403512Y-137533927D02*
G01*
X161552812Y-137563624D01*
X161716784Y-137631544D01*
X161864354Y-137730147D01*
X161989853Y-137855646D01*
X162088456Y-138003216D01*
X162156376Y-138167188D01*
X162191000Y-138341259D01*
X162191000Y-138518741D01*
X162156376Y-138692812D01*
X162088456Y-138856784D01*
X161989853Y-139004354D01*
X161864354Y-139129853D01*
X161716784Y-139228456D01*
X161552812Y-139296376D01*
X161403512Y-139326073D01*
X161378742Y-139331000D01*
X161201258Y-139331000D01*
X161176488Y-139326073D01*
X161027188Y-139296376D01*
X160863216Y-139228456D01*
X160715646Y-139129853D01*
X160590147Y-139004354D01*
X160491544Y-138856784D01*
X160423624Y-138692812D01*
X160389000Y-138518741D01*
X160389000Y-138341259D01*
X160423624Y-138167188D01*
X160491544Y-138003216D01*
X160590147Y-137855646D01*
X160715646Y-137730147D01*
X160863216Y-137631544D01*
X161027188Y-137563624D01*
X161176488Y-137533927D01*
X161201258Y-137529000D01*
X161378742Y-137529000D01*
X161403512Y-137533927D01*
G37*
G36*
X158863512Y-137533927D02*
G01*
X159012812Y-137563624D01*
X159176784Y-137631544D01*
X159324354Y-137730147D01*
X159449853Y-137855646D01*
X159548456Y-138003216D01*
X159616376Y-138167188D01*
X159651000Y-138341259D01*
X159651000Y-138518741D01*
X159616376Y-138692812D01*
X159548456Y-138856784D01*
X159449853Y-139004354D01*
X159324354Y-139129853D01*
X159176784Y-139228456D01*
X159012812Y-139296376D01*
X158863512Y-139326073D01*
X158838742Y-139331000D01*
X158661258Y-139331000D01*
X158636488Y-139326073D01*
X158487188Y-139296376D01*
X158323216Y-139228456D01*
X158175646Y-139129853D01*
X158050147Y-139004354D01*
X157951544Y-138856784D01*
X157883624Y-138692812D01*
X157849000Y-138518741D01*
X157849000Y-138341259D01*
X157883624Y-138167188D01*
X157951544Y-138003216D01*
X158050147Y-137855646D01*
X158175646Y-137730147D01*
X158323216Y-137631544D01*
X158487188Y-137563624D01*
X158636488Y-137533927D01*
X158661258Y-137529000D01*
X158838742Y-137529000D01*
X158863512Y-137533927D01*
G37*
G36*
X161403512Y-134993927D02*
G01*
X161552812Y-135023624D01*
X161716784Y-135091544D01*
X161864354Y-135190147D01*
X161989853Y-135315646D01*
X162088456Y-135463216D01*
X162156376Y-135627188D01*
X162191000Y-135801259D01*
X162191000Y-135978741D01*
X162156376Y-136152812D01*
X162088456Y-136316784D01*
X161989853Y-136464354D01*
X161864354Y-136589853D01*
X161716784Y-136688456D01*
X161552812Y-136756376D01*
X161403512Y-136786073D01*
X161378742Y-136791000D01*
X161201258Y-136791000D01*
X161176488Y-136786073D01*
X161027188Y-136756376D01*
X160863216Y-136688456D01*
X160715646Y-136589853D01*
X160590147Y-136464354D01*
X160491544Y-136316784D01*
X160423624Y-136152812D01*
X160389000Y-135978741D01*
X160389000Y-135801259D01*
X160423624Y-135627188D01*
X160491544Y-135463216D01*
X160590147Y-135315646D01*
X160715646Y-135190147D01*
X160863216Y-135091544D01*
X161027188Y-135023624D01*
X161176488Y-134993927D01*
X161201258Y-134989000D01*
X161378742Y-134989000D01*
X161403512Y-134993927D01*
G37*
G36*
X158863512Y-134993927D02*
G01*
X159012812Y-135023624D01*
X159176784Y-135091544D01*
X159324354Y-135190147D01*
X159449853Y-135315646D01*
X159548456Y-135463216D01*
X159616376Y-135627188D01*
X159651000Y-135801259D01*
X159651000Y-135978741D01*
X159616376Y-136152812D01*
X159548456Y-136316784D01*
X159449853Y-136464354D01*
X159324354Y-136589853D01*
X159176784Y-136688456D01*
X159012812Y-136756376D01*
X158863512Y-136786073D01*
X158838742Y-136791000D01*
X158661258Y-136791000D01*
X158636488Y-136786073D01*
X158487188Y-136756376D01*
X158323216Y-136688456D01*
X158175646Y-136589853D01*
X158050147Y-136464354D01*
X157951544Y-136316784D01*
X157883624Y-136152812D01*
X157849000Y-135978741D01*
X157849000Y-135801259D01*
X157883624Y-135627188D01*
X157951544Y-135463216D01*
X158050147Y-135315646D01*
X158175646Y-135190147D01*
X158323216Y-135091544D01*
X158487188Y-135023624D01*
X158636488Y-134993927D01*
X158661258Y-134989000D01*
X158838742Y-134989000D01*
X158863512Y-134993927D01*
G37*
G36*
X158863512Y-132453927D02*
G01*
X159012812Y-132483624D01*
X159176784Y-132551544D01*
X159324354Y-132650147D01*
X159449853Y-132775646D01*
X159548456Y-132923216D01*
X159616376Y-133087188D01*
X159651000Y-133261259D01*
X159651000Y-133438741D01*
X159616376Y-133612812D01*
X159548456Y-133776784D01*
X159449853Y-133924354D01*
X159324354Y-134049853D01*
X159176784Y-134148456D01*
X159012812Y-134216376D01*
X158863512Y-134246073D01*
X158838742Y-134251000D01*
X158661258Y-134251000D01*
X158636488Y-134246073D01*
X158487188Y-134216376D01*
X158323216Y-134148456D01*
X158175646Y-134049853D01*
X158050147Y-133924354D01*
X157951544Y-133776784D01*
X157883624Y-133612812D01*
X157849000Y-133438741D01*
X157849000Y-133261259D01*
X157883624Y-133087188D01*
X157951544Y-132923216D01*
X158050147Y-132775646D01*
X158175646Y-132650147D01*
X158323216Y-132551544D01*
X158487188Y-132483624D01*
X158636488Y-132453927D01*
X158661258Y-132449000D01*
X158838742Y-132449000D01*
X158863512Y-132453927D01*
G37*
G36*
X161403512Y-132453927D02*
G01*
X161552812Y-132483624D01*
X161716784Y-132551544D01*
X161864354Y-132650147D01*
X161989853Y-132775646D01*
X162088456Y-132923216D01*
X162156376Y-133087188D01*
X162191000Y-133261259D01*
X162191000Y-133438741D01*
X162156376Y-133612812D01*
X162088456Y-133776784D01*
X161989853Y-133924354D01*
X161864354Y-134049853D01*
X161716784Y-134148456D01*
X161552812Y-134216376D01*
X161403512Y-134246073D01*
X161378742Y-134251000D01*
X161201258Y-134251000D01*
X161176488Y-134246073D01*
X161027188Y-134216376D01*
X160863216Y-134148456D01*
X160715646Y-134049853D01*
X160590147Y-133924354D01*
X160491544Y-133776784D01*
X160423624Y-133612812D01*
X160389000Y-133438741D01*
X160389000Y-133261259D01*
X160423624Y-133087188D01*
X160491544Y-132923216D01*
X160590147Y-132775646D01*
X160715646Y-132650147D01*
X160863216Y-132551544D01*
X161027188Y-132483624D01*
X161176488Y-132453927D01*
X161201258Y-132449000D01*
X161378742Y-132449000D01*
X161403512Y-132453927D01*
G37*
G36*
X158863512Y-129913927D02*
G01*
X159012812Y-129943624D01*
X159176784Y-130011544D01*
X159324354Y-130110147D01*
X159449853Y-130235646D01*
X159548456Y-130383216D01*
X159616376Y-130547188D01*
X159651000Y-130721259D01*
X159651000Y-130898741D01*
X159616376Y-131072812D01*
X159548456Y-131236784D01*
X159449853Y-131384354D01*
X159324354Y-131509853D01*
X159176784Y-131608456D01*
X159012812Y-131676376D01*
X158863512Y-131706073D01*
X158838742Y-131711000D01*
X158661258Y-131711000D01*
X158636488Y-131706073D01*
X158487188Y-131676376D01*
X158323216Y-131608456D01*
X158175646Y-131509853D01*
X158050147Y-131384354D01*
X157951544Y-131236784D01*
X157883624Y-131072812D01*
X157849000Y-130898741D01*
X157849000Y-130721259D01*
X157883624Y-130547188D01*
X157951544Y-130383216D01*
X158050147Y-130235646D01*
X158175646Y-130110147D01*
X158323216Y-130011544D01*
X158487188Y-129943624D01*
X158636488Y-129913927D01*
X158661258Y-129909000D01*
X158838742Y-129909000D01*
X158863512Y-129913927D01*
G37*
G36*
X161403512Y-129913927D02*
G01*
X161552812Y-129943624D01*
X161716784Y-130011544D01*
X161864354Y-130110147D01*
X161989853Y-130235646D01*
X162088456Y-130383216D01*
X162156376Y-130547188D01*
X162191000Y-130721259D01*
X162191000Y-130898741D01*
X162156376Y-131072812D01*
X162088456Y-131236784D01*
X161989853Y-131384354D01*
X161864354Y-131509853D01*
X161716784Y-131608456D01*
X161552812Y-131676376D01*
X161403512Y-131706073D01*
X161378742Y-131711000D01*
X161201258Y-131711000D01*
X161176488Y-131706073D01*
X161027188Y-131676376D01*
X160863216Y-131608456D01*
X160715646Y-131509853D01*
X160590147Y-131384354D01*
X160491544Y-131236784D01*
X160423624Y-131072812D01*
X160389000Y-130898741D01*
X160389000Y-130721259D01*
X160423624Y-130547188D01*
X160491544Y-130383216D01*
X160590147Y-130235646D01*
X160715646Y-130110147D01*
X160863216Y-130011544D01*
X161027188Y-129943624D01*
X161176488Y-129913927D01*
X161201258Y-129909000D01*
X161378742Y-129909000D01*
X161403512Y-129913927D01*
G37*
G36*
X152064928Y-128556764D02*
G01*
X152086009Y-128563160D01*
X152105445Y-128573548D01*
X152122476Y-128587524D01*
X152136452Y-128604555D01*
X152146840Y-128623991D01*
X152153236Y-128645072D01*
X152156000Y-128673140D01*
X152156000Y-129136860D01*
X152153236Y-129164928D01*
X152146840Y-129186009D01*
X152136452Y-129205445D01*
X152122476Y-129222476D01*
X152105445Y-129236452D01*
X152086009Y-129246840D01*
X152064928Y-129253236D01*
X152036860Y-129256000D01*
X150223140Y-129256000D01*
X150195072Y-129253236D01*
X150173991Y-129246840D01*
X150154555Y-129236452D01*
X150137524Y-129222476D01*
X150123548Y-129205445D01*
X150113160Y-129186009D01*
X150106764Y-129164928D01*
X150104000Y-129136860D01*
X150104000Y-128673140D01*
X150106764Y-128645072D01*
X150113160Y-128623991D01*
X150123548Y-128604555D01*
X150137524Y-128587524D01*
X150154555Y-128573548D01*
X150173991Y-128563160D01*
X150195072Y-128556764D01*
X150223140Y-128554000D01*
X152036860Y-128554000D01*
X152064928Y-128556764D01*
G37*
G36*
X147114928Y-128556764D02*
G01*
X147136009Y-128563160D01*
X147155445Y-128573548D01*
X147172476Y-128587524D01*
X147186452Y-128604555D01*
X147196840Y-128623991D01*
X147203236Y-128645072D01*
X147206000Y-128673140D01*
X147206000Y-129136860D01*
X147203236Y-129164928D01*
X147196840Y-129186009D01*
X147186452Y-129205445D01*
X147172476Y-129222476D01*
X147155445Y-129236452D01*
X147136009Y-129246840D01*
X147114928Y-129253236D01*
X147086860Y-129256000D01*
X145273140Y-129256000D01*
X145245072Y-129253236D01*
X145223991Y-129246840D01*
X145204555Y-129236452D01*
X145187524Y-129222476D01*
X145173548Y-129205445D01*
X145163160Y-129186009D01*
X145156764Y-129164928D01*
X145154000Y-129136860D01*
X145154000Y-128673140D01*
X145156764Y-128645072D01*
X145163160Y-128623991D01*
X145173548Y-128604555D01*
X145187524Y-128587524D01*
X145204555Y-128573548D01*
X145223991Y-128563160D01*
X145245072Y-128556764D01*
X145273140Y-128554000D01*
X147086860Y-128554000D01*
X147114928Y-128556764D01*
G37*
G36*
X158863512Y-127373927D02*
G01*
X159012812Y-127403624D01*
X159176784Y-127471544D01*
X159324354Y-127570147D01*
X159449853Y-127695646D01*
X159548456Y-127843216D01*
X159616376Y-128007188D01*
X159651000Y-128181259D01*
X159651000Y-128358741D01*
X159616376Y-128532812D01*
X159548456Y-128696784D01*
X159449853Y-128844354D01*
X159324354Y-128969853D01*
X159176784Y-129068456D01*
X159012812Y-129136376D01*
X158869268Y-129164928D01*
X158838742Y-129171000D01*
X158661258Y-129171000D01*
X158630732Y-129164928D01*
X158487188Y-129136376D01*
X158323216Y-129068456D01*
X158175646Y-128969853D01*
X158050147Y-128844354D01*
X157951544Y-128696784D01*
X157883624Y-128532812D01*
X157849000Y-128358741D01*
X157849000Y-128181259D01*
X157883624Y-128007188D01*
X157951544Y-127843216D01*
X158050147Y-127695646D01*
X158175646Y-127570147D01*
X158323216Y-127471544D01*
X158487188Y-127403624D01*
X158636488Y-127373927D01*
X158661258Y-127369000D01*
X158838742Y-127369000D01*
X158863512Y-127373927D01*
G37*
G36*
X161403512Y-127373927D02*
G01*
X161552812Y-127403624D01*
X161716784Y-127471544D01*
X161864354Y-127570147D01*
X161989853Y-127695646D01*
X162088456Y-127843216D01*
X162156376Y-128007188D01*
X162191000Y-128181259D01*
X162191000Y-128358741D01*
X162156376Y-128532812D01*
X162088456Y-128696784D01*
X161989853Y-128844354D01*
X161864354Y-128969853D01*
X161716784Y-129068456D01*
X161552812Y-129136376D01*
X161409268Y-129164928D01*
X161378742Y-129171000D01*
X161201258Y-129171000D01*
X161170732Y-129164928D01*
X161027188Y-129136376D01*
X160863216Y-129068456D01*
X160715646Y-128969853D01*
X160590147Y-128844354D01*
X160491544Y-128696784D01*
X160423624Y-128532812D01*
X160389000Y-128358741D01*
X160389000Y-128181259D01*
X160423624Y-128007188D01*
X160491544Y-127843216D01*
X160590147Y-127695646D01*
X160715646Y-127570147D01*
X160863216Y-127471544D01*
X161027188Y-127403624D01*
X161176488Y-127373927D01*
X161201258Y-127369000D01*
X161378742Y-127369000D01*
X161403512Y-127373927D01*
G37*
G36*
X152064928Y-127286764D02*
G01*
X152086009Y-127293160D01*
X152105445Y-127303548D01*
X152122476Y-127317524D01*
X152136452Y-127334555D01*
X152146840Y-127353991D01*
X152153236Y-127375072D01*
X152156000Y-127403140D01*
X152156000Y-127866860D01*
X152153236Y-127894928D01*
X152146840Y-127916009D01*
X152136452Y-127935445D01*
X152122476Y-127952476D01*
X152105445Y-127966452D01*
X152086009Y-127976840D01*
X152064928Y-127983236D01*
X152036860Y-127986000D01*
X150223140Y-127986000D01*
X150195072Y-127983236D01*
X150173991Y-127976840D01*
X150154555Y-127966452D01*
X150137524Y-127952476D01*
X150123548Y-127935445D01*
X150113160Y-127916009D01*
X150106764Y-127894928D01*
X150104000Y-127866860D01*
X150104000Y-127403140D01*
X150106764Y-127375072D01*
X150113160Y-127353991D01*
X150123548Y-127334555D01*
X150137524Y-127317524D01*
X150154555Y-127303548D01*
X150173991Y-127293160D01*
X150195072Y-127286764D01*
X150223140Y-127284000D01*
X152036860Y-127284000D01*
X152064928Y-127286764D01*
G37*
G36*
X147114928Y-127286764D02*
G01*
X147136009Y-127293160D01*
X147155445Y-127303548D01*
X147172476Y-127317524D01*
X147186452Y-127334555D01*
X147196840Y-127353991D01*
X147203236Y-127375072D01*
X147206000Y-127403140D01*
X147206000Y-127866860D01*
X147203236Y-127894928D01*
X147196840Y-127916009D01*
X147186452Y-127935445D01*
X147172476Y-127952476D01*
X147155445Y-127966452D01*
X147136009Y-127976840D01*
X147114928Y-127983236D01*
X147086860Y-127986000D01*
X145273140Y-127986000D01*
X145245072Y-127983236D01*
X145223991Y-127976840D01*
X145204555Y-127966452D01*
X145187524Y-127952476D01*
X145173548Y-127935445D01*
X145163160Y-127916009D01*
X145156764Y-127894928D01*
X145154000Y-127866860D01*
X145154000Y-127403140D01*
X145156764Y-127375072D01*
X145163160Y-127353991D01*
X145173548Y-127334555D01*
X145187524Y-127317524D01*
X145204555Y-127303548D01*
X145223991Y-127293160D01*
X145245072Y-127286764D01*
X145273140Y-127284000D01*
X147086860Y-127284000D01*
X147114928Y-127286764D01*
G37*
G36*
X152064928Y-126016764D02*
G01*
X152086009Y-126023160D01*
X152105445Y-126033548D01*
X152122476Y-126047524D01*
X152136452Y-126064555D01*
X152146840Y-126083991D01*
X152153236Y-126105072D01*
X152156000Y-126133140D01*
X152156000Y-126596860D01*
X152153236Y-126624928D01*
X152146840Y-126646009D01*
X152136452Y-126665445D01*
X152122476Y-126682476D01*
X152105445Y-126696452D01*
X152086009Y-126706840D01*
X152064928Y-126713236D01*
X152036860Y-126716000D01*
X150223140Y-126716000D01*
X150195072Y-126713236D01*
X150173991Y-126706840D01*
X150154555Y-126696452D01*
X150137524Y-126682476D01*
X150123548Y-126665445D01*
X150113160Y-126646009D01*
X150106764Y-126624928D01*
X150104000Y-126596860D01*
X150104000Y-126133140D01*
X150106764Y-126105072D01*
X150113160Y-126083991D01*
X150123548Y-126064555D01*
X150137524Y-126047524D01*
X150154555Y-126033548D01*
X150173991Y-126023160D01*
X150195072Y-126016764D01*
X150223140Y-126014000D01*
X152036860Y-126014000D01*
X152064928Y-126016764D01*
G37*
G36*
X147114928Y-126016764D02*
G01*
X147136009Y-126023160D01*
X147155445Y-126033548D01*
X147172476Y-126047524D01*
X147186452Y-126064555D01*
X147196840Y-126083991D01*
X147203236Y-126105072D01*
X147206000Y-126133140D01*
X147206000Y-126596860D01*
X147203236Y-126624928D01*
X147196840Y-126646009D01*
X147186452Y-126665445D01*
X147172476Y-126682476D01*
X147155445Y-126696452D01*
X147136009Y-126706840D01*
X147114928Y-126713236D01*
X147086860Y-126716000D01*
X145273140Y-126716000D01*
X145245072Y-126713236D01*
X145223991Y-126706840D01*
X145204555Y-126696452D01*
X145187524Y-126682476D01*
X145173548Y-126665445D01*
X145163160Y-126646009D01*
X145156764Y-126624928D01*
X145154000Y-126596860D01*
X145154000Y-126133140D01*
X145156764Y-126105072D01*
X145163160Y-126083991D01*
X145173548Y-126064555D01*
X145187524Y-126047524D01*
X145204555Y-126033548D01*
X145223991Y-126023160D01*
X145245072Y-126016764D01*
X145273140Y-126014000D01*
X147086860Y-126014000D01*
X147114928Y-126016764D01*
G37*
G36*
X161403512Y-124833927D02*
G01*
X161552812Y-124863624D01*
X161716784Y-124931544D01*
X161864354Y-125030147D01*
X161989853Y-125155646D01*
X162088456Y-125303216D01*
X162156376Y-125467188D01*
X162191000Y-125641259D01*
X162191000Y-125818741D01*
X162156376Y-125992812D01*
X162088456Y-126156784D01*
X161989853Y-126304354D01*
X161864354Y-126429853D01*
X161716784Y-126528456D01*
X161552812Y-126596376D01*
X161409268Y-126624928D01*
X161378742Y-126631000D01*
X161201258Y-126631000D01*
X161170732Y-126624928D01*
X161027188Y-126596376D01*
X160863216Y-126528456D01*
X160715646Y-126429853D01*
X160590147Y-126304354D01*
X160491544Y-126156784D01*
X160423624Y-125992812D01*
X160389000Y-125818741D01*
X160389000Y-125641259D01*
X160423624Y-125467188D01*
X160491544Y-125303216D01*
X160590147Y-125155646D01*
X160715646Y-125030147D01*
X160863216Y-124931544D01*
X161027188Y-124863624D01*
X161176488Y-124833927D01*
X161201258Y-124829000D01*
X161378742Y-124829000D01*
X161403512Y-124833927D01*
G37*
G36*
X158863512Y-124833927D02*
G01*
X159012812Y-124863624D01*
X159176784Y-124931544D01*
X159324354Y-125030147D01*
X159449853Y-125155646D01*
X159548456Y-125303216D01*
X159616376Y-125467188D01*
X159651000Y-125641259D01*
X159651000Y-125818741D01*
X159616376Y-125992812D01*
X159548456Y-126156784D01*
X159449853Y-126304354D01*
X159324354Y-126429853D01*
X159176784Y-126528456D01*
X159012812Y-126596376D01*
X158869268Y-126624928D01*
X158838742Y-126631000D01*
X158661258Y-126631000D01*
X158630732Y-126624928D01*
X158487188Y-126596376D01*
X158323216Y-126528456D01*
X158175646Y-126429853D01*
X158050147Y-126304354D01*
X157951544Y-126156784D01*
X157883624Y-125992812D01*
X157849000Y-125818741D01*
X157849000Y-125641259D01*
X157883624Y-125467188D01*
X157951544Y-125303216D01*
X158050147Y-125155646D01*
X158175646Y-125030147D01*
X158323216Y-124931544D01*
X158487188Y-124863624D01*
X158636488Y-124833927D01*
X158661258Y-124829000D01*
X158838742Y-124829000D01*
X158863512Y-124833927D01*
G37*
G36*
X147114928Y-124746764D02*
G01*
X147136009Y-124753160D01*
X147155445Y-124763548D01*
X147172476Y-124777524D01*
X147186452Y-124794555D01*
X147196840Y-124813991D01*
X147203236Y-124835072D01*
X147206000Y-124863140D01*
X147206000Y-125326860D01*
X147203236Y-125354928D01*
X147196840Y-125376009D01*
X147186452Y-125395445D01*
X147172476Y-125412476D01*
X147155445Y-125426452D01*
X147136009Y-125436840D01*
X147114928Y-125443236D01*
X147086860Y-125446000D01*
X145273140Y-125446000D01*
X145245072Y-125443236D01*
X145223991Y-125436840D01*
X145204555Y-125426452D01*
X145187524Y-125412476D01*
X145173548Y-125395445D01*
X145163160Y-125376009D01*
X145156764Y-125354928D01*
X145154000Y-125326860D01*
X145154000Y-124863140D01*
X145156764Y-124835072D01*
X145163160Y-124813991D01*
X145173548Y-124794555D01*
X145187524Y-124777524D01*
X145204555Y-124763548D01*
X145223991Y-124753160D01*
X145245072Y-124746764D01*
X145273140Y-124744000D01*
X147086860Y-124744000D01*
X147114928Y-124746764D01*
G37*
G36*
X152064928Y-124746764D02*
G01*
X152086009Y-124753160D01*
X152105445Y-124763548D01*
X152122476Y-124777524D01*
X152136452Y-124794555D01*
X152146840Y-124813991D01*
X152153236Y-124835072D01*
X152156000Y-124863140D01*
X152156000Y-125326860D01*
X152153236Y-125354928D01*
X152146840Y-125376009D01*
X152136452Y-125395445D01*
X152122476Y-125412476D01*
X152105445Y-125426452D01*
X152086009Y-125436840D01*
X152064928Y-125443236D01*
X152036860Y-125446000D01*
X150223140Y-125446000D01*
X150195072Y-125443236D01*
X150173991Y-125436840D01*
X150154555Y-125426452D01*
X150137524Y-125412476D01*
X150123548Y-125395445D01*
X150113160Y-125376009D01*
X150106764Y-125354928D01*
X150104000Y-125326860D01*
X150104000Y-124863140D01*
X150106764Y-124835072D01*
X150113160Y-124813991D01*
X150123548Y-124794555D01*
X150137524Y-124777524D01*
X150154555Y-124763548D01*
X150173991Y-124753160D01*
X150195072Y-124746764D01*
X150223140Y-124744000D01*
X152036860Y-124744000D01*
X152064928Y-124746764D01*
G37*
G36*
X158863512Y-122293927D02*
G01*
X159012812Y-122323624D01*
X159176784Y-122391544D01*
X159324354Y-122490147D01*
X159449853Y-122615646D01*
X159548456Y-122763216D01*
X159616376Y-122927188D01*
X159651000Y-123101259D01*
X159651000Y-123278741D01*
X159616376Y-123452812D01*
X159548456Y-123616784D01*
X159449853Y-123764354D01*
X159324354Y-123889853D01*
X159176784Y-123988456D01*
X159012812Y-124056376D01*
X158863512Y-124086073D01*
X158838742Y-124091000D01*
X158661258Y-124091000D01*
X158636488Y-124086073D01*
X158487188Y-124056376D01*
X158323216Y-123988456D01*
X158175646Y-123889853D01*
X158050147Y-123764354D01*
X157951544Y-123616784D01*
X157883624Y-123452812D01*
X157849000Y-123278741D01*
X157849000Y-123101259D01*
X157883624Y-122927188D01*
X157951544Y-122763216D01*
X158050147Y-122615646D01*
X158175646Y-122490147D01*
X158323216Y-122391544D01*
X158487188Y-122323624D01*
X158636488Y-122293927D01*
X158661258Y-122289000D01*
X158838742Y-122289000D01*
X158863512Y-122293927D01*
G37*
G36*
X161403512Y-122293927D02*
G01*
X161552812Y-122323624D01*
X161716784Y-122391544D01*
X161864354Y-122490147D01*
X161989853Y-122615646D01*
X162088456Y-122763216D01*
X162156376Y-122927188D01*
X162191000Y-123101259D01*
X162191000Y-123278741D01*
X162156376Y-123452812D01*
X162088456Y-123616784D01*
X161989853Y-123764354D01*
X161864354Y-123889853D01*
X161716784Y-123988456D01*
X161552812Y-124056376D01*
X161403512Y-124086073D01*
X161378742Y-124091000D01*
X161201258Y-124091000D01*
X161176488Y-124086073D01*
X161027188Y-124056376D01*
X160863216Y-123988456D01*
X160715646Y-123889853D01*
X160590147Y-123764354D01*
X160491544Y-123616784D01*
X160423624Y-123452812D01*
X160389000Y-123278741D01*
X160389000Y-123101259D01*
X160423624Y-122927188D01*
X160491544Y-122763216D01*
X160590147Y-122615646D01*
X160715646Y-122490147D01*
X160863216Y-122391544D01*
X161027188Y-122323624D01*
X161176488Y-122293927D01*
X161201258Y-122289000D01*
X161378742Y-122289000D01*
X161403512Y-122293927D01*
G37*
G36*
X144608674Y-121173465D02*
G01*
X144646367Y-121184899D01*
X144681103Y-121203466D01*
X144711548Y-121228452D01*
X144736534Y-121258897D01*
X144755101Y-121293633D01*
X144766535Y-121331326D01*
X144771000Y-121376661D01*
X144771000Y-122463339D01*
X144766535Y-122508674D01*
X144755101Y-122546367D01*
X144736534Y-122581103D01*
X144711548Y-122611548D01*
X144681103Y-122636534D01*
X144646367Y-122655101D01*
X144608674Y-122666535D01*
X144563339Y-122671000D01*
X143726661Y-122671000D01*
X143681326Y-122666535D01*
X143643633Y-122655101D01*
X143608897Y-122636534D01*
X143578452Y-122611548D01*
X143553466Y-122581103D01*
X143534899Y-122546367D01*
X143523465Y-122508674D01*
X143519000Y-122463339D01*
X143519000Y-121376661D01*
X143523465Y-121331326D01*
X143534899Y-121293633D01*
X143553466Y-121258897D01*
X143578452Y-121228452D01*
X143608897Y-121203466D01*
X143643633Y-121184899D01*
X143681326Y-121173465D01*
X143726661Y-121169000D01*
X144563339Y-121169000D01*
X144608674Y-121173465D01*
G37*
G36*
X146658674Y-121173465D02*
G01*
X146696367Y-121184899D01*
X146731103Y-121203466D01*
X146761548Y-121228452D01*
X146786534Y-121258897D01*
X146805101Y-121293633D01*
X146816535Y-121331326D01*
X146821000Y-121376661D01*
X146821000Y-122463339D01*
X146816535Y-122508674D01*
X146805101Y-122546367D01*
X146786534Y-122581103D01*
X146761548Y-122611548D01*
X146731103Y-122636534D01*
X146696367Y-122655101D01*
X146658674Y-122666535D01*
X146613339Y-122671000D01*
X145776661Y-122671000D01*
X145731326Y-122666535D01*
X145693633Y-122655101D01*
X145658897Y-122636534D01*
X145628452Y-122611548D01*
X145603466Y-122581103D01*
X145584899Y-122546367D01*
X145573465Y-122508674D01*
X145569000Y-122463339D01*
X145569000Y-121376661D01*
X145573465Y-121331326D01*
X145584899Y-121293633D01*
X145603466Y-121258897D01*
X145628452Y-121228452D01*
X145658897Y-121203466D01*
X145693633Y-121184899D01*
X145731326Y-121173465D01*
X145776661Y-121169000D01*
X146613339Y-121169000D01*
X146658674Y-121173465D01*
G37*
G36*
X161403512Y-119753927D02*
G01*
X161552812Y-119783624D01*
X161716784Y-119851544D01*
X161864354Y-119950147D01*
X161989853Y-120075646D01*
X162088456Y-120223216D01*
X162156376Y-120387188D01*
X162191000Y-120561259D01*
X162191000Y-120738741D01*
X162156376Y-120912812D01*
X162088456Y-121076784D01*
X161989853Y-121224354D01*
X161864354Y-121349853D01*
X161716784Y-121448456D01*
X161552812Y-121516376D01*
X161403512Y-121546073D01*
X161378742Y-121551000D01*
X161201258Y-121551000D01*
X161176488Y-121546073D01*
X161027188Y-121516376D01*
X160863216Y-121448456D01*
X160715646Y-121349853D01*
X160590147Y-121224354D01*
X160491544Y-121076784D01*
X160423624Y-120912812D01*
X160389000Y-120738741D01*
X160389000Y-120561259D01*
X160423624Y-120387188D01*
X160491544Y-120223216D01*
X160590147Y-120075646D01*
X160715646Y-119950147D01*
X160863216Y-119851544D01*
X161027188Y-119783624D01*
X161176488Y-119753927D01*
X161201258Y-119749000D01*
X161378742Y-119749000D01*
X161403512Y-119753927D01*
G37*
G36*
X158863512Y-119753927D02*
G01*
X159012812Y-119783624D01*
X159176784Y-119851544D01*
X159324354Y-119950147D01*
X159449853Y-120075646D01*
X159548456Y-120223216D01*
X159616376Y-120387188D01*
X159651000Y-120561259D01*
X159651000Y-120738741D01*
X159616376Y-120912812D01*
X159548456Y-121076784D01*
X159449853Y-121224354D01*
X159324354Y-121349853D01*
X159176784Y-121448456D01*
X159012812Y-121516376D01*
X158863512Y-121546073D01*
X158838742Y-121551000D01*
X158661258Y-121551000D01*
X158636488Y-121546073D01*
X158487188Y-121516376D01*
X158323216Y-121448456D01*
X158175646Y-121349853D01*
X158050147Y-121224354D01*
X157951544Y-121076784D01*
X157883624Y-120912812D01*
X157849000Y-120738741D01*
X157849000Y-120561259D01*
X157883624Y-120387188D01*
X157951544Y-120223216D01*
X158050147Y-120075646D01*
X158175646Y-119950147D01*
X158323216Y-119851544D01*
X158487188Y-119783624D01*
X158636488Y-119753927D01*
X158661258Y-119749000D01*
X158838742Y-119749000D01*
X158863512Y-119753927D01*
G37*
G36*
X158863512Y-117213927D02*
G01*
X159012812Y-117243624D01*
X159176784Y-117311544D01*
X159324354Y-117410147D01*
X159449853Y-117535646D01*
X159548456Y-117683216D01*
X159616376Y-117847188D01*
X159651000Y-118021259D01*
X159651000Y-118198741D01*
X159616376Y-118372812D01*
X159548456Y-118536784D01*
X159449853Y-118684354D01*
X159324354Y-118809853D01*
X159176784Y-118908456D01*
X159012812Y-118976376D01*
X158863512Y-119006073D01*
X158838742Y-119011000D01*
X158661258Y-119011000D01*
X158636488Y-119006073D01*
X158487188Y-118976376D01*
X158323216Y-118908456D01*
X158175646Y-118809853D01*
X158050147Y-118684354D01*
X157951544Y-118536784D01*
X157883624Y-118372812D01*
X157849000Y-118198741D01*
X157849000Y-118021259D01*
X157883624Y-117847188D01*
X157951544Y-117683216D01*
X158050147Y-117535646D01*
X158175646Y-117410147D01*
X158323216Y-117311544D01*
X158487188Y-117243624D01*
X158636488Y-117213927D01*
X158661258Y-117209000D01*
X158838742Y-117209000D01*
X158863512Y-117213927D01*
G37*
G36*
X161403512Y-117213927D02*
G01*
X161552812Y-117243624D01*
X161716784Y-117311544D01*
X161864354Y-117410147D01*
X161989853Y-117535646D01*
X162088456Y-117683216D01*
X162156376Y-117847188D01*
X162191000Y-118021259D01*
X162191000Y-118198741D01*
X162156376Y-118372812D01*
X162088456Y-118536784D01*
X161989853Y-118684354D01*
X161864354Y-118809853D01*
X161716784Y-118908456D01*
X161552812Y-118976376D01*
X161403512Y-119006073D01*
X161378742Y-119011000D01*
X161201258Y-119011000D01*
X161176488Y-119006073D01*
X161027188Y-118976376D01*
X160863216Y-118908456D01*
X160715646Y-118809853D01*
X160590147Y-118684354D01*
X160491544Y-118536784D01*
X160423624Y-118372812D01*
X160389000Y-118198741D01*
X160389000Y-118021259D01*
X160423624Y-117847188D01*
X160491544Y-117683216D01*
X160590147Y-117535646D01*
X160715646Y-117410147D01*
X160863216Y-117311544D01*
X161027188Y-117243624D01*
X161176488Y-117213927D01*
X161201258Y-117209000D01*
X161378742Y-117209000D01*
X161403512Y-117213927D01*
G37*
G36*
X158863512Y-114673927D02*
G01*
X159012812Y-114703624D01*
X159176784Y-114771544D01*
X159324354Y-114870147D01*
X159449853Y-114995646D01*
X159548456Y-115143216D01*
X159616376Y-115307188D01*
X159651000Y-115481259D01*
X159651000Y-115658741D01*
X159616376Y-115832812D01*
X159548456Y-115996784D01*
X159449853Y-116144354D01*
X159324354Y-116269853D01*
X159176784Y-116368456D01*
X159012812Y-116436376D01*
X158863512Y-116466073D01*
X158838742Y-116471000D01*
X158661258Y-116471000D01*
X158636488Y-116466073D01*
X158487188Y-116436376D01*
X158323216Y-116368456D01*
X158175646Y-116269853D01*
X158050147Y-116144354D01*
X157951544Y-115996784D01*
X157883624Y-115832812D01*
X157849000Y-115658741D01*
X157849000Y-115481259D01*
X157883624Y-115307188D01*
X157951544Y-115143216D01*
X158050147Y-114995646D01*
X158175646Y-114870147D01*
X158323216Y-114771544D01*
X158487188Y-114703624D01*
X158636488Y-114673927D01*
X158661258Y-114669000D01*
X158838742Y-114669000D01*
X158863512Y-114673927D01*
G37*
G36*
X161403512Y-114673927D02*
G01*
X161552812Y-114703624D01*
X161716784Y-114771544D01*
X161864354Y-114870147D01*
X161989853Y-114995646D01*
X162088456Y-115143216D01*
X162156376Y-115307188D01*
X162191000Y-115481259D01*
X162191000Y-115658741D01*
X162156376Y-115832812D01*
X162088456Y-115996784D01*
X161989853Y-116144354D01*
X161864354Y-116269853D01*
X161716784Y-116368456D01*
X161552812Y-116436376D01*
X161403512Y-116466073D01*
X161378742Y-116471000D01*
X161201258Y-116471000D01*
X161176488Y-116466073D01*
X161027188Y-116436376D01*
X160863216Y-116368456D01*
X160715646Y-116269853D01*
X160590147Y-116144354D01*
X160491544Y-115996784D01*
X160423624Y-115832812D01*
X160389000Y-115658741D01*
X160389000Y-115481259D01*
X160423624Y-115307188D01*
X160491544Y-115143216D01*
X160590147Y-114995646D01*
X160715646Y-114870147D01*
X160863216Y-114771544D01*
X161027188Y-114703624D01*
X161176488Y-114673927D01*
X161201258Y-114669000D01*
X161378742Y-114669000D01*
X161403512Y-114673927D01*
G37*
G36*
X153269928Y-114586764D02*
G01*
X153291009Y-114593160D01*
X153310445Y-114603548D01*
X153327476Y-114617524D01*
X153341452Y-114634555D01*
X153351840Y-114653991D01*
X153358236Y-114675072D01*
X153361000Y-114703140D01*
X153361000Y-115166860D01*
X153358236Y-115194928D01*
X153351840Y-115216009D01*
X153341452Y-115235445D01*
X153327476Y-115252476D01*
X153310445Y-115266452D01*
X153291009Y-115276840D01*
X153269928Y-115283236D01*
X153241860Y-115286000D01*
X151428140Y-115286000D01*
X151400072Y-115283236D01*
X151378991Y-115276840D01*
X151359555Y-115266452D01*
X151342524Y-115252476D01*
X151328548Y-115235445D01*
X151318160Y-115216009D01*
X151311764Y-115194928D01*
X151309000Y-115166860D01*
X151309000Y-114703140D01*
X151311764Y-114675072D01*
X151318160Y-114653991D01*
X151328548Y-114634555D01*
X151342524Y-114617524D01*
X151359555Y-114603548D01*
X151378991Y-114593160D01*
X151400072Y-114586764D01*
X151428140Y-114584000D01*
X153241860Y-114584000D01*
X153269928Y-114586764D01*
G37*
G36*
X148319928Y-114586764D02*
G01*
X148341009Y-114593160D01*
X148360445Y-114603548D01*
X148377476Y-114617524D01*
X148391452Y-114634555D01*
X148401840Y-114653991D01*
X148408236Y-114675072D01*
X148411000Y-114703140D01*
X148411000Y-115166860D01*
X148408236Y-115194928D01*
X148401840Y-115216009D01*
X148391452Y-115235445D01*
X148377476Y-115252476D01*
X148360445Y-115266452D01*
X148341009Y-115276840D01*
X148319928Y-115283236D01*
X148291860Y-115286000D01*
X146478140Y-115286000D01*
X146450072Y-115283236D01*
X146428991Y-115276840D01*
X146409555Y-115266452D01*
X146392524Y-115252476D01*
X146378548Y-115235445D01*
X146368160Y-115216009D01*
X146361764Y-115194928D01*
X146359000Y-115166860D01*
X146359000Y-114703140D01*
X146361764Y-114675072D01*
X146368160Y-114653991D01*
X146378548Y-114634555D01*
X146392524Y-114617524D01*
X146409555Y-114603548D01*
X146428991Y-114593160D01*
X146450072Y-114586764D01*
X146478140Y-114584000D01*
X148291860Y-114584000D01*
X148319928Y-114586764D01*
G37*
G36*
X148319928Y-113316764D02*
G01*
X148341009Y-113323160D01*
X148360445Y-113333548D01*
X148377476Y-113347524D01*
X148391452Y-113364555D01*
X148401840Y-113383991D01*
X148408236Y-113405072D01*
X148411000Y-113433140D01*
X148411000Y-113896860D01*
X148408236Y-113924928D01*
X148401840Y-113946009D01*
X148391452Y-113965445D01*
X148377476Y-113982476D01*
X148360445Y-113996452D01*
X148341009Y-114006840D01*
X148319928Y-114013236D01*
X148291860Y-114016000D01*
X146478140Y-114016000D01*
X146450072Y-114013236D01*
X146428991Y-114006840D01*
X146409555Y-113996452D01*
X146392524Y-113982476D01*
X146378548Y-113965445D01*
X146368160Y-113946009D01*
X146361764Y-113924928D01*
X146359000Y-113896860D01*
X146359000Y-113433140D01*
X146361764Y-113405072D01*
X146368160Y-113383991D01*
X146378548Y-113364555D01*
X146392524Y-113347524D01*
X146409555Y-113333548D01*
X146428991Y-113323160D01*
X146450072Y-113316764D01*
X146478140Y-113314000D01*
X148291860Y-113314000D01*
X148319928Y-113316764D01*
G37*
G36*
X153269928Y-113316764D02*
G01*
X153291009Y-113323160D01*
X153310445Y-113333548D01*
X153327476Y-113347524D01*
X153341452Y-113364555D01*
X153351840Y-113383991D01*
X153358236Y-113405072D01*
X153361000Y-113433140D01*
X153361000Y-113896860D01*
X153358236Y-113924928D01*
X153351840Y-113946009D01*
X153341452Y-113965445D01*
X153327476Y-113982476D01*
X153310445Y-113996452D01*
X153291009Y-114006840D01*
X153269928Y-114013236D01*
X153241860Y-114016000D01*
X151428140Y-114016000D01*
X151400072Y-114013236D01*
X151378991Y-114006840D01*
X151359555Y-113996452D01*
X151342524Y-113982476D01*
X151328548Y-113965445D01*
X151318160Y-113946009D01*
X151311764Y-113924928D01*
X151309000Y-113896860D01*
X151309000Y-113433140D01*
X151311764Y-113405072D01*
X151318160Y-113383991D01*
X151328548Y-113364555D01*
X151342524Y-113347524D01*
X151359555Y-113333548D01*
X151378991Y-113323160D01*
X151400072Y-113316764D01*
X151428140Y-113314000D01*
X153241860Y-113314000D01*
X153269928Y-113316764D01*
G37*
G36*
X161403512Y-112133927D02*
G01*
X161552812Y-112163624D01*
X161716784Y-112231544D01*
X161864354Y-112330147D01*
X161989853Y-112455646D01*
X162088456Y-112603216D01*
X162156376Y-112767188D01*
X162191000Y-112941259D01*
X162191000Y-113118741D01*
X162156376Y-113292812D01*
X162088456Y-113456784D01*
X161989853Y-113604354D01*
X161864354Y-113729853D01*
X161716784Y-113828456D01*
X161552812Y-113896376D01*
X161409268Y-113924928D01*
X161378742Y-113931000D01*
X161201258Y-113931000D01*
X161170732Y-113924928D01*
X161027188Y-113896376D01*
X160863216Y-113828456D01*
X160715646Y-113729853D01*
X160590147Y-113604354D01*
X160491544Y-113456784D01*
X160423624Y-113292812D01*
X160389000Y-113118741D01*
X160389000Y-112941259D01*
X160423624Y-112767188D01*
X160491544Y-112603216D01*
X160590147Y-112455646D01*
X160715646Y-112330147D01*
X160863216Y-112231544D01*
X161027188Y-112163624D01*
X161176488Y-112133927D01*
X161201258Y-112129000D01*
X161378742Y-112129000D01*
X161403512Y-112133927D01*
G37*
G36*
X158863512Y-112133927D02*
G01*
X159012812Y-112163624D01*
X159176784Y-112231544D01*
X159324354Y-112330147D01*
X159449853Y-112455646D01*
X159548456Y-112603216D01*
X159616376Y-112767188D01*
X159651000Y-112941259D01*
X159651000Y-113118741D01*
X159616376Y-113292812D01*
X159548456Y-113456784D01*
X159449853Y-113604354D01*
X159324354Y-113729853D01*
X159176784Y-113828456D01*
X159012812Y-113896376D01*
X158869268Y-113924928D01*
X158838742Y-113931000D01*
X158661258Y-113931000D01*
X158630732Y-113924928D01*
X158487188Y-113896376D01*
X158323216Y-113828456D01*
X158175646Y-113729853D01*
X158050147Y-113604354D01*
X157951544Y-113456784D01*
X157883624Y-113292812D01*
X157849000Y-113118741D01*
X157849000Y-112941259D01*
X157883624Y-112767188D01*
X157951544Y-112603216D01*
X158050147Y-112455646D01*
X158175646Y-112330147D01*
X158323216Y-112231544D01*
X158487188Y-112163624D01*
X158636488Y-112133927D01*
X158661258Y-112129000D01*
X158838742Y-112129000D01*
X158863512Y-112133927D01*
G37*
G36*
X153269928Y-112046764D02*
G01*
X153291009Y-112053160D01*
X153310445Y-112063548D01*
X153327476Y-112077524D01*
X153341452Y-112094555D01*
X153351840Y-112113991D01*
X153358236Y-112135072D01*
X153361000Y-112163140D01*
X153361000Y-112626860D01*
X153358236Y-112654928D01*
X153351840Y-112676009D01*
X153341452Y-112695445D01*
X153327476Y-112712476D01*
X153310445Y-112726452D01*
X153291009Y-112736840D01*
X153269928Y-112743236D01*
X153241860Y-112746000D01*
X151428140Y-112746000D01*
X151400072Y-112743236D01*
X151378991Y-112736840D01*
X151359555Y-112726452D01*
X151342524Y-112712476D01*
X151328548Y-112695445D01*
X151318160Y-112676009D01*
X151311764Y-112654928D01*
X151309000Y-112626860D01*
X151309000Y-112163140D01*
X151311764Y-112135072D01*
X151318160Y-112113991D01*
X151328548Y-112094555D01*
X151342524Y-112077524D01*
X151359555Y-112063548D01*
X151378991Y-112053160D01*
X151400072Y-112046764D01*
X151428140Y-112044000D01*
X153241860Y-112044000D01*
X153269928Y-112046764D01*
G37*
G36*
X148319928Y-112046764D02*
G01*
X148341009Y-112053160D01*
X148360445Y-112063548D01*
X148377476Y-112077524D01*
X148391452Y-112094555D01*
X148401840Y-112113991D01*
X148408236Y-112135072D01*
X148411000Y-112163140D01*
X148411000Y-112626860D01*
X148408236Y-112654928D01*
X148401840Y-112676009D01*
X148391452Y-112695445D01*
X148377476Y-112712476D01*
X148360445Y-112726452D01*
X148341009Y-112736840D01*
X148319928Y-112743236D01*
X148291860Y-112746000D01*
X146478140Y-112746000D01*
X146450072Y-112743236D01*
X146428991Y-112736840D01*
X146409555Y-112726452D01*
X146392524Y-112712476D01*
X146378548Y-112695445D01*
X146368160Y-112676009D01*
X146361764Y-112654928D01*
X146359000Y-112626860D01*
X146359000Y-112163140D01*
X146361764Y-112135072D01*
X146368160Y-112113991D01*
X146378548Y-112094555D01*
X146392524Y-112077524D01*
X146409555Y-112063548D01*
X146428991Y-112053160D01*
X146450072Y-112046764D01*
X146478140Y-112044000D01*
X148291860Y-112044000D01*
X148319928Y-112046764D01*
G37*
G36*
X153269928Y-110776764D02*
G01*
X153291009Y-110783160D01*
X153310445Y-110793548D01*
X153327476Y-110807524D01*
X153341452Y-110824555D01*
X153351840Y-110843991D01*
X153358236Y-110865072D01*
X153361000Y-110893140D01*
X153361000Y-111356860D01*
X153358236Y-111384928D01*
X153351840Y-111406009D01*
X153341452Y-111425445D01*
X153327476Y-111442476D01*
X153310445Y-111456452D01*
X153291009Y-111466840D01*
X153269928Y-111473236D01*
X153241860Y-111476000D01*
X151428140Y-111476000D01*
X151400072Y-111473236D01*
X151378991Y-111466840D01*
X151359555Y-111456452D01*
X151342524Y-111442476D01*
X151328548Y-111425445D01*
X151318160Y-111406009D01*
X151311764Y-111384928D01*
X151309000Y-111356860D01*
X151309000Y-110893140D01*
X151311764Y-110865072D01*
X151318160Y-110843991D01*
X151328548Y-110824555D01*
X151342524Y-110807524D01*
X151359555Y-110793548D01*
X151378991Y-110783160D01*
X151400072Y-110776764D01*
X151428140Y-110774000D01*
X153241860Y-110774000D01*
X153269928Y-110776764D01*
G37*
G36*
X148319928Y-110776764D02*
G01*
X148341009Y-110783160D01*
X148360445Y-110793548D01*
X148377476Y-110807524D01*
X148391452Y-110824555D01*
X148401840Y-110843991D01*
X148408236Y-110865072D01*
X148411000Y-110893140D01*
X148411000Y-111356860D01*
X148408236Y-111384928D01*
X148401840Y-111406009D01*
X148391452Y-111425445D01*
X148377476Y-111442476D01*
X148360445Y-111456452D01*
X148341009Y-111466840D01*
X148319928Y-111473236D01*
X148291860Y-111476000D01*
X146478140Y-111476000D01*
X146450072Y-111473236D01*
X146428991Y-111466840D01*
X146409555Y-111456452D01*
X146392524Y-111442476D01*
X146378548Y-111425445D01*
X146368160Y-111406009D01*
X146361764Y-111384928D01*
X146359000Y-111356860D01*
X146359000Y-110893140D01*
X146361764Y-110865072D01*
X146368160Y-110843991D01*
X146378548Y-110824555D01*
X146392524Y-110807524D01*
X146409555Y-110793548D01*
X146428991Y-110783160D01*
X146450072Y-110776764D01*
X146478140Y-110774000D01*
X148291860Y-110774000D01*
X148319928Y-110776764D01*
G37*
G36*
X158863512Y-109593927D02*
G01*
X159012812Y-109623624D01*
X159176784Y-109691544D01*
X159324354Y-109790147D01*
X159449853Y-109915646D01*
X159548456Y-110063216D01*
X159616376Y-110227188D01*
X159651000Y-110401259D01*
X159651000Y-110578741D01*
X159616376Y-110752812D01*
X159548456Y-110916784D01*
X159449853Y-111064354D01*
X159324354Y-111189853D01*
X159176784Y-111288456D01*
X159012812Y-111356376D01*
X158869268Y-111384928D01*
X158838742Y-111391000D01*
X158661258Y-111391000D01*
X158630732Y-111384928D01*
X158487188Y-111356376D01*
X158323216Y-111288456D01*
X158175646Y-111189853D01*
X158050147Y-111064354D01*
X157951544Y-110916784D01*
X157883624Y-110752812D01*
X157849000Y-110578741D01*
X157849000Y-110401259D01*
X157883624Y-110227188D01*
X157951544Y-110063216D01*
X158050147Y-109915646D01*
X158175646Y-109790147D01*
X158323216Y-109691544D01*
X158487188Y-109623624D01*
X158636488Y-109593927D01*
X158661258Y-109589000D01*
X158838742Y-109589000D01*
X158863512Y-109593927D01*
G37*
G36*
X161403512Y-109593927D02*
G01*
X161552812Y-109623624D01*
X161716784Y-109691544D01*
X161864354Y-109790147D01*
X161989853Y-109915646D01*
X162088456Y-110063216D01*
X162156376Y-110227188D01*
X162191000Y-110401259D01*
X162191000Y-110578741D01*
X162156376Y-110752812D01*
X162088456Y-110916784D01*
X161989853Y-111064354D01*
X161864354Y-111189853D01*
X161716784Y-111288456D01*
X161552812Y-111356376D01*
X161409268Y-111384928D01*
X161378742Y-111391000D01*
X161201258Y-111391000D01*
X161170732Y-111384928D01*
X161027188Y-111356376D01*
X160863216Y-111288456D01*
X160715646Y-111189853D01*
X160590147Y-111064354D01*
X160491544Y-110916784D01*
X160423624Y-110752812D01*
X160389000Y-110578741D01*
X160389000Y-110401259D01*
X160423624Y-110227188D01*
X160491544Y-110063216D01*
X160590147Y-109915646D01*
X160715646Y-109790147D01*
X160863216Y-109691544D01*
X161027188Y-109623624D01*
X161176488Y-109593927D01*
X161201258Y-109589000D01*
X161378742Y-109589000D01*
X161403512Y-109593927D01*
G37*
G36*
X153269928Y-109506764D02*
G01*
X153291009Y-109513160D01*
X153310445Y-109523548D01*
X153327476Y-109537524D01*
X153341452Y-109554555D01*
X153351840Y-109573991D01*
X153358236Y-109595072D01*
X153361000Y-109623140D01*
X153361000Y-110086860D01*
X153358236Y-110114928D01*
X153351840Y-110136009D01*
X153341452Y-110155445D01*
X153327476Y-110172476D01*
X153310445Y-110186452D01*
X153291009Y-110196840D01*
X153269928Y-110203236D01*
X153241860Y-110206000D01*
X151428140Y-110206000D01*
X151400072Y-110203236D01*
X151378991Y-110196840D01*
X151359555Y-110186452D01*
X151342524Y-110172476D01*
X151328548Y-110155445D01*
X151318160Y-110136009D01*
X151311764Y-110114928D01*
X151309000Y-110086860D01*
X151309000Y-109623140D01*
X151311764Y-109595072D01*
X151318160Y-109573991D01*
X151328548Y-109554555D01*
X151342524Y-109537524D01*
X151359555Y-109523548D01*
X151378991Y-109513160D01*
X151400072Y-109506764D01*
X151428140Y-109504000D01*
X153241860Y-109504000D01*
X153269928Y-109506764D01*
G37*
G36*
X148319928Y-109506764D02*
G01*
X148341009Y-109513160D01*
X148360445Y-109523548D01*
X148377476Y-109537524D01*
X148391452Y-109554555D01*
X148401840Y-109573991D01*
X148408236Y-109595072D01*
X148411000Y-109623140D01*
X148411000Y-110086860D01*
X148408236Y-110114928D01*
X148401840Y-110136009D01*
X148391452Y-110155445D01*
X148377476Y-110172476D01*
X148360445Y-110186452D01*
X148341009Y-110196840D01*
X148319928Y-110203236D01*
X148291860Y-110206000D01*
X146478140Y-110206000D01*
X146450072Y-110203236D01*
X146428991Y-110196840D01*
X146409555Y-110186452D01*
X146392524Y-110172476D01*
X146378548Y-110155445D01*
X146368160Y-110136009D01*
X146361764Y-110114928D01*
X146359000Y-110086860D01*
X146359000Y-109623140D01*
X146361764Y-109595072D01*
X146368160Y-109573991D01*
X146378548Y-109554555D01*
X146392524Y-109537524D01*
X146409555Y-109523548D01*
X146428991Y-109513160D01*
X146450072Y-109506764D01*
X146478140Y-109504000D01*
X148291860Y-109504000D01*
X148319928Y-109506764D01*
G37*
G36*
X148319928Y-108236764D02*
G01*
X148341009Y-108243160D01*
X148360445Y-108253548D01*
X148377476Y-108267524D01*
X148391452Y-108284555D01*
X148401840Y-108303991D01*
X148408236Y-108325072D01*
X148411000Y-108353140D01*
X148411000Y-108816860D01*
X148408236Y-108844928D01*
X148401840Y-108866009D01*
X148391452Y-108885445D01*
X148377476Y-108902476D01*
X148360445Y-108916452D01*
X148341009Y-108926840D01*
X148319928Y-108933236D01*
X148291860Y-108936000D01*
X146478140Y-108936000D01*
X146450072Y-108933236D01*
X146428991Y-108926840D01*
X146409555Y-108916452D01*
X146392524Y-108902476D01*
X146378548Y-108885445D01*
X146368160Y-108866009D01*
X146361764Y-108844928D01*
X146359000Y-108816860D01*
X146359000Y-108353140D01*
X146361764Y-108325072D01*
X146368160Y-108303991D01*
X146378548Y-108284555D01*
X146392524Y-108267524D01*
X146409555Y-108253548D01*
X146428991Y-108243160D01*
X146450072Y-108236764D01*
X146478140Y-108234000D01*
X148291860Y-108234000D01*
X148319928Y-108236764D01*
G37*
G36*
X153269928Y-108236764D02*
G01*
X153291009Y-108243160D01*
X153310445Y-108253548D01*
X153327476Y-108267524D01*
X153341452Y-108284555D01*
X153351840Y-108303991D01*
X153358236Y-108325072D01*
X153361000Y-108353140D01*
X153361000Y-108816860D01*
X153358236Y-108844928D01*
X153351840Y-108866009D01*
X153341452Y-108885445D01*
X153327476Y-108902476D01*
X153310445Y-108916452D01*
X153291009Y-108926840D01*
X153269928Y-108933236D01*
X153241860Y-108936000D01*
X151428140Y-108936000D01*
X151400072Y-108933236D01*
X151378991Y-108926840D01*
X151359555Y-108916452D01*
X151342524Y-108902476D01*
X151328548Y-108885445D01*
X151318160Y-108866009D01*
X151311764Y-108844928D01*
X151309000Y-108816860D01*
X151309000Y-108353140D01*
X151311764Y-108325072D01*
X151318160Y-108303991D01*
X151328548Y-108284555D01*
X151342524Y-108267524D01*
X151359555Y-108253548D01*
X151378991Y-108243160D01*
X151400072Y-108236764D01*
X151428140Y-108234000D01*
X153241860Y-108234000D01*
X153269928Y-108236764D01*
G37*
G36*
X161403512Y-107053927D02*
G01*
X161552812Y-107083624D01*
X161716784Y-107151544D01*
X161864354Y-107250147D01*
X161989853Y-107375646D01*
X162088456Y-107523216D01*
X162156376Y-107687188D01*
X162191000Y-107861259D01*
X162191000Y-108038741D01*
X162156376Y-108212812D01*
X162088456Y-108376784D01*
X161989853Y-108524354D01*
X161864354Y-108649853D01*
X161716784Y-108748456D01*
X161552812Y-108816376D01*
X161409268Y-108844928D01*
X161378742Y-108851000D01*
X161201258Y-108851000D01*
X161170732Y-108844928D01*
X161027188Y-108816376D01*
X160863216Y-108748456D01*
X160715646Y-108649853D01*
X160590147Y-108524354D01*
X160491544Y-108376784D01*
X160423624Y-108212812D01*
X160389000Y-108038741D01*
X160389000Y-107861259D01*
X160423624Y-107687188D01*
X160491544Y-107523216D01*
X160590147Y-107375646D01*
X160715646Y-107250147D01*
X160863216Y-107151544D01*
X161027188Y-107083624D01*
X161176488Y-107053927D01*
X161201258Y-107049000D01*
X161378742Y-107049000D01*
X161403512Y-107053927D01*
G37*
G36*
X158863512Y-107053927D02*
G01*
X159012812Y-107083624D01*
X159176784Y-107151544D01*
X159324354Y-107250147D01*
X159449853Y-107375646D01*
X159548456Y-107523216D01*
X159616376Y-107687188D01*
X159651000Y-107861259D01*
X159651000Y-108038741D01*
X159616376Y-108212812D01*
X159548456Y-108376784D01*
X159449853Y-108524354D01*
X159324354Y-108649853D01*
X159176784Y-108748456D01*
X159012812Y-108816376D01*
X158869268Y-108844928D01*
X158838742Y-108851000D01*
X158661258Y-108851000D01*
X158630732Y-108844928D01*
X158487188Y-108816376D01*
X158323216Y-108748456D01*
X158175646Y-108649853D01*
X158050147Y-108524354D01*
X157951544Y-108376784D01*
X157883624Y-108212812D01*
X157849000Y-108038741D01*
X157849000Y-107861259D01*
X157883624Y-107687188D01*
X157951544Y-107523216D01*
X158050147Y-107375646D01*
X158175646Y-107250147D01*
X158323216Y-107151544D01*
X158487188Y-107083624D01*
X158636488Y-107053927D01*
X158661258Y-107049000D01*
X158838742Y-107049000D01*
X158863512Y-107053927D01*
G37*
G36*
X153269928Y-106966764D02*
G01*
X153291009Y-106973160D01*
X153310445Y-106983548D01*
X153327476Y-106997524D01*
X153341452Y-107014555D01*
X153351840Y-107033991D01*
X153358236Y-107055072D01*
X153361000Y-107083140D01*
X153361000Y-107546860D01*
X153358236Y-107574928D01*
X153351840Y-107596009D01*
X153341452Y-107615445D01*
X153327476Y-107632476D01*
X153310445Y-107646452D01*
X153291009Y-107656840D01*
X153269928Y-107663236D01*
X153241860Y-107666000D01*
X151428140Y-107666000D01*
X151400072Y-107663236D01*
X151378991Y-107656840D01*
X151359555Y-107646452D01*
X151342524Y-107632476D01*
X151328548Y-107615445D01*
X151318160Y-107596009D01*
X151311764Y-107574928D01*
X151309000Y-107546860D01*
X151309000Y-107083140D01*
X151311764Y-107055072D01*
X151318160Y-107033991D01*
X151328548Y-107014555D01*
X151342524Y-106997524D01*
X151359555Y-106983548D01*
X151378991Y-106973160D01*
X151400072Y-106966764D01*
X151428140Y-106964000D01*
X153241860Y-106964000D01*
X153269928Y-106966764D01*
G37*
G36*
X148319928Y-106966764D02*
G01*
X148341009Y-106973160D01*
X148360445Y-106983548D01*
X148377476Y-106997524D01*
X148391452Y-107014555D01*
X148401840Y-107033991D01*
X148408236Y-107055072D01*
X148411000Y-107083140D01*
X148411000Y-107546860D01*
X148408236Y-107574928D01*
X148401840Y-107596009D01*
X148391452Y-107615445D01*
X148377476Y-107632476D01*
X148360445Y-107646452D01*
X148341009Y-107656840D01*
X148319928Y-107663236D01*
X148291860Y-107666000D01*
X146478140Y-107666000D01*
X146450072Y-107663236D01*
X146428991Y-107656840D01*
X146409555Y-107646452D01*
X146392524Y-107632476D01*
X146378548Y-107615445D01*
X146368160Y-107596009D01*
X146361764Y-107574928D01*
X146359000Y-107546860D01*
X146359000Y-107083140D01*
X146361764Y-107055072D01*
X146368160Y-107033991D01*
X146378548Y-107014555D01*
X146392524Y-106997524D01*
X146409555Y-106983548D01*
X146428991Y-106973160D01*
X146450072Y-106966764D01*
X146478140Y-106964000D01*
X148291860Y-106964000D01*
X148319928Y-106966764D01*
G37*
G36*
X148319928Y-105696764D02*
G01*
X148341009Y-105703160D01*
X148360445Y-105713548D01*
X148377476Y-105727524D01*
X148391452Y-105744555D01*
X148401840Y-105763991D01*
X148408236Y-105785072D01*
X148411000Y-105813140D01*
X148411000Y-106276860D01*
X148408236Y-106304928D01*
X148401840Y-106326009D01*
X148391452Y-106345445D01*
X148377476Y-106362476D01*
X148360445Y-106376452D01*
X148341009Y-106386840D01*
X148319928Y-106393236D01*
X148291860Y-106396000D01*
X146478140Y-106396000D01*
X146450072Y-106393236D01*
X146428991Y-106386840D01*
X146409555Y-106376452D01*
X146392524Y-106362476D01*
X146378548Y-106345445D01*
X146368160Y-106326009D01*
X146361764Y-106304928D01*
X146359000Y-106276860D01*
X146359000Y-105813140D01*
X146361764Y-105785072D01*
X146368160Y-105763991D01*
X146378548Y-105744555D01*
X146392524Y-105727524D01*
X146409555Y-105713548D01*
X146428991Y-105703160D01*
X146450072Y-105696764D01*
X146478140Y-105694000D01*
X148291860Y-105694000D01*
X148319928Y-105696764D01*
G37*
G36*
X153269928Y-105696764D02*
G01*
X153291009Y-105703160D01*
X153310445Y-105713548D01*
X153327476Y-105727524D01*
X153341452Y-105744555D01*
X153351840Y-105763991D01*
X153358236Y-105785072D01*
X153361000Y-105813140D01*
X153361000Y-106276860D01*
X153358236Y-106304928D01*
X153351840Y-106326009D01*
X153341452Y-106345445D01*
X153327476Y-106362476D01*
X153310445Y-106376452D01*
X153291009Y-106386840D01*
X153269928Y-106393236D01*
X153241860Y-106396000D01*
X151428140Y-106396000D01*
X151400072Y-106393236D01*
X151378991Y-106386840D01*
X151359555Y-106376452D01*
X151342524Y-106362476D01*
X151328548Y-106345445D01*
X151318160Y-106326009D01*
X151311764Y-106304928D01*
X151309000Y-106276860D01*
X151309000Y-105813140D01*
X151311764Y-105785072D01*
X151318160Y-105763991D01*
X151328548Y-105744555D01*
X151342524Y-105727524D01*
X151359555Y-105713548D01*
X151378991Y-105703160D01*
X151400072Y-105696764D01*
X151428140Y-105694000D01*
X153241860Y-105694000D01*
X153269928Y-105696764D01*
G37*
G36*
X158863512Y-104513927D02*
G01*
X159012812Y-104543624D01*
X159176784Y-104611544D01*
X159324354Y-104710147D01*
X159449853Y-104835646D01*
X159548456Y-104983216D01*
X159616376Y-105147188D01*
X159651000Y-105321259D01*
X159651000Y-105498741D01*
X159616376Y-105672812D01*
X159548456Y-105836784D01*
X159449853Y-105984354D01*
X159324354Y-106109853D01*
X159176784Y-106208456D01*
X159012812Y-106276376D01*
X158869268Y-106304928D01*
X158838742Y-106311000D01*
X158661258Y-106311000D01*
X158630732Y-106304928D01*
X158487188Y-106276376D01*
X158323216Y-106208456D01*
X158175646Y-106109853D01*
X158050147Y-105984354D01*
X157951544Y-105836784D01*
X157883624Y-105672812D01*
X157849000Y-105498741D01*
X157849000Y-105321259D01*
X157883624Y-105147188D01*
X157951544Y-104983216D01*
X158050147Y-104835646D01*
X158175646Y-104710147D01*
X158323216Y-104611544D01*
X158487188Y-104543624D01*
X158636488Y-104513927D01*
X158661258Y-104509000D01*
X158838742Y-104509000D01*
X158863512Y-104513927D01*
G37*
G36*
X161403512Y-104513927D02*
G01*
X161552812Y-104543624D01*
X161716784Y-104611544D01*
X161864354Y-104710147D01*
X161989853Y-104835646D01*
X162088456Y-104983216D01*
X162156376Y-105147188D01*
X162191000Y-105321259D01*
X162191000Y-105498741D01*
X162156376Y-105672812D01*
X162088456Y-105836784D01*
X161989853Y-105984354D01*
X161864354Y-106109853D01*
X161716784Y-106208456D01*
X161552812Y-106276376D01*
X161409268Y-106304928D01*
X161378742Y-106311000D01*
X161201258Y-106311000D01*
X161170732Y-106304928D01*
X161027188Y-106276376D01*
X160863216Y-106208456D01*
X160715646Y-106109853D01*
X160590147Y-105984354D01*
X160491544Y-105836784D01*
X160423624Y-105672812D01*
X160389000Y-105498741D01*
X160389000Y-105321259D01*
X160423624Y-105147188D01*
X160491544Y-104983216D01*
X160590147Y-104835646D01*
X160715646Y-104710147D01*
X160863216Y-104611544D01*
X161027188Y-104543624D01*
X161176488Y-104513927D01*
X161201258Y-104509000D01*
X161378742Y-104509000D01*
X161403512Y-104513927D01*
G37*
G36*
X161403512Y-101973927D02*
G01*
X161552812Y-102003624D01*
X161716784Y-102071544D01*
X161864354Y-102170147D01*
X161989853Y-102295646D01*
X162088456Y-102443216D01*
X162156376Y-102607188D01*
X162191000Y-102781259D01*
X162191000Y-102958741D01*
X162156376Y-103132812D01*
X162088456Y-103296784D01*
X161989853Y-103444354D01*
X161864354Y-103569853D01*
X161716784Y-103668456D01*
X161552812Y-103736376D01*
X161403512Y-103766073D01*
X161378742Y-103771000D01*
X161201258Y-103771000D01*
X161176488Y-103766073D01*
X161027188Y-103736376D01*
X160863216Y-103668456D01*
X160715646Y-103569853D01*
X160590147Y-103444354D01*
X160491544Y-103296784D01*
X160423624Y-103132812D01*
X160389000Y-102958741D01*
X160389000Y-102781259D01*
X160423624Y-102607188D01*
X160491544Y-102443216D01*
X160590147Y-102295646D01*
X160715646Y-102170147D01*
X160863216Y-102071544D01*
X161027188Y-102003624D01*
X161176488Y-101973927D01*
X161201258Y-101969000D01*
X161378742Y-101969000D01*
X161403512Y-101973927D01*
G37*
G36*
X158863512Y-101973927D02*
G01*
X159012812Y-102003624D01*
X159176784Y-102071544D01*
X159324354Y-102170147D01*
X159449853Y-102295646D01*
X159548456Y-102443216D01*
X159616376Y-102607188D01*
X159651000Y-102781259D01*
X159651000Y-102958741D01*
X159616376Y-103132812D01*
X159548456Y-103296784D01*
X159449853Y-103444354D01*
X159324354Y-103569853D01*
X159176784Y-103668456D01*
X159012812Y-103736376D01*
X158863512Y-103766073D01*
X158838742Y-103771000D01*
X158661258Y-103771000D01*
X158636488Y-103766073D01*
X158487188Y-103736376D01*
X158323216Y-103668456D01*
X158175646Y-103569853D01*
X158050147Y-103444354D01*
X157951544Y-103296784D01*
X157883624Y-103132812D01*
X157849000Y-102958741D01*
X157849000Y-102781259D01*
X157883624Y-102607188D01*
X157951544Y-102443216D01*
X158050147Y-102295646D01*
X158175646Y-102170147D01*
X158323216Y-102071544D01*
X158487188Y-102003624D01*
X158636488Y-101973927D01*
X158661258Y-101969000D01*
X158838742Y-101969000D01*
X158863512Y-101973927D01*
G37*
G36*
X161403512Y-99433927D02*
G01*
X161552812Y-99463624D01*
X161716784Y-99531544D01*
X161864354Y-99630147D01*
X161989853Y-99755646D01*
X162088456Y-99903216D01*
X162156376Y-100067188D01*
X162191000Y-100241259D01*
X162191000Y-100418741D01*
X162156376Y-100592812D01*
X162088456Y-100756784D01*
X161989853Y-100904354D01*
X161864354Y-101029853D01*
X161716784Y-101128456D01*
X161552812Y-101196376D01*
X161403512Y-101226073D01*
X161378742Y-101231000D01*
X161201258Y-101231000D01*
X161176488Y-101226073D01*
X161027188Y-101196376D01*
X160863216Y-101128456D01*
X160715646Y-101029853D01*
X160590147Y-100904354D01*
X160491544Y-100756784D01*
X160423624Y-100592812D01*
X160389000Y-100418741D01*
X160389000Y-100241259D01*
X160423624Y-100067188D01*
X160491544Y-99903216D01*
X160590147Y-99755646D01*
X160715646Y-99630147D01*
X160863216Y-99531544D01*
X161027188Y-99463624D01*
X161176488Y-99433927D01*
X161201258Y-99429000D01*
X161378742Y-99429000D01*
X161403512Y-99433927D01*
G37*
G36*
X158863512Y-99433927D02*
G01*
X159012812Y-99463624D01*
X159176784Y-99531544D01*
X159324354Y-99630147D01*
X159449853Y-99755646D01*
X159548456Y-99903216D01*
X159616376Y-100067188D01*
X159651000Y-100241259D01*
X159651000Y-100418741D01*
X159616376Y-100592812D01*
X159548456Y-100756784D01*
X159449853Y-100904354D01*
X159324354Y-101029853D01*
X159176784Y-101128456D01*
X159012812Y-101196376D01*
X158863512Y-101226073D01*
X158838742Y-101231000D01*
X158661258Y-101231000D01*
X158636488Y-101226073D01*
X158487188Y-101196376D01*
X158323216Y-101128456D01*
X158175646Y-101029853D01*
X158050147Y-100904354D01*
X157951544Y-100756784D01*
X157883624Y-100592812D01*
X157849000Y-100418741D01*
X157849000Y-100241259D01*
X157883624Y-100067188D01*
X157951544Y-99903216D01*
X158050147Y-99755646D01*
X158175646Y-99630147D01*
X158323216Y-99531544D01*
X158487188Y-99463624D01*
X158636488Y-99433927D01*
X158661258Y-99429000D01*
X158838742Y-99429000D01*
X158863512Y-99433927D01*
G37*
G36*
X158863512Y-96893927D02*
G01*
X159012812Y-96923624D01*
X159176784Y-96991544D01*
X159324354Y-97090147D01*
X159449853Y-97215646D01*
X159548456Y-97363216D01*
X159616376Y-97527188D01*
X159651000Y-97701259D01*
X159651000Y-97878741D01*
X159616376Y-98052812D01*
X159548456Y-98216784D01*
X159449853Y-98364354D01*
X159324354Y-98489853D01*
X159176784Y-98588456D01*
X159012812Y-98656376D01*
X158863512Y-98686073D01*
X158838742Y-98691000D01*
X158661258Y-98691000D01*
X158636488Y-98686073D01*
X158487188Y-98656376D01*
X158323216Y-98588456D01*
X158175646Y-98489853D01*
X158050147Y-98364354D01*
X157951544Y-98216784D01*
X157883624Y-98052812D01*
X157849000Y-97878741D01*
X157849000Y-97701259D01*
X157883624Y-97527188D01*
X157951544Y-97363216D01*
X158050147Y-97215646D01*
X158175646Y-97090147D01*
X158323216Y-96991544D01*
X158487188Y-96923624D01*
X158636488Y-96893927D01*
X158661258Y-96889000D01*
X158838742Y-96889000D01*
X158863512Y-96893927D01*
G37*
G36*
X161403512Y-96893927D02*
G01*
X161552812Y-96923624D01*
X161716784Y-96991544D01*
X161864354Y-97090147D01*
X161989853Y-97215646D01*
X162088456Y-97363216D01*
X162156376Y-97527188D01*
X162191000Y-97701259D01*
X162191000Y-97878741D01*
X162156376Y-98052812D01*
X162088456Y-98216784D01*
X161989853Y-98364354D01*
X161864354Y-98489853D01*
X161716784Y-98588456D01*
X161552812Y-98656376D01*
X161403512Y-98686073D01*
X161378742Y-98691000D01*
X161201258Y-98691000D01*
X161176488Y-98686073D01*
X161027188Y-98656376D01*
X160863216Y-98588456D01*
X160715646Y-98489853D01*
X160590147Y-98364354D01*
X160491544Y-98216784D01*
X160423624Y-98052812D01*
X160389000Y-97878741D01*
X160389000Y-97701259D01*
X160423624Y-97527188D01*
X160491544Y-97363216D01*
X160590147Y-97215646D01*
X160715646Y-97090147D01*
X160863216Y-96991544D01*
X161027188Y-96923624D01*
X161176488Y-96893927D01*
X161201258Y-96889000D01*
X161378742Y-96889000D01*
X161403512Y-96893927D01*
G37*
G36*
X148384928Y-96806764D02*
G01*
X148406009Y-96813160D01*
X148425445Y-96823548D01*
X148442476Y-96837524D01*
X148456452Y-96854555D01*
X148466840Y-96873991D01*
X148473236Y-96895072D01*
X148476000Y-96923140D01*
X148476000Y-97386860D01*
X148473236Y-97414928D01*
X148466840Y-97436009D01*
X148456452Y-97455445D01*
X148442476Y-97472476D01*
X148425445Y-97486452D01*
X148406009Y-97496840D01*
X148384928Y-97503236D01*
X148356860Y-97506000D01*
X146543140Y-97506000D01*
X146515072Y-97503236D01*
X146493991Y-97496840D01*
X146474555Y-97486452D01*
X146457524Y-97472476D01*
X146443548Y-97455445D01*
X146433160Y-97436009D01*
X146426764Y-97414928D01*
X146424000Y-97386860D01*
X146424000Y-96923140D01*
X146426764Y-96895072D01*
X146433160Y-96873991D01*
X146443548Y-96854555D01*
X146457524Y-96837524D01*
X146474555Y-96823548D01*
X146493991Y-96813160D01*
X146515072Y-96806764D01*
X146543140Y-96804000D01*
X148356860Y-96804000D01*
X148384928Y-96806764D01*
G37*
G36*
X153334928Y-96806764D02*
G01*
X153356009Y-96813160D01*
X153375445Y-96823548D01*
X153392476Y-96837524D01*
X153406452Y-96854555D01*
X153416840Y-96873991D01*
X153423236Y-96895072D01*
X153426000Y-96923140D01*
X153426000Y-97386860D01*
X153423236Y-97414928D01*
X153416840Y-97436009D01*
X153406452Y-97455445D01*
X153392476Y-97472476D01*
X153375445Y-97486452D01*
X153356009Y-97496840D01*
X153334928Y-97503236D01*
X153306860Y-97506000D01*
X151493140Y-97506000D01*
X151465072Y-97503236D01*
X151443991Y-97496840D01*
X151424555Y-97486452D01*
X151407524Y-97472476D01*
X151393548Y-97455445D01*
X151383160Y-97436009D01*
X151376764Y-97414928D01*
X151374000Y-97386860D01*
X151374000Y-96923140D01*
X151376764Y-96895072D01*
X151383160Y-96873991D01*
X151393548Y-96854555D01*
X151407524Y-96837524D01*
X151424555Y-96823548D01*
X151443991Y-96813160D01*
X151465072Y-96806764D01*
X151493140Y-96804000D01*
X153306860Y-96804000D01*
X153334928Y-96806764D01*
G37*
G36*
X148384928Y-95536764D02*
G01*
X148406009Y-95543160D01*
X148425445Y-95553548D01*
X148442476Y-95567524D01*
X148456452Y-95584555D01*
X148466840Y-95603991D01*
X148473236Y-95625072D01*
X148476000Y-95653140D01*
X148476000Y-96116860D01*
X148473236Y-96144928D01*
X148466840Y-96166009D01*
X148456452Y-96185445D01*
X148442476Y-96202476D01*
X148425445Y-96216452D01*
X148406009Y-96226840D01*
X148384928Y-96233236D01*
X148356860Y-96236000D01*
X146543140Y-96236000D01*
X146515072Y-96233236D01*
X146493991Y-96226840D01*
X146474555Y-96216452D01*
X146457524Y-96202476D01*
X146443548Y-96185445D01*
X146433160Y-96166009D01*
X146426764Y-96144928D01*
X146424000Y-96116860D01*
X146424000Y-95653140D01*
X146426764Y-95625072D01*
X146433160Y-95603991D01*
X146443548Y-95584555D01*
X146457524Y-95567524D01*
X146474555Y-95553548D01*
X146493991Y-95543160D01*
X146515072Y-95536764D01*
X146543140Y-95534000D01*
X148356860Y-95534000D01*
X148384928Y-95536764D01*
G37*
G36*
X153334928Y-95536764D02*
G01*
X153356009Y-95543160D01*
X153375445Y-95553548D01*
X153392476Y-95567524D01*
X153406452Y-95584555D01*
X153416840Y-95603991D01*
X153423236Y-95625072D01*
X153426000Y-95653140D01*
X153426000Y-96116860D01*
X153423236Y-96144928D01*
X153416840Y-96166009D01*
X153406452Y-96185445D01*
X153392476Y-96202476D01*
X153375445Y-96216452D01*
X153356009Y-96226840D01*
X153334928Y-96233236D01*
X153306860Y-96236000D01*
X151493140Y-96236000D01*
X151465072Y-96233236D01*
X151443991Y-96226840D01*
X151424555Y-96216452D01*
X151407524Y-96202476D01*
X151393548Y-96185445D01*
X151383160Y-96166009D01*
X151376764Y-96144928D01*
X151374000Y-96116860D01*
X151374000Y-95653140D01*
X151376764Y-95625072D01*
X151383160Y-95603991D01*
X151393548Y-95584555D01*
X151407524Y-95567524D01*
X151424555Y-95553548D01*
X151443991Y-95543160D01*
X151465072Y-95536764D01*
X151493140Y-95534000D01*
X153306860Y-95534000D01*
X153334928Y-95536764D01*
G37*
G36*
X158863512Y-94353927D02*
G01*
X159012812Y-94383624D01*
X159176784Y-94451544D01*
X159324354Y-94550147D01*
X159449853Y-94675646D01*
X159548456Y-94823216D01*
X159616376Y-94987188D01*
X159651000Y-95161259D01*
X159651000Y-95338741D01*
X159616376Y-95512812D01*
X159548456Y-95676784D01*
X159449853Y-95824354D01*
X159324354Y-95949853D01*
X159176784Y-96048456D01*
X159012812Y-96116376D01*
X158869268Y-96144928D01*
X158838742Y-96151000D01*
X158661258Y-96151000D01*
X158630732Y-96144928D01*
X158487188Y-96116376D01*
X158323216Y-96048456D01*
X158175646Y-95949853D01*
X158050147Y-95824354D01*
X157951544Y-95676784D01*
X157883624Y-95512812D01*
X157849000Y-95338741D01*
X157849000Y-95161259D01*
X157883624Y-94987188D01*
X157951544Y-94823216D01*
X158050147Y-94675646D01*
X158175646Y-94550147D01*
X158323216Y-94451544D01*
X158487188Y-94383624D01*
X158636488Y-94353927D01*
X158661258Y-94349000D01*
X158838742Y-94349000D01*
X158863512Y-94353927D01*
G37*
G36*
X161403512Y-94353927D02*
G01*
X161552812Y-94383624D01*
X161716784Y-94451544D01*
X161864354Y-94550147D01*
X161989853Y-94675646D01*
X162088456Y-94823216D01*
X162156376Y-94987188D01*
X162191000Y-95161259D01*
X162191000Y-95338741D01*
X162156376Y-95512812D01*
X162088456Y-95676784D01*
X161989853Y-95824354D01*
X161864354Y-95949853D01*
X161716784Y-96048456D01*
X161552812Y-96116376D01*
X161409268Y-96144928D01*
X161378742Y-96151000D01*
X161201258Y-96151000D01*
X161170732Y-96144928D01*
X161027188Y-96116376D01*
X160863216Y-96048456D01*
X160715646Y-95949853D01*
X160590147Y-95824354D01*
X160491544Y-95676784D01*
X160423624Y-95512812D01*
X160389000Y-95338741D01*
X160389000Y-95161259D01*
X160423624Y-94987188D01*
X160491544Y-94823216D01*
X160590147Y-94675646D01*
X160715646Y-94550147D01*
X160863216Y-94451544D01*
X161027188Y-94383624D01*
X161176488Y-94353927D01*
X161201258Y-94349000D01*
X161378742Y-94349000D01*
X161403512Y-94353927D01*
G37*
G36*
X153334928Y-94266764D02*
G01*
X153356009Y-94273160D01*
X153375445Y-94283548D01*
X153392476Y-94297524D01*
X153406452Y-94314555D01*
X153416840Y-94333991D01*
X153423236Y-94355072D01*
X153426000Y-94383140D01*
X153426000Y-94846860D01*
X153423236Y-94874928D01*
X153416840Y-94896009D01*
X153406452Y-94915445D01*
X153392476Y-94932476D01*
X153375445Y-94946452D01*
X153356009Y-94956840D01*
X153334928Y-94963236D01*
X153306860Y-94966000D01*
X151493140Y-94966000D01*
X151465072Y-94963236D01*
X151443991Y-94956840D01*
X151424555Y-94946452D01*
X151407524Y-94932476D01*
X151393548Y-94915445D01*
X151383160Y-94896009D01*
X151376764Y-94874928D01*
X151374000Y-94846860D01*
X151374000Y-94383140D01*
X151376764Y-94355072D01*
X151383160Y-94333991D01*
X151393548Y-94314555D01*
X151407524Y-94297524D01*
X151424555Y-94283548D01*
X151443991Y-94273160D01*
X151465072Y-94266764D01*
X151493140Y-94264000D01*
X153306860Y-94264000D01*
X153334928Y-94266764D01*
G37*
G36*
X148384928Y-94266764D02*
G01*
X148406009Y-94273160D01*
X148425445Y-94283548D01*
X148442476Y-94297524D01*
X148456452Y-94314555D01*
X148466840Y-94333991D01*
X148473236Y-94355072D01*
X148476000Y-94383140D01*
X148476000Y-94846860D01*
X148473236Y-94874928D01*
X148466840Y-94896009D01*
X148456452Y-94915445D01*
X148442476Y-94932476D01*
X148425445Y-94946452D01*
X148406009Y-94956840D01*
X148384928Y-94963236D01*
X148356860Y-94966000D01*
X146543140Y-94966000D01*
X146515072Y-94963236D01*
X146493991Y-94956840D01*
X146474555Y-94946452D01*
X146457524Y-94932476D01*
X146443548Y-94915445D01*
X146433160Y-94896009D01*
X146426764Y-94874928D01*
X146424000Y-94846860D01*
X146424000Y-94383140D01*
X146426764Y-94355072D01*
X146433160Y-94333991D01*
X146443548Y-94314555D01*
X146457524Y-94297524D01*
X146474555Y-94283548D01*
X146493991Y-94273160D01*
X146515072Y-94266764D01*
X146543140Y-94264000D01*
X148356860Y-94264000D01*
X148384928Y-94266764D01*
G37*
G36*
X153334928Y-92996764D02*
G01*
X153356009Y-93003160D01*
X153375445Y-93013548D01*
X153392476Y-93027524D01*
X153406452Y-93044555D01*
X153416840Y-93063991D01*
X153423236Y-93085072D01*
X153426000Y-93113140D01*
X153426000Y-93576860D01*
X153423236Y-93604928D01*
X153416840Y-93626009D01*
X153406452Y-93645445D01*
X153392476Y-93662476D01*
X153375445Y-93676452D01*
X153356009Y-93686840D01*
X153334928Y-93693236D01*
X153306860Y-93696000D01*
X151493140Y-93696000D01*
X151465072Y-93693236D01*
X151443991Y-93686840D01*
X151424555Y-93676452D01*
X151407524Y-93662476D01*
X151393548Y-93645445D01*
X151383160Y-93626009D01*
X151376764Y-93604928D01*
X151374000Y-93576860D01*
X151374000Y-93113140D01*
X151376764Y-93085072D01*
X151383160Y-93063991D01*
X151393548Y-93044555D01*
X151407524Y-93027524D01*
X151424555Y-93013548D01*
X151443991Y-93003160D01*
X151465072Y-92996764D01*
X151493140Y-92994000D01*
X153306860Y-92994000D01*
X153334928Y-92996764D01*
G37*
G36*
X148384928Y-92996764D02*
G01*
X148406009Y-93003160D01*
X148425445Y-93013548D01*
X148442476Y-93027524D01*
X148456452Y-93044555D01*
X148466840Y-93063991D01*
X148473236Y-93085072D01*
X148476000Y-93113140D01*
X148476000Y-93576860D01*
X148473236Y-93604928D01*
X148466840Y-93626009D01*
X148456452Y-93645445D01*
X148442476Y-93662476D01*
X148425445Y-93676452D01*
X148406009Y-93686840D01*
X148384928Y-93693236D01*
X148356860Y-93696000D01*
X146543140Y-93696000D01*
X146515072Y-93693236D01*
X146493991Y-93686840D01*
X146474555Y-93676452D01*
X146457524Y-93662476D01*
X146443548Y-93645445D01*
X146433160Y-93626009D01*
X146426764Y-93604928D01*
X146424000Y-93576860D01*
X146424000Y-93113140D01*
X146426764Y-93085072D01*
X146433160Y-93063991D01*
X146443548Y-93044555D01*
X146457524Y-93027524D01*
X146474555Y-93013548D01*
X146493991Y-93003160D01*
X146515072Y-92996764D01*
X146543140Y-92994000D01*
X148356860Y-92994000D01*
X148384928Y-92996764D01*
G37*
G36*
X161403512Y-91813927D02*
G01*
X161552812Y-91843624D01*
X161716784Y-91911544D01*
X161864354Y-92010147D01*
X161989853Y-92135646D01*
X162088456Y-92283216D01*
X162156376Y-92447188D01*
X162191000Y-92621259D01*
X162191000Y-92798741D01*
X162156376Y-92972812D01*
X162088456Y-93136784D01*
X161989853Y-93284354D01*
X161864354Y-93409853D01*
X161716784Y-93508456D01*
X161552812Y-93576376D01*
X161409268Y-93604928D01*
X161378742Y-93611000D01*
X161201258Y-93611000D01*
X161170732Y-93604928D01*
X161027188Y-93576376D01*
X160863216Y-93508456D01*
X160715646Y-93409853D01*
X160590147Y-93284354D01*
X160491544Y-93136784D01*
X160423624Y-92972812D01*
X160389000Y-92798741D01*
X160389000Y-92621259D01*
X160423624Y-92447188D01*
X160491544Y-92283216D01*
X160590147Y-92135646D01*
X160715646Y-92010147D01*
X160863216Y-91911544D01*
X161027188Y-91843624D01*
X161176488Y-91813927D01*
X161201258Y-91809000D01*
X161378742Y-91809000D01*
X161403512Y-91813927D01*
G37*
G36*
X158863512Y-91813927D02*
G01*
X159012812Y-91843624D01*
X159176784Y-91911544D01*
X159324354Y-92010147D01*
X159449853Y-92135646D01*
X159548456Y-92283216D01*
X159616376Y-92447188D01*
X159651000Y-92621259D01*
X159651000Y-92798741D01*
X159616376Y-92972812D01*
X159548456Y-93136784D01*
X159449853Y-93284354D01*
X159324354Y-93409853D01*
X159176784Y-93508456D01*
X159012812Y-93576376D01*
X158869268Y-93604928D01*
X158838742Y-93611000D01*
X158661258Y-93611000D01*
X158630732Y-93604928D01*
X158487188Y-93576376D01*
X158323216Y-93508456D01*
X158175646Y-93409853D01*
X158050147Y-93284354D01*
X157951544Y-93136784D01*
X157883624Y-92972812D01*
X157849000Y-92798741D01*
X157849000Y-92621259D01*
X157883624Y-92447188D01*
X157951544Y-92283216D01*
X158050147Y-92135646D01*
X158175646Y-92010147D01*
X158323216Y-91911544D01*
X158487188Y-91843624D01*
X158636488Y-91813927D01*
X158661258Y-91809000D01*
X158838742Y-91809000D01*
X158863512Y-91813927D01*
G37*
G36*
X161403512Y-89273927D02*
G01*
X161552812Y-89303624D01*
X161716784Y-89371544D01*
X161864354Y-89470147D01*
X161989853Y-89595646D01*
X162088456Y-89743216D01*
X162156376Y-89907188D01*
X162191000Y-90081259D01*
X162191000Y-90258741D01*
X162156376Y-90432812D01*
X162088456Y-90596784D01*
X161989853Y-90744354D01*
X161864354Y-90869853D01*
X161716784Y-90968456D01*
X161552812Y-91036376D01*
X161403512Y-91066073D01*
X161378742Y-91071000D01*
X161201258Y-91071000D01*
X161176488Y-91066073D01*
X161027188Y-91036376D01*
X160863216Y-90968456D01*
X160715646Y-90869853D01*
X160590147Y-90744354D01*
X160491544Y-90596784D01*
X160423624Y-90432812D01*
X160389000Y-90258741D01*
X160389000Y-90081259D01*
X160423624Y-89907188D01*
X160491544Y-89743216D01*
X160590147Y-89595646D01*
X160715646Y-89470147D01*
X160863216Y-89371544D01*
X161027188Y-89303624D01*
X161176488Y-89273927D01*
X161201258Y-89269000D01*
X161378742Y-89269000D01*
X161403512Y-89273927D01*
G37*
G36*
X158863512Y-89273927D02*
G01*
X159012812Y-89303624D01*
X159176784Y-89371544D01*
X159324354Y-89470147D01*
X159449853Y-89595646D01*
X159548456Y-89743216D01*
X159616376Y-89907188D01*
X159651000Y-90081259D01*
X159651000Y-90258741D01*
X159616376Y-90432812D01*
X159548456Y-90596784D01*
X159449853Y-90744354D01*
X159324354Y-90869853D01*
X159176784Y-90968456D01*
X159012812Y-91036376D01*
X158863512Y-91066073D01*
X158838742Y-91071000D01*
X158661258Y-91071000D01*
X158636488Y-91066073D01*
X158487188Y-91036376D01*
X158323216Y-90968456D01*
X158175646Y-90869853D01*
X158050147Y-90744354D01*
X157951544Y-90596784D01*
X157883624Y-90432812D01*
X157849000Y-90258741D01*
X157849000Y-90081259D01*
X157883624Y-89907188D01*
X157951544Y-89743216D01*
X158050147Y-89595646D01*
X158175646Y-89470147D01*
X158323216Y-89371544D01*
X158487188Y-89303624D01*
X158636488Y-89273927D01*
X158661258Y-89269000D01*
X158838742Y-89269000D01*
X158863512Y-89273927D01*
G37*
G36*
X145878674Y-89423465D02*
G01*
X145916367Y-89434899D01*
X145951103Y-89453466D01*
X145981548Y-89478452D01*
X146006534Y-89508897D01*
X146025101Y-89543633D01*
X146036535Y-89581326D01*
X146041000Y-89626661D01*
X146041000Y-90713339D01*
X146036535Y-90758674D01*
X146025101Y-90796367D01*
X146006534Y-90831103D01*
X145981548Y-90861548D01*
X145951103Y-90886534D01*
X145916367Y-90905101D01*
X145878674Y-90916535D01*
X145833339Y-90921000D01*
X144996661Y-90921000D01*
X144951326Y-90916535D01*
X144913633Y-90905101D01*
X144878897Y-90886534D01*
X144848452Y-90861548D01*
X144823466Y-90831103D01*
X144804899Y-90796367D01*
X144793465Y-90758674D01*
X144789000Y-90713339D01*
X144789000Y-89626661D01*
X144793465Y-89581326D01*
X144804899Y-89543633D01*
X144823466Y-89508897D01*
X144848452Y-89478452D01*
X144878897Y-89453466D01*
X144913633Y-89434899D01*
X144951326Y-89423465D01*
X144996661Y-89419000D01*
X145833339Y-89419000D01*
X145878674Y-89423465D01*
G37*
G36*
X147928674Y-89423465D02*
G01*
X147966367Y-89434899D01*
X148001103Y-89453466D01*
X148031548Y-89478452D01*
X148056534Y-89508897D01*
X148075101Y-89543633D01*
X148086535Y-89581326D01*
X148091000Y-89626661D01*
X148091000Y-90713339D01*
X148086535Y-90758674D01*
X148075101Y-90796367D01*
X148056534Y-90831103D01*
X148031548Y-90861548D01*
X148001103Y-90886534D01*
X147966367Y-90905101D01*
X147928674Y-90916535D01*
X147883339Y-90921000D01*
X147046661Y-90921000D01*
X147001326Y-90916535D01*
X146963633Y-90905101D01*
X146928897Y-90886534D01*
X146898452Y-90861548D01*
X146873466Y-90831103D01*
X146854899Y-90796367D01*
X146843465Y-90758674D01*
X146839000Y-90713339D01*
X146839000Y-89626661D01*
X146843465Y-89581326D01*
X146854899Y-89543633D01*
X146873466Y-89508897D01*
X146898452Y-89478452D01*
X146928897Y-89453466D01*
X146963633Y-89434899D01*
X147001326Y-89423465D01*
X147046661Y-89419000D01*
X147883339Y-89419000D01*
X147928674Y-89423465D01*
G37*
G36*
X158863512Y-86733927D02*
G01*
X159012812Y-86763624D01*
X159176784Y-86831544D01*
X159324354Y-86930147D01*
X159449853Y-87055646D01*
X159548456Y-87203216D01*
X159616376Y-87367188D01*
X159651000Y-87541259D01*
X159651000Y-87718741D01*
X159616376Y-87892812D01*
X159548456Y-88056784D01*
X159449853Y-88204354D01*
X159324354Y-88329853D01*
X159176784Y-88428456D01*
X159012812Y-88496376D01*
X158863512Y-88526073D01*
X158838742Y-88531000D01*
X158661258Y-88531000D01*
X158636488Y-88526073D01*
X158487188Y-88496376D01*
X158323216Y-88428456D01*
X158175646Y-88329853D01*
X158050147Y-88204354D01*
X157951544Y-88056784D01*
X157883624Y-87892812D01*
X157849000Y-87718741D01*
X157849000Y-87541259D01*
X157883624Y-87367188D01*
X157951544Y-87203216D01*
X158050147Y-87055646D01*
X158175646Y-86930147D01*
X158323216Y-86831544D01*
X158487188Y-86763624D01*
X158636488Y-86733927D01*
X158661258Y-86729000D01*
X158838742Y-86729000D01*
X158863512Y-86733927D01*
G37*
G36*
X161403512Y-86733927D02*
G01*
X161552812Y-86763624D01*
X161716784Y-86831544D01*
X161864354Y-86930147D01*
X161989853Y-87055646D01*
X162088456Y-87203216D01*
X162156376Y-87367188D01*
X162191000Y-87541259D01*
X162191000Y-87718741D01*
X162156376Y-87892812D01*
X162088456Y-88056784D01*
X161989853Y-88204354D01*
X161864354Y-88329853D01*
X161716784Y-88428456D01*
X161552812Y-88496376D01*
X161403512Y-88526073D01*
X161378742Y-88531000D01*
X161201258Y-88531000D01*
X161176488Y-88526073D01*
X161027188Y-88496376D01*
X160863216Y-88428456D01*
X160715646Y-88329853D01*
X160590147Y-88204354D01*
X160491544Y-88056784D01*
X160423624Y-87892812D01*
X160389000Y-87718741D01*
X160389000Y-87541259D01*
X160423624Y-87367188D01*
X160491544Y-87203216D01*
X160590147Y-87055646D01*
X160715646Y-86930147D01*
X160863216Y-86831544D01*
X161027188Y-86763624D01*
X161176488Y-86733927D01*
X161201258Y-86729000D01*
X161378742Y-86729000D01*
X161403512Y-86733927D01*
G37*
G36*
X161403512Y-84193927D02*
G01*
X161552812Y-84223624D01*
X161716784Y-84291544D01*
X161864354Y-84390147D01*
X161989853Y-84515646D01*
X162088456Y-84663216D01*
X162156376Y-84827188D01*
X162191000Y-85001259D01*
X162191000Y-85178741D01*
X162156376Y-85352812D01*
X162088456Y-85516784D01*
X161989853Y-85664354D01*
X161864354Y-85789853D01*
X161716784Y-85888456D01*
X161552812Y-85956376D01*
X161403512Y-85986073D01*
X161378742Y-85991000D01*
X161201258Y-85991000D01*
X161176488Y-85986073D01*
X161027188Y-85956376D01*
X160863216Y-85888456D01*
X160715646Y-85789853D01*
X160590147Y-85664354D01*
X160491544Y-85516784D01*
X160423624Y-85352812D01*
X160389000Y-85178741D01*
X160389000Y-85001259D01*
X160423624Y-84827188D01*
X160491544Y-84663216D01*
X160590147Y-84515646D01*
X160715646Y-84390147D01*
X160863216Y-84291544D01*
X161027188Y-84223624D01*
X161176488Y-84193927D01*
X161201258Y-84189000D01*
X161378742Y-84189000D01*
X161403512Y-84193927D01*
G37*
G36*
X158863512Y-84193927D02*
G01*
X159012812Y-84223624D01*
X159176784Y-84291544D01*
X159324354Y-84390147D01*
X159449853Y-84515646D01*
X159548456Y-84663216D01*
X159616376Y-84827188D01*
X159651000Y-85001259D01*
X159651000Y-85178741D01*
X159616376Y-85352812D01*
X159548456Y-85516784D01*
X159449853Y-85664354D01*
X159324354Y-85789853D01*
X159176784Y-85888456D01*
X159012812Y-85956376D01*
X158863512Y-85986073D01*
X158838742Y-85991000D01*
X158661258Y-85991000D01*
X158636488Y-85986073D01*
X158487188Y-85956376D01*
X158323216Y-85888456D01*
X158175646Y-85789853D01*
X158050147Y-85664354D01*
X157951544Y-85516784D01*
X157883624Y-85352812D01*
X157849000Y-85178741D01*
X157849000Y-85001259D01*
X157883624Y-84827188D01*
X157951544Y-84663216D01*
X158050147Y-84515646D01*
X158175646Y-84390147D01*
X158323216Y-84291544D01*
X158487188Y-84223624D01*
X158636488Y-84193927D01*
X158661258Y-84189000D01*
X158838742Y-84189000D01*
X158863512Y-84193927D01*
G37*
G36*
X161403512Y-81653927D02*
G01*
X161552812Y-81683624D01*
X161716784Y-81751544D01*
X161864354Y-81850147D01*
X161989853Y-81975646D01*
X162088456Y-82123216D01*
X162156376Y-82287188D01*
X162191000Y-82461259D01*
X162191000Y-82638741D01*
X162156376Y-82812812D01*
X162088456Y-82976784D01*
X161989853Y-83124354D01*
X161864354Y-83249853D01*
X161716784Y-83348456D01*
X161552812Y-83416376D01*
X161403512Y-83446073D01*
X161378742Y-83451000D01*
X161201258Y-83451000D01*
X161176488Y-83446073D01*
X161027188Y-83416376D01*
X160863216Y-83348456D01*
X160715646Y-83249853D01*
X160590147Y-83124354D01*
X160491544Y-82976784D01*
X160423624Y-82812812D01*
X160389000Y-82638741D01*
X160389000Y-82461259D01*
X160423624Y-82287188D01*
X160491544Y-82123216D01*
X160590147Y-81975646D01*
X160715646Y-81850147D01*
X160863216Y-81751544D01*
X161027188Y-81683624D01*
X161176488Y-81653927D01*
X161201258Y-81649000D01*
X161378742Y-81649000D01*
X161403512Y-81653927D01*
G37*
G36*
X158863512Y-81653927D02*
G01*
X159012812Y-81683624D01*
X159176784Y-81751544D01*
X159324354Y-81850147D01*
X159449853Y-81975646D01*
X159548456Y-82123216D01*
X159616376Y-82287188D01*
X159651000Y-82461259D01*
X159651000Y-82638741D01*
X159616376Y-82812812D01*
X159548456Y-82976784D01*
X159449853Y-83124354D01*
X159324354Y-83249853D01*
X159176784Y-83348456D01*
X159012812Y-83416376D01*
X158863512Y-83446073D01*
X158838742Y-83451000D01*
X158661258Y-83451000D01*
X158636488Y-83446073D01*
X158487188Y-83416376D01*
X158323216Y-83348456D01*
X158175646Y-83249853D01*
X158050147Y-83124354D01*
X157951544Y-82976784D01*
X157883624Y-82812812D01*
X157849000Y-82638741D01*
X157849000Y-82461259D01*
X157883624Y-82287188D01*
X157951544Y-82123216D01*
X158050147Y-81975646D01*
X158175646Y-81850147D01*
X158323216Y-81751544D01*
X158487188Y-81683624D01*
X158636488Y-81653927D01*
X158661258Y-81649000D01*
X158838742Y-81649000D01*
X158863512Y-81653927D01*
G37*
G36*
X159651000Y-80911000D02*
G01*
X157849000Y-80911000D01*
X157849000Y-79109000D01*
X159651000Y-79109000D01*
X159651000Y-80911000D01*
G37*
G36*
X161403512Y-79113927D02*
G01*
X161552812Y-79143624D01*
X161716784Y-79211544D01*
X161864354Y-79310147D01*
X161989853Y-79435646D01*
X162088456Y-79583216D01*
X162156376Y-79747188D01*
X162191000Y-79921259D01*
X162191000Y-80098741D01*
X162156376Y-80272812D01*
X162088456Y-80436784D01*
X161989853Y-80584354D01*
X161864354Y-80709853D01*
X161716784Y-80808456D01*
X161552812Y-80876376D01*
X161403512Y-80906073D01*
X161378742Y-80911000D01*
X161201258Y-80911000D01*
X161176488Y-80906073D01*
X161027188Y-80876376D01*
X160863216Y-80808456D01*
X160715646Y-80709853D01*
X160590147Y-80584354D01*
X160491544Y-80436784D01*
X160423624Y-80272812D01*
X160389000Y-80098741D01*
X160389000Y-79921259D01*
X160423624Y-79747188D01*
X160491544Y-79583216D01*
X160590147Y-79435646D01*
X160715646Y-79310147D01*
X160863216Y-79211544D01*
X161027188Y-79143624D01*
X161176488Y-79113927D01*
X161201258Y-79109000D01*
X161378742Y-79109000D01*
X161403512Y-79113927D01*
G37*
M02*
