G04 #@! TF.GenerationSoftware,KiCad,Pcbnew,(5.1.4)-1*
G04 #@! TF.CreationDate,2020-08-30T01:02:20+01:00*
G04 #@! TF.ProjectId,KiCadTest,4b694361-6454-4657-9374-2e6b69636164,rev?*
G04 #@! TF.SameCoordinates,Original*
G04 #@! TF.FileFunction,Soldermask,Top*
G04 #@! TF.FilePolarity,Negative*
%FSLAX46Y46*%
G04 Gerber Fmt 4.6, Leading zero omitted, Abs format (unit mm)*
G04 Created by KiCad (PCBNEW (5.1.4)-1) date 2020-08-30 01:02:20*
%MOMM*%
%LPD*%
G04 APERTURE LIST*
%ADD10C,0.100000*%
G04 APERTURE END LIST*
D10*
G36*
X161400443Y-140075519D02*
G01*
X161466627Y-140082037D01*
X161636466Y-140133557D01*
X161792991Y-140217222D01*
X161828729Y-140246552D01*
X161930186Y-140329814D01*
X162013448Y-140431271D01*
X162042778Y-140467009D01*
X162126443Y-140623534D01*
X162177963Y-140793373D01*
X162195359Y-140970000D01*
X162177963Y-141146627D01*
X162126443Y-141316466D01*
X162042778Y-141472991D01*
X162013448Y-141508729D01*
X161930186Y-141610186D01*
X161828729Y-141693448D01*
X161792991Y-141722778D01*
X161636466Y-141806443D01*
X161466627Y-141857963D01*
X161400443Y-141864481D01*
X161334260Y-141871000D01*
X161245740Y-141871000D01*
X161179557Y-141864481D01*
X161113373Y-141857963D01*
X160943534Y-141806443D01*
X160787009Y-141722778D01*
X160751271Y-141693448D01*
X160649814Y-141610186D01*
X160566552Y-141508729D01*
X160537222Y-141472991D01*
X160453557Y-141316466D01*
X160402037Y-141146627D01*
X160384641Y-140970000D01*
X160402037Y-140793373D01*
X160453557Y-140623534D01*
X160537222Y-140467009D01*
X160566552Y-140431271D01*
X160649814Y-140329814D01*
X160751271Y-140246552D01*
X160787009Y-140217222D01*
X160943534Y-140133557D01*
X161113373Y-140082037D01*
X161179557Y-140075519D01*
X161245740Y-140069000D01*
X161334260Y-140069000D01*
X161400443Y-140075519D01*
X161400443Y-140075519D01*
G37*
G36*
X158860443Y-140075519D02*
G01*
X158926627Y-140082037D01*
X159096466Y-140133557D01*
X159252991Y-140217222D01*
X159288729Y-140246552D01*
X159390186Y-140329814D01*
X159473448Y-140431271D01*
X159502778Y-140467009D01*
X159586443Y-140623534D01*
X159637963Y-140793373D01*
X159655359Y-140970000D01*
X159637963Y-141146627D01*
X159586443Y-141316466D01*
X159502778Y-141472991D01*
X159473448Y-141508729D01*
X159390186Y-141610186D01*
X159288729Y-141693448D01*
X159252991Y-141722778D01*
X159096466Y-141806443D01*
X158926627Y-141857963D01*
X158860443Y-141864481D01*
X158794260Y-141871000D01*
X158705740Y-141871000D01*
X158639557Y-141864481D01*
X158573373Y-141857963D01*
X158403534Y-141806443D01*
X158247009Y-141722778D01*
X158211271Y-141693448D01*
X158109814Y-141610186D01*
X158026552Y-141508729D01*
X157997222Y-141472991D01*
X157913557Y-141316466D01*
X157862037Y-141146627D01*
X157844641Y-140970000D01*
X157862037Y-140793373D01*
X157913557Y-140623534D01*
X157997222Y-140467009D01*
X158026552Y-140431271D01*
X158109814Y-140329814D01*
X158211271Y-140246552D01*
X158247009Y-140217222D01*
X158403534Y-140133557D01*
X158573373Y-140082037D01*
X158639557Y-140075519D01*
X158705740Y-140069000D01*
X158794260Y-140069000D01*
X158860443Y-140075519D01*
X158860443Y-140075519D01*
G37*
G36*
X161400443Y-137535519D02*
G01*
X161466627Y-137542037D01*
X161636466Y-137593557D01*
X161792991Y-137677222D01*
X161828729Y-137706552D01*
X161930186Y-137789814D01*
X162013448Y-137891271D01*
X162042778Y-137927009D01*
X162126443Y-138083534D01*
X162177963Y-138253373D01*
X162195359Y-138430000D01*
X162177963Y-138606627D01*
X162126443Y-138776466D01*
X162042778Y-138932991D01*
X162013448Y-138968729D01*
X161930186Y-139070186D01*
X161828729Y-139153448D01*
X161792991Y-139182778D01*
X161636466Y-139266443D01*
X161466627Y-139317963D01*
X161400443Y-139324481D01*
X161334260Y-139331000D01*
X161245740Y-139331000D01*
X161179557Y-139324481D01*
X161113373Y-139317963D01*
X160943534Y-139266443D01*
X160787009Y-139182778D01*
X160751271Y-139153448D01*
X160649814Y-139070186D01*
X160566552Y-138968729D01*
X160537222Y-138932991D01*
X160453557Y-138776466D01*
X160402037Y-138606627D01*
X160384641Y-138430000D01*
X160402037Y-138253373D01*
X160453557Y-138083534D01*
X160537222Y-137927009D01*
X160566552Y-137891271D01*
X160649814Y-137789814D01*
X160751271Y-137706552D01*
X160787009Y-137677222D01*
X160943534Y-137593557D01*
X161113373Y-137542037D01*
X161179557Y-137535519D01*
X161245740Y-137529000D01*
X161334260Y-137529000D01*
X161400443Y-137535519D01*
X161400443Y-137535519D01*
G37*
G36*
X158860443Y-137535519D02*
G01*
X158926627Y-137542037D01*
X159096466Y-137593557D01*
X159252991Y-137677222D01*
X159288729Y-137706552D01*
X159390186Y-137789814D01*
X159473448Y-137891271D01*
X159502778Y-137927009D01*
X159586443Y-138083534D01*
X159637963Y-138253373D01*
X159655359Y-138430000D01*
X159637963Y-138606627D01*
X159586443Y-138776466D01*
X159502778Y-138932991D01*
X159473448Y-138968729D01*
X159390186Y-139070186D01*
X159288729Y-139153448D01*
X159252991Y-139182778D01*
X159096466Y-139266443D01*
X158926627Y-139317963D01*
X158860443Y-139324481D01*
X158794260Y-139331000D01*
X158705740Y-139331000D01*
X158639557Y-139324481D01*
X158573373Y-139317963D01*
X158403534Y-139266443D01*
X158247009Y-139182778D01*
X158211271Y-139153448D01*
X158109814Y-139070186D01*
X158026552Y-138968729D01*
X157997222Y-138932991D01*
X157913557Y-138776466D01*
X157862037Y-138606627D01*
X157844641Y-138430000D01*
X157862037Y-138253373D01*
X157913557Y-138083534D01*
X157997222Y-137927009D01*
X158026552Y-137891271D01*
X158109814Y-137789814D01*
X158211271Y-137706552D01*
X158247009Y-137677222D01*
X158403534Y-137593557D01*
X158573373Y-137542037D01*
X158639557Y-137535519D01*
X158705740Y-137529000D01*
X158794260Y-137529000D01*
X158860443Y-137535519D01*
X158860443Y-137535519D01*
G37*
G36*
X161400442Y-134995518D02*
G01*
X161466627Y-135002037D01*
X161636466Y-135053557D01*
X161792991Y-135137222D01*
X161828729Y-135166552D01*
X161930186Y-135249814D01*
X162013448Y-135351271D01*
X162042778Y-135387009D01*
X162126443Y-135543534D01*
X162177963Y-135713373D01*
X162195359Y-135890000D01*
X162177963Y-136066627D01*
X162126443Y-136236466D01*
X162042778Y-136392991D01*
X162013448Y-136428729D01*
X161930186Y-136530186D01*
X161828729Y-136613448D01*
X161792991Y-136642778D01*
X161636466Y-136726443D01*
X161466627Y-136777963D01*
X161400442Y-136784482D01*
X161334260Y-136791000D01*
X161245740Y-136791000D01*
X161179558Y-136784482D01*
X161113373Y-136777963D01*
X160943534Y-136726443D01*
X160787009Y-136642778D01*
X160751271Y-136613448D01*
X160649814Y-136530186D01*
X160566552Y-136428729D01*
X160537222Y-136392991D01*
X160453557Y-136236466D01*
X160402037Y-136066627D01*
X160384641Y-135890000D01*
X160402037Y-135713373D01*
X160453557Y-135543534D01*
X160537222Y-135387009D01*
X160566552Y-135351271D01*
X160649814Y-135249814D01*
X160751271Y-135166552D01*
X160787009Y-135137222D01*
X160943534Y-135053557D01*
X161113373Y-135002037D01*
X161179558Y-134995518D01*
X161245740Y-134989000D01*
X161334260Y-134989000D01*
X161400442Y-134995518D01*
X161400442Y-134995518D01*
G37*
G36*
X158860442Y-134995518D02*
G01*
X158926627Y-135002037D01*
X159096466Y-135053557D01*
X159252991Y-135137222D01*
X159288729Y-135166552D01*
X159390186Y-135249814D01*
X159473448Y-135351271D01*
X159502778Y-135387009D01*
X159586443Y-135543534D01*
X159637963Y-135713373D01*
X159655359Y-135890000D01*
X159637963Y-136066627D01*
X159586443Y-136236466D01*
X159502778Y-136392991D01*
X159473448Y-136428729D01*
X159390186Y-136530186D01*
X159288729Y-136613448D01*
X159252991Y-136642778D01*
X159096466Y-136726443D01*
X158926627Y-136777963D01*
X158860442Y-136784482D01*
X158794260Y-136791000D01*
X158705740Y-136791000D01*
X158639558Y-136784482D01*
X158573373Y-136777963D01*
X158403534Y-136726443D01*
X158247009Y-136642778D01*
X158211271Y-136613448D01*
X158109814Y-136530186D01*
X158026552Y-136428729D01*
X157997222Y-136392991D01*
X157913557Y-136236466D01*
X157862037Y-136066627D01*
X157844641Y-135890000D01*
X157862037Y-135713373D01*
X157913557Y-135543534D01*
X157997222Y-135387009D01*
X158026552Y-135351271D01*
X158109814Y-135249814D01*
X158211271Y-135166552D01*
X158247009Y-135137222D01*
X158403534Y-135053557D01*
X158573373Y-135002037D01*
X158639558Y-134995518D01*
X158705740Y-134989000D01*
X158794260Y-134989000D01*
X158860442Y-134995518D01*
X158860442Y-134995518D01*
G37*
G36*
X158860442Y-132455518D02*
G01*
X158926627Y-132462037D01*
X159096466Y-132513557D01*
X159252991Y-132597222D01*
X159288729Y-132626552D01*
X159390186Y-132709814D01*
X159473448Y-132811271D01*
X159502778Y-132847009D01*
X159586443Y-133003534D01*
X159637963Y-133173373D01*
X159655359Y-133350000D01*
X159637963Y-133526627D01*
X159586443Y-133696466D01*
X159502778Y-133852991D01*
X159473448Y-133888729D01*
X159390186Y-133990186D01*
X159288729Y-134073448D01*
X159252991Y-134102778D01*
X159096466Y-134186443D01*
X158926627Y-134237963D01*
X158860443Y-134244481D01*
X158794260Y-134251000D01*
X158705740Y-134251000D01*
X158639557Y-134244481D01*
X158573373Y-134237963D01*
X158403534Y-134186443D01*
X158247009Y-134102778D01*
X158211271Y-134073448D01*
X158109814Y-133990186D01*
X158026552Y-133888729D01*
X157997222Y-133852991D01*
X157913557Y-133696466D01*
X157862037Y-133526627D01*
X157844641Y-133350000D01*
X157862037Y-133173373D01*
X157913557Y-133003534D01*
X157997222Y-132847009D01*
X158026552Y-132811271D01*
X158109814Y-132709814D01*
X158211271Y-132626552D01*
X158247009Y-132597222D01*
X158403534Y-132513557D01*
X158573373Y-132462037D01*
X158639558Y-132455518D01*
X158705740Y-132449000D01*
X158794260Y-132449000D01*
X158860442Y-132455518D01*
X158860442Y-132455518D01*
G37*
G36*
X161400442Y-132455518D02*
G01*
X161466627Y-132462037D01*
X161636466Y-132513557D01*
X161792991Y-132597222D01*
X161828729Y-132626552D01*
X161930186Y-132709814D01*
X162013448Y-132811271D01*
X162042778Y-132847009D01*
X162126443Y-133003534D01*
X162177963Y-133173373D01*
X162195359Y-133350000D01*
X162177963Y-133526627D01*
X162126443Y-133696466D01*
X162042778Y-133852991D01*
X162013448Y-133888729D01*
X161930186Y-133990186D01*
X161828729Y-134073448D01*
X161792991Y-134102778D01*
X161636466Y-134186443D01*
X161466627Y-134237963D01*
X161400443Y-134244481D01*
X161334260Y-134251000D01*
X161245740Y-134251000D01*
X161179557Y-134244481D01*
X161113373Y-134237963D01*
X160943534Y-134186443D01*
X160787009Y-134102778D01*
X160751271Y-134073448D01*
X160649814Y-133990186D01*
X160566552Y-133888729D01*
X160537222Y-133852991D01*
X160453557Y-133696466D01*
X160402037Y-133526627D01*
X160384641Y-133350000D01*
X160402037Y-133173373D01*
X160453557Y-133003534D01*
X160537222Y-132847009D01*
X160566552Y-132811271D01*
X160649814Y-132709814D01*
X160751271Y-132626552D01*
X160787009Y-132597222D01*
X160943534Y-132513557D01*
X161113373Y-132462037D01*
X161179558Y-132455518D01*
X161245740Y-132449000D01*
X161334260Y-132449000D01*
X161400442Y-132455518D01*
X161400442Y-132455518D01*
G37*
G36*
X158860442Y-129915518D02*
G01*
X158926627Y-129922037D01*
X159096466Y-129973557D01*
X159252991Y-130057222D01*
X159288729Y-130086552D01*
X159390186Y-130169814D01*
X159473448Y-130271271D01*
X159502778Y-130307009D01*
X159586443Y-130463534D01*
X159637963Y-130633373D01*
X159655359Y-130810000D01*
X159637963Y-130986627D01*
X159586443Y-131156466D01*
X159502778Y-131312991D01*
X159473448Y-131348729D01*
X159390186Y-131450186D01*
X159288729Y-131533448D01*
X159252991Y-131562778D01*
X159096466Y-131646443D01*
X158926627Y-131697963D01*
X158860443Y-131704481D01*
X158794260Y-131711000D01*
X158705740Y-131711000D01*
X158639557Y-131704481D01*
X158573373Y-131697963D01*
X158403534Y-131646443D01*
X158247009Y-131562778D01*
X158211271Y-131533448D01*
X158109814Y-131450186D01*
X158026552Y-131348729D01*
X157997222Y-131312991D01*
X157913557Y-131156466D01*
X157862037Y-130986627D01*
X157844641Y-130810000D01*
X157862037Y-130633373D01*
X157913557Y-130463534D01*
X157997222Y-130307009D01*
X158026552Y-130271271D01*
X158109814Y-130169814D01*
X158211271Y-130086552D01*
X158247009Y-130057222D01*
X158403534Y-129973557D01*
X158573373Y-129922037D01*
X158639558Y-129915518D01*
X158705740Y-129909000D01*
X158794260Y-129909000D01*
X158860442Y-129915518D01*
X158860442Y-129915518D01*
G37*
G36*
X161400442Y-129915518D02*
G01*
X161466627Y-129922037D01*
X161636466Y-129973557D01*
X161792991Y-130057222D01*
X161828729Y-130086552D01*
X161930186Y-130169814D01*
X162013448Y-130271271D01*
X162042778Y-130307009D01*
X162126443Y-130463534D01*
X162177963Y-130633373D01*
X162195359Y-130810000D01*
X162177963Y-130986627D01*
X162126443Y-131156466D01*
X162042778Y-131312991D01*
X162013448Y-131348729D01*
X161930186Y-131450186D01*
X161828729Y-131533448D01*
X161792991Y-131562778D01*
X161636466Y-131646443D01*
X161466627Y-131697963D01*
X161400443Y-131704481D01*
X161334260Y-131711000D01*
X161245740Y-131711000D01*
X161179557Y-131704481D01*
X161113373Y-131697963D01*
X160943534Y-131646443D01*
X160787009Y-131562778D01*
X160751271Y-131533448D01*
X160649814Y-131450186D01*
X160566552Y-131348729D01*
X160537222Y-131312991D01*
X160453557Y-131156466D01*
X160402037Y-130986627D01*
X160384641Y-130810000D01*
X160402037Y-130633373D01*
X160453557Y-130463534D01*
X160537222Y-130307009D01*
X160566552Y-130271271D01*
X160649814Y-130169814D01*
X160751271Y-130086552D01*
X160787009Y-130057222D01*
X160943534Y-129973557D01*
X161113373Y-129922037D01*
X161179558Y-129915518D01*
X161245740Y-129909000D01*
X161334260Y-129909000D01*
X161400442Y-129915518D01*
X161400442Y-129915518D01*
G37*
G36*
X152064928Y-128556764D02*
G01*
X152086009Y-128563160D01*
X152105445Y-128573548D01*
X152122476Y-128587524D01*
X152136452Y-128604555D01*
X152146840Y-128623991D01*
X152153236Y-128645072D01*
X152156000Y-128673140D01*
X152156000Y-129136860D01*
X152153236Y-129164928D01*
X152146840Y-129186009D01*
X152136452Y-129205445D01*
X152122476Y-129222476D01*
X152105445Y-129236452D01*
X152086009Y-129246840D01*
X152064928Y-129253236D01*
X152036860Y-129256000D01*
X150223140Y-129256000D01*
X150195072Y-129253236D01*
X150173991Y-129246840D01*
X150154555Y-129236452D01*
X150137524Y-129222476D01*
X150123548Y-129205445D01*
X150113160Y-129186009D01*
X150106764Y-129164928D01*
X150104000Y-129136860D01*
X150104000Y-128673140D01*
X150106764Y-128645072D01*
X150113160Y-128623991D01*
X150123548Y-128604555D01*
X150137524Y-128587524D01*
X150154555Y-128573548D01*
X150173991Y-128563160D01*
X150195072Y-128556764D01*
X150223140Y-128554000D01*
X152036860Y-128554000D01*
X152064928Y-128556764D01*
X152064928Y-128556764D01*
G37*
G36*
X147114928Y-128556764D02*
G01*
X147136009Y-128563160D01*
X147155445Y-128573548D01*
X147172476Y-128587524D01*
X147186452Y-128604555D01*
X147196840Y-128623991D01*
X147203236Y-128645072D01*
X147206000Y-128673140D01*
X147206000Y-129136860D01*
X147203236Y-129164928D01*
X147196840Y-129186009D01*
X147186452Y-129205445D01*
X147172476Y-129222476D01*
X147155445Y-129236452D01*
X147136009Y-129246840D01*
X147114928Y-129253236D01*
X147086860Y-129256000D01*
X145273140Y-129256000D01*
X145245072Y-129253236D01*
X145223991Y-129246840D01*
X145204555Y-129236452D01*
X145187524Y-129222476D01*
X145173548Y-129205445D01*
X145163160Y-129186009D01*
X145156764Y-129164928D01*
X145154000Y-129136860D01*
X145154000Y-128673140D01*
X145156764Y-128645072D01*
X145163160Y-128623991D01*
X145173548Y-128604555D01*
X145187524Y-128587524D01*
X145204555Y-128573548D01*
X145223991Y-128563160D01*
X145245072Y-128556764D01*
X145273140Y-128554000D01*
X147086860Y-128554000D01*
X147114928Y-128556764D01*
X147114928Y-128556764D01*
G37*
G36*
X158855909Y-127375072D02*
G01*
X158926627Y-127382037D01*
X159096466Y-127433557D01*
X159252991Y-127517222D01*
X159288729Y-127546552D01*
X159390186Y-127629814D01*
X159473448Y-127731271D01*
X159502778Y-127767009D01*
X159586443Y-127923534D01*
X159637963Y-128093373D01*
X159655359Y-128270000D01*
X159637963Y-128446627D01*
X159586443Y-128616466D01*
X159502778Y-128772991D01*
X159473448Y-128808729D01*
X159390186Y-128910186D01*
X159288729Y-128993448D01*
X159252991Y-129022778D01*
X159096466Y-129106443D01*
X158926627Y-129157963D01*
X158860442Y-129164482D01*
X158794260Y-129171000D01*
X158705740Y-129171000D01*
X158639558Y-129164482D01*
X158573373Y-129157963D01*
X158403534Y-129106443D01*
X158247009Y-129022778D01*
X158211271Y-128993448D01*
X158109814Y-128910186D01*
X158026552Y-128808729D01*
X157997222Y-128772991D01*
X157913557Y-128616466D01*
X157862037Y-128446627D01*
X157844641Y-128270000D01*
X157862037Y-128093373D01*
X157913557Y-127923534D01*
X157997222Y-127767009D01*
X158026552Y-127731271D01*
X158109814Y-127629814D01*
X158211271Y-127546552D01*
X158247009Y-127517222D01*
X158403534Y-127433557D01*
X158573373Y-127382037D01*
X158644091Y-127375072D01*
X158705740Y-127369000D01*
X158794260Y-127369000D01*
X158855909Y-127375072D01*
X158855909Y-127375072D01*
G37*
G36*
X161395909Y-127375072D02*
G01*
X161466627Y-127382037D01*
X161636466Y-127433557D01*
X161792991Y-127517222D01*
X161828729Y-127546552D01*
X161930186Y-127629814D01*
X162013448Y-127731271D01*
X162042778Y-127767009D01*
X162126443Y-127923534D01*
X162177963Y-128093373D01*
X162195359Y-128270000D01*
X162177963Y-128446627D01*
X162126443Y-128616466D01*
X162042778Y-128772991D01*
X162013448Y-128808729D01*
X161930186Y-128910186D01*
X161828729Y-128993448D01*
X161792991Y-129022778D01*
X161636466Y-129106443D01*
X161466627Y-129157963D01*
X161400442Y-129164482D01*
X161334260Y-129171000D01*
X161245740Y-129171000D01*
X161179558Y-129164482D01*
X161113373Y-129157963D01*
X160943534Y-129106443D01*
X160787009Y-129022778D01*
X160751271Y-128993448D01*
X160649814Y-128910186D01*
X160566552Y-128808729D01*
X160537222Y-128772991D01*
X160453557Y-128616466D01*
X160402037Y-128446627D01*
X160384641Y-128270000D01*
X160402037Y-128093373D01*
X160453557Y-127923534D01*
X160537222Y-127767009D01*
X160566552Y-127731271D01*
X160649814Y-127629814D01*
X160751271Y-127546552D01*
X160787009Y-127517222D01*
X160943534Y-127433557D01*
X161113373Y-127382037D01*
X161184091Y-127375072D01*
X161245740Y-127369000D01*
X161334260Y-127369000D01*
X161395909Y-127375072D01*
X161395909Y-127375072D01*
G37*
G36*
X152064928Y-127286764D02*
G01*
X152086009Y-127293160D01*
X152105445Y-127303548D01*
X152122476Y-127317524D01*
X152136452Y-127334555D01*
X152146840Y-127353991D01*
X152153236Y-127375072D01*
X152156000Y-127403140D01*
X152156000Y-127866860D01*
X152153236Y-127894928D01*
X152146840Y-127916009D01*
X152136452Y-127935445D01*
X152122476Y-127952476D01*
X152105445Y-127966452D01*
X152086009Y-127976840D01*
X152064928Y-127983236D01*
X152036860Y-127986000D01*
X150223140Y-127986000D01*
X150195072Y-127983236D01*
X150173991Y-127976840D01*
X150154555Y-127966452D01*
X150137524Y-127952476D01*
X150123548Y-127935445D01*
X150113160Y-127916009D01*
X150106764Y-127894928D01*
X150104000Y-127866860D01*
X150104000Y-127403140D01*
X150106764Y-127375072D01*
X150113160Y-127353991D01*
X150123548Y-127334555D01*
X150137524Y-127317524D01*
X150154555Y-127303548D01*
X150173991Y-127293160D01*
X150195072Y-127286764D01*
X150223140Y-127284000D01*
X152036860Y-127284000D01*
X152064928Y-127286764D01*
X152064928Y-127286764D01*
G37*
G36*
X147114928Y-127286764D02*
G01*
X147136009Y-127293160D01*
X147155445Y-127303548D01*
X147172476Y-127317524D01*
X147186452Y-127334555D01*
X147196840Y-127353991D01*
X147203236Y-127375072D01*
X147206000Y-127403140D01*
X147206000Y-127866860D01*
X147203236Y-127894928D01*
X147196840Y-127916009D01*
X147186452Y-127935445D01*
X147172476Y-127952476D01*
X147155445Y-127966452D01*
X147136009Y-127976840D01*
X147114928Y-127983236D01*
X147086860Y-127986000D01*
X145273140Y-127986000D01*
X145245072Y-127983236D01*
X145223991Y-127976840D01*
X145204555Y-127966452D01*
X145187524Y-127952476D01*
X145173548Y-127935445D01*
X145163160Y-127916009D01*
X145156764Y-127894928D01*
X145154000Y-127866860D01*
X145154000Y-127403140D01*
X145156764Y-127375072D01*
X145163160Y-127353991D01*
X145173548Y-127334555D01*
X145187524Y-127317524D01*
X145204555Y-127303548D01*
X145223991Y-127293160D01*
X145245072Y-127286764D01*
X145273140Y-127284000D01*
X147086860Y-127284000D01*
X147114928Y-127286764D01*
X147114928Y-127286764D01*
G37*
G36*
X152064928Y-126016764D02*
G01*
X152086009Y-126023160D01*
X152105445Y-126033548D01*
X152122476Y-126047524D01*
X152136452Y-126064555D01*
X152146840Y-126083991D01*
X152153236Y-126105072D01*
X152156000Y-126133140D01*
X152156000Y-126596860D01*
X152153236Y-126624928D01*
X152146840Y-126646009D01*
X152136452Y-126665445D01*
X152122476Y-126682476D01*
X152105445Y-126696452D01*
X152086009Y-126706840D01*
X152064928Y-126713236D01*
X152036860Y-126716000D01*
X150223140Y-126716000D01*
X150195072Y-126713236D01*
X150173991Y-126706840D01*
X150154555Y-126696452D01*
X150137524Y-126682476D01*
X150123548Y-126665445D01*
X150113160Y-126646009D01*
X150106764Y-126624928D01*
X150104000Y-126596860D01*
X150104000Y-126133140D01*
X150106764Y-126105072D01*
X150113160Y-126083991D01*
X150123548Y-126064555D01*
X150137524Y-126047524D01*
X150154555Y-126033548D01*
X150173991Y-126023160D01*
X150195072Y-126016764D01*
X150223140Y-126014000D01*
X152036860Y-126014000D01*
X152064928Y-126016764D01*
X152064928Y-126016764D01*
G37*
G36*
X147114928Y-126016764D02*
G01*
X147136009Y-126023160D01*
X147155445Y-126033548D01*
X147172476Y-126047524D01*
X147186452Y-126064555D01*
X147196840Y-126083991D01*
X147203236Y-126105072D01*
X147206000Y-126133140D01*
X147206000Y-126596860D01*
X147203236Y-126624928D01*
X147196840Y-126646009D01*
X147186452Y-126665445D01*
X147172476Y-126682476D01*
X147155445Y-126696452D01*
X147136009Y-126706840D01*
X147114928Y-126713236D01*
X147086860Y-126716000D01*
X145273140Y-126716000D01*
X145245072Y-126713236D01*
X145223991Y-126706840D01*
X145204555Y-126696452D01*
X145187524Y-126682476D01*
X145173548Y-126665445D01*
X145163160Y-126646009D01*
X145156764Y-126624928D01*
X145154000Y-126596860D01*
X145154000Y-126133140D01*
X145156764Y-126105072D01*
X145163160Y-126083991D01*
X145173548Y-126064555D01*
X145187524Y-126047524D01*
X145204555Y-126033548D01*
X145223991Y-126023160D01*
X145245072Y-126016764D01*
X145273140Y-126014000D01*
X147086860Y-126014000D01*
X147114928Y-126016764D01*
X147114928Y-126016764D01*
G37*
G36*
X161395909Y-124835072D02*
G01*
X161466627Y-124842037D01*
X161636466Y-124893557D01*
X161792991Y-124977222D01*
X161828729Y-125006552D01*
X161930186Y-125089814D01*
X162013448Y-125191271D01*
X162042778Y-125227009D01*
X162126443Y-125383534D01*
X162177963Y-125553373D01*
X162195359Y-125730000D01*
X162177963Y-125906627D01*
X162126443Y-126076466D01*
X162042778Y-126232991D01*
X162013448Y-126268729D01*
X161930186Y-126370186D01*
X161828729Y-126453448D01*
X161792991Y-126482778D01*
X161636466Y-126566443D01*
X161466627Y-126617963D01*
X161400442Y-126624482D01*
X161334260Y-126631000D01*
X161245740Y-126631000D01*
X161179558Y-126624482D01*
X161113373Y-126617963D01*
X160943534Y-126566443D01*
X160787009Y-126482778D01*
X160751271Y-126453448D01*
X160649814Y-126370186D01*
X160566552Y-126268729D01*
X160537222Y-126232991D01*
X160453557Y-126076466D01*
X160402037Y-125906627D01*
X160384641Y-125730000D01*
X160402037Y-125553373D01*
X160453557Y-125383534D01*
X160537222Y-125227009D01*
X160566552Y-125191271D01*
X160649814Y-125089814D01*
X160751271Y-125006552D01*
X160787009Y-124977222D01*
X160943534Y-124893557D01*
X161113373Y-124842037D01*
X161184091Y-124835072D01*
X161245740Y-124829000D01*
X161334260Y-124829000D01*
X161395909Y-124835072D01*
X161395909Y-124835072D01*
G37*
G36*
X158855909Y-124835072D02*
G01*
X158926627Y-124842037D01*
X159096466Y-124893557D01*
X159252991Y-124977222D01*
X159288729Y-125006552D01*
X159390186Y-125089814D01*
X159473448Y-125191271D01*
X159502778Y-125227009D01*
X159586443Y-125383534D01*
X159637963Y-125553373D01*
X159655359Y-125730000D01*
X159637963Y-125906627D01*
X159586443Y-126076466D01*
X159502778Y-126232991D01*
X159473448Y-126268729D01*
X159390186Y-126370186D01*
X159288729Y-126453448D01*
X159252991Y-126482778D01*
X159096466Y-126566443D01*
X158926627Y-126617963D01*
X158860442Y-126624482D01*
X158794260Y-126631000D01*
X158705740Y-126631000D01*
X158639558Y-126624482D01*
X158573373Y-126617963D01*
X158403534Y-126566443D01*
X158247009Y-126482778D01*
X158211271Y-126453448D01*
X158109814Y-126370186D01*
X158026552Y-126268729D01*
X157997222Y-126232991D01*
X157913557Y-126076466D01*
X157862037Y-125906627D01*
X157844641Y-125730000D01*
X157862037Y-125553373D01*
X157913557Y-125383534D01*
X157997222Y-125227009D01*
X158026552Y-125191271D01*
X158109814Y-125089814D01*
X158211271Y-125006552D01*
X158247009Y-124977222D01*
X158403534Y-124893557D01*
X158573373Y-124842037D01*
X158644091Y-124835072D01*
X158705740Y-124829000D01*
X158794260Y-124829000D01*
X158855909Y-124835072D01*
X158855909Y-124835072D01*
G37*
G36*
X147114928Y-124746764D02*
G01*
X147136009Y-124753160D01*
X147155445Y-124763548D01*
X147172476Y-124777524D01*
X147186452Y-124794555D01*
X147196840Y-124813991D01*
X147203236Y-124835072D01*
X147206000Y-124863140D01*
X147206000Y-125326860D01*
X147203236Y-125354928D01*
X147196840Y-125376009D01*
X147186452Y-125395445D01*
X147172476Y-125412476D01*
X147155445Y-125426452D01*
X147136009Y-125436840D01*
X147114928Y-125443236D01*
X147086860Y-125446000D01*
X145273140Y-125446000D01*
X145245072Y-125443236D01*
X145223991Y-125436840D01*
X145204555Y-125426452D01*
X145187524Y-125412476D01*
X145173548Y-125395445D01*
X145163160Y-125376009D01*
X145156764Y-125354928D01*
X145154000Y-125326860D01*
X145154000Y-124863140D01*
X145156764Y-124835072D01*
X145163160Y-124813991D01*
X145173548Y-124794555D01*
X145187524Y-124777524D01*
X145204555Y-124763548D01*
X145223991Y-124753160D01*
X145245072Y-124746764D01*
X145273140Y-124744000D01*
X147086860Y-124744000D01*
X147114928Y-124746764D01*
X147114928Y-124746764D01*
G37*
G36*
X152064928Y-124746764D02*
G01*
X152086009Y-124753160D01*
X152105445Y-124763548D01*
X152122476Y-124777524D01*
X152136452Y-124794555D01*
X152146840Y-124813991D01*
X152153236Y-124835072D01*
X152156000Y-124863140D01*
X152156000Y-125326860D01*
X152153236Y-125354928D01*
X152146840Y-125376009D01*
X152136452Y-125395445D01*
X152122476Y-125412476D01*
X152105445Y-125426452D01*
X152086009Y-125436840D01*
X152064928Y-125443236D01*
X152036860Y-125446000D01*
X150223140Y-125446000D01*
X150195072Y-125443236D01*
X150173991Y-125436840D01*
X150154555Y-125426452D01*
X150137524Y-125412476D01*
X150123548Y-125395445D01*
X150113160Y-125376009D01*
X150106764Y-125354928D01*
X150104000Y-125326860D01*
X150104000Y-124863140D01*
X150106764Y-124835072D01*
X150113160Y-124813991D01*
X150123548Y-124794555D01*
X150137524Y-124777524D01*
X150154555Y-124763548D01*
X150173991Y-124753160D01*
X150195072Y-124746764D01*
X150223140Y-124744000D01*
X152036860Y-124744000D01*
X152064928Y-124746764D01*
X152064928Y-124746764D01*
G37*
G36*
X158860443Y-122295519D02*
G01*
X158926627Y-122302037D01*
X159096466Y-122353557D01*
X159252991Y-122437222D01*
X159284814Y-122463339D01*
X159390186Y-122549814D01*
X159451996Y-122625131D01*
X159502778Y-122687009D01*
X159586443Y-122843534D01*
X159637963Y-123013373D01*
X159655359Y-123190000D01*
X159637963Y-123366627D01*
X159586443Y-123536466D01*
X159502778Y-123692991D01*
X159473448Y-123728729D01*
X159390186Y-123830186D01*
X159288729Y-123913448D01*
X159252991Y-123942778D01*
X159096466Y-124026443D01*
X158926627Y-124077963D01*
X158860442Y-124084482D01*
X158794260Y-124091000D01*
X158705740Y-124091000D01*
X158639558Y-124084482D01*
X158573373Y-124077963D01*
X158403534Y-124026443D01*
X158247009Y-123942778D01*
X158211271Y-123913448D01*
X158109814Y-123830186D01*
X158026552Y-123728729D01*
X157997222Y-123692991D01*
X157913557Y-123536466D01*
X157862037Y-123366627D01*
X157844641Y-123190000D01*
X157862037Y-123013373D01*
X157913557Y-122843534D01*
X157997222Y-122687009D01*
X158048004Y-122625131D01*
X158109814Y-122549814D01*
X158215186Y-122463339D01*
X158247009Y-122437222D01*
X158403534Y-122353557D01*
X158573373Y-122302037D01*
X158639557Y-122295519D01*
X158705740Y-122289000D01*
X158794260Y-122289000D01*
X158860443Y-122295519D01*
X158860443Y-122295519D01*
G37*
G36*
X161400443Y-122295519D02*
G01*
X161466627Y-122302037D01*
X161636466Y-122353557D01*
X161792991Y-122437222D01*
X161824814Y-122463339D01*
X161930186Y-122549814D01*
X161991996Y-122625131D01*
X162042778Y-122687009D01*
X162126443Y-122843534D01*
X162177963Y-123013373D01*
X162195359Y-123190000D01*
X162177963Y-123366627D01*
X162126443Y-123536466D01*
X162042778Y-123692991D01*
X162013448Y-123728729D01*
X161930186Y-123830186D01*
X161828729Y-123913448D01*
X161792991Y-123942778D01*
X161636466Y-124026443D01*
X161466627Y-124077963D01*
X161400442Y-124084482D01*
X161334260Y-124091000D01*
X161245740Y-124091000D01*
X161179558Y-124084482D01*
X161113373Y-124077963D01*
X160943534Y-124026443D01*
X160787009Y-123942778D01*
X160751271Y-123913448D01*
X160649814Y-123830186D01*
X160566552Y-123728729D01*
X160537222Y-123692991D01*
X160453557Y-123536466D01*
X160402037Y-123366627D01*
X160384641Y-123190000D01*
X160402037Y-123013373D01*
X160453557Y-122843534D01*
X160537222Y-122687009D01*
X160588004Y-122625131D01*
X160649814Y-122549814D01*
X160755186Y-122463339D01*
X160787009Y-122437222D01*
X160943534Y-122353557D01*
X161113373Y-122302037D01*
X161179557Y-122295519D01*
X161245740Y-122289000D01*
X161334260Y-122289000D01*
X161400443Y-122295519D01*
X161400443Y-122295519D01*
G37*
G36*
X144608674Y-121173465D02*
G01*
X144646367Y-121184899D01*
X144681103Y-121203466D01*
X144711548Y-121228452D01*
X144736534Y-121258897D01*
X144755101Y-121293633D01*
X144766535Y-121331326D01*
X144771000Y-121376661D01*
X144771000Y-122463339D01*
X144766535Y-122508674D01*
X144755101Y-122546367D01*
X144736534Y-122581103D01*
X144711548Y-122611548D01*
X144681103Y-122636534D01*
X144646367Y-122655101D01*
X144608674Y-122666535D01*
X144563339Y-122671000D01*
X143726661Y-122671000D01*
X143681326Y-122666535D01*
X143643633Y-122655101D01*
X143608897Y-122636534D01*
X143578452Y-122611548D01*
X143553466Y-122581103D01*
X143534899Y-122546367D01*
X143523465Y-122508674D01*
X143519000Y-122463339D01*
X143519000Y-121376661D01*
X143523465Y-121331326D01*
X143534899Y-121293633D01*
X143553466Y-121258897D01*
X143578452Y-121228452D01*
X143608897Y-121203466D01*
X143643633Y-121184899D01*
X143681326Y-121173465D01*
X143726661Y-121169000D01*
X144563339Y-121169000D01*
X144608674Y-121173465D01*
X144608674Y-121173465D01*
G37*
G36*
X146658674Y-121173465D02*
G01*
X146696367Y-121184899D01*
X146731103Y-121203466D01*
X146761548Y-121228452D01*
X146786534Y-121258897D01*
X146805101Y-121293633D01*
X146816535Y-121331326D01*
X146821000Y-121376661D01*
X146821000Y-122463339D01*
X146816535Y-122508674D01*
X146805101Y-122546367D01*
X146786534Y-122581103D01*
X146761548Y-122611548D01*
X146731103Y-122636534D01*
X146696367Y-122655101D01*
X146658674Y-122666535D01*
X146613339Y-122671000D01*
X145776661Y-122671000D01*
X145731326Y-122666535D01*
X145693633Y-122655101D01*
X145658897Y-122636534D01*
X145628452Y-122611548D01*
X145603466Y-122581103D01*
X145584899Y-122546367D01*
X145573465Y-122508674D01*
X145569000Y-122463339D01*
X145569000Y-121376661D01*
X145573465Y-121331326D01*
X145584899Y-121293633D01*
X145603466Y-121258897D01*
X145628452Y-121228452D01*
X145658897Y-121203466D01*
X145693633Y-121184899D01*
X145731326Y-121173465D01*
X145776661Y-121169000D01*
X146613339Y-121169000D01*
X146658674Y-121173465D01*
X146658674Y-121173465D01*
G37*
G36*
X161400442Y-119755518D02*
G01*
X161466627Y-119762037D01*
X161636466Y-119813557D01*
X161792991Y-119897222D01*
X161828729Y-119926552D01*
X161930186Y-120009814D01*
X162013448Y-120111271D01*
X162042778Y-120147009D01*
X162126443Y-120303534D01*
X162177963Y-120473373D01*
X162195359Y-120650000D01*
X162177963Y-120826627D01*
X162126443Y-120996466D01*
X162042778Y-121152991D01*
X162025975Y-121173465D01*
X161930186Y-121290186D01*
X161828729Y-121373448D01*
X161792991Y-121402778D01*
X161636466Y-121486443D01*
X161466627Y-121537963D01*
X161400443Y-121544481D01*
X161334260Y-121551000D01*
X161245740Y-121551000D01*
X161179557Y-121544481D01*
X161113373Y-121537963D01*
X160943534Y-121486443D01*
X160787009Y-121402778D01*
X160751271Y-121373448D01*
X160649814Y-121290186D01*
X160554025Y-121173465D01*
X160537222Y-121152991D01*
X160453557Y-120996466D01*
X160402037Y-120826627D01*
X160384641Y-120650000D01*
X160402037Y-120473373D01*
X160453557Y-120303534D01*
X160537222Y-120147009D01*
X160566552Y-120111271D01*
X160649814Y-120009814D01*
X160751271Y-119926552D01*
X160787009Y-119897222D01*
X160943534Y-119813557D01*
X161113373Y-119762037D01*
X161179558Y-119755518D01*
X161245740Y-119749000D01*
X161334260Y-119749000D01*
X161400442Y-119755518D01*
X161400442Y-119755518D01*
G37*
G36*
X158860442Y-119755518D02*
G01*
X158926627Y-119762037D01*
X159096466Y-119813557D01*
X159252991Y-119897222D01*
X159288729Y-119926552D01*
X159390186Y-120009814D01*
X159473448Y-120111271D01*
X159502778Y-120147009D01*
X159586443Y-120303534D01*
X159637963Y-120473373D01*
X159655359Y-120650000D01*
X159637963Y-120826627D01*
X159586443Y-120996466D01*
X159502778Y-121152991D01*
X159485975Y-121173465D01*
X159390186Y-121290186D01*
X159288729Y-121373448D01*
X159252991Y-121402778D01*
X159096466Y-121486443D01*
X158926627Y-121537963D01*
X158860443Y-121544481D01*
X158794260Y-121551000D01*
X158705740Y-121551000D01*
X158639557Y-121544481D01*
X158573373Y-121537963D01*
X158403534Y-121486443D01*
X158247009Y-121402778D01*
X158211271Y-121373448D01*
X158109814Y-121290186D01*
X158014025Y-121173465D01*
X157997222Y-121152991D01*
X157913557Y-120996466D01*
X157862037Y-120826627D01*
X157844641Y-120650000D01*
X157862037Y-120473373D01*
X157913557Y-120303534D01*
X157997222Y-120147009D01*
X158026552Y-120111271D01*
X158109814Y-120009814D01*
X158211271Y-119926552D01*
X158247009Y-119897222D01*
X158403534Y-119813557D01*
X158573373Y-119762037D01*
X158639558Y-119755518D01*
X158705740Y-119749000D01*
X158794260Y-119749000D01*
X158860442Y-119755518D01*
X158860442Y-119755518D01*
G37*
G36*
X158860443Y-117215519D02*
G01*
X158926627Y-117222037D01*
X159096466Y-117273557D01*
X159252991Y-117357222D01*
X159288729Y-117386552D01*
X159390186Y-117469814D01*
X159473448Y-117571271D01*
X159502778Y-117607009D01*
X159586443Y-117763534D01*
X159637963Y-117933373D01*
X159655359Y-118110000D01*
X159637963Y-118286627D01*
X159586443Y-118456466D01*
X159502778Y-118612991D01*
X159473448Y-118648729D01*
X159390186Y-118750186D01*
X159288729Y-118833448D01*
X159252991Y-118862778D01*
X159096466Y-118946443D01*
X158926627Y-118997963D01*
X158860443Y-119004481D01*
X158794260Y-119011000D01*
X158705740Y-119011000D01*
X158639557Y-119004481D01*
X158573373Y-118997963D01*
X158403534Y-118946443D01*
X158247009Y-118862778D01*
X158211271Y-118833448D01*
X158109814Y-118750186D01*
X158026552Y-118648729D01*
X157997222Y-118612991D01*
X157913557Y-118456466D01*
X157862037Y-118286627D01*
X157844641Y-118110000D01*
X157862037Y-117933373D01*
X157913557Y-117763534D01*
X157997222Y-117607009D01*
X158026552Y-117571271D01*
X158109814Y-117469814D01*
X158211271Y-117386552D01*
X158247009Y-117357222D01*
X158403534Y-117273557D01*
X158573373Y-117222037D01*
X158639557Y-117215519D01*
X158705740Y-117209000D01*
X158794260Y-117209000D01*
X158860443Y-117215519D01*
X158860443Y-117215519D01*
G37*
G36*
X161400443Y-117215519D02*
G01*
X161466627Y-117222037D01*
X161636466Y-117273557D01*
X161792991Y-117357222D01*
X161828729Y-117386552D01*
X161930186Y-117469814D01*
X162013448Y-117571271D01*
X162042778Y-117607009D01*
X162126443Y-117763534D01*
X162177963Y-117933373D01*
X162195359Y-118110000D01*
X162177963Y-118286627D01*
X162126443Y-118456466D01*
X162042778Y-118612991D01*
X162013448Y-118648729D01*
X161930186Y-118750186D01*
X161828729Y-118833448D01*
X161792991Y-118862778D01*
X161636466Y-118946443D01*
X161466627Y-118997963D01*
X161400443Y-119004481D01*
X161334260Y-119011000D01*
X161245740Y-119011000D01*
X161179557Y-119004481D01*
X161113373Y-118997963D01*
X160943534Y-118946443D01*
X160787009Y-118862778D01*
X160751271Y-118833448D01*
X160649814Y-118750186D01*
X160566552Y-118648729D01*
X160537222Y-118612991D01*
X160453557Y-118456466D01*
X160402037Y-118286627D01*
X160384641Y-118110000D01*
X160402037Y-117933373D01*
X160453557Y-117763534D01*
X160537222Y-117607009D01*
X160566552Y-117571271D01*
X160649814Y-117469814D01*
X160751271Y-117386552D01*
X160787009Y-117357222D01*
X160943534Y-117273557D01*
X161113373Y-117222037D01*
X161179557Y-117215519D01*
X161245740Y-117209000D01*
X161334260Y-117209000D01*
X161400443Y-117215519D01*
X161400443Y-117215519D01*
G37*
G36*
X158855909Y-114675072D02*
G01*
X158926627Y-114682037D01*
X159096466Y-114733557D01*
X159252991Y-114817222D01*
X159288729Y-114846552D01*
X159390186Y-114929814D01*
X159473448Y-115031271D01*
X159502778Y-115067009D01*
X159586443Y-115223534D01*
X159637963Y-115393373D01*
X159655359Y-115570000D01*
X159637963Y-115746627D01*
X159586443Y-115916466D01*
X159502778Y-116072991D01*
X159473448Y-116108729D01*
X159390186Y-116210186D01*
X159288729Y-116293448D01*
X159252991Y-116322778D01*
X159096466Y-116406443D01*
X158926627Y-116457963D01*
X158860442Y-116464482D01*
X158794260Y-116471000D01*
X158705740Y-116471000D01*
X158639558Y-116464482D01*
X158573373Y-116457963D01*
X158403534Y-116406443D01*
X158247009Y-116322778D01*
X158211271Y-116293448D01*
X158109814Y-116210186D01*
X158026552Y-116108729D01*
X157997222Y-116072991D01*
X157913557Y-115916466D01*
X157862037Y-115746627D01*
X157844641Y-115570000D01*
X157862037Y-115393373D01*
X157913557Y-115223534D01*
X157997222Y-115067009D01*
X158026552Y-115031271D01*
X158109814Y-114929814D01*
X158211271Y-114846552D01*
X158247009Y-114817222D01*
X158403534Y-114733557D01*
X158573373Y-114682037D01*
X158644091Y-114675072D01*
X158705740Y-114669000D01*
X158794260Y-114669000D01*
X158855909Y-114675072D01*
X158855909Y-114675072D01*
G37*
G36*
X161395909Y-114675072D02*
G01*
X161466627Y-114682037D01*
X161636466Y-114733557D01*
X161792991Y-114817222D01*
X161828729Y-114846552D01*
X161930186Y-114929814D01*
X162013448Y-115031271D01*
X162042778Y-115067009D01*
X162126443Y-115223534D01*
X162177963Y-115393373D01*
X162195359Y-115570000D01*
X162177963Y-115746627D01*
X162126443Y-115916466D01*
X162042778Y-116072991D01*
X162013448Y-116108729D01*
X161930186Y-116210186D01*
X161828729Y-116293448D01*
X161792991Y-116322778D01*
X161636466Y-116406443D01*
X161466627Y-116457963D01*
X161400442Y-116464482D01*
X161334260Y-116471000D01*
X161245740Y-116471000D01*
X161179558Y-116464482D01*
X161113373Y-116457963D01*
X160943534Y-116406443D01*
X160787009Y-116322778D01*
X160751271Y-116293448D01*
X160649814Y-116210186D01*
X160566552Y-116108729D01*
X160537222Y-116072991D01*
X160453557Y-115916466D01*
X160402037Y-115746627D01*
X160384641Y-115570000D01*
X160402037Y-115393373D01*
X160453557Y-115223534D01*
X160537222Y-115067009D01*
X160566552Y-115031271D01*
X160649814Y-114929814D01*
X160751271Y-114846552D01*
X160787009Y-114817222D01*
X160943534Y-114733557D01*
X161113373Y-114682037D01*
X161184091Y-114675072D01*
X161245740Y-114669000D01*
X161334260Y-114669000D01*
X161395909Y-114675072D01*
X161395909Y-114675072D01*
G37*
G36*
X153269928Y-114586764D02*
G01*
X153291009Y-114593160D01*
X153310445Y-114603548D01*
X153327476Y-114617524D01*
X153341452Y-114634555D01*
X153351840Y-114653991D01*
X153358236Y-114675072D01*
X153361000Y-114703140D01*
X153361000Y-115166860D01*
X153358236Y-115194928D01*
X153351840Y-115216009D01*
X153341452Y-115235445D01*
X153327476Y-115252476D01*
X153310445Y-115266452D01*
X153291009Y-115276840D01*
X153269928Y-115283236D01*
X153241860Y-115286000D01*
X151428140Y-115286000D01*
X151400072Y-115283236D01*
X151378991Y-115276840D01*
X151359555Y-115266452D01*
X151342524Y-115252476D01*
X151328548Y-115235445D01*
X151318160Y-115216009D01*
X151311764Y-115194928D01*
X151309000Y-115166860D01*
X151309000Y-114703140D01*
X151311764Y-114675072D01*
X151318160Y-114653991D01*
X151328548Y-114634555D01*
X151342524Y-114617524D01*
X151359555Y-114603548D01*
X151378991Y-114593160D01*
X151400072Y-114586764D01*
X151428140Y-114584000D01*
X153241860Y-114584000D01*
X153269928Y-114586764D01*
X153269928Y-114586764D01*
G37*
G36*
X148319928Y-114586764D02*
G01*
X148341009Y-114593160D01*
X148360445Y-114603548D01*
X148377476Y-114617524D01*
X148391452Y-114634555D01*
X148401840Y-114653991D01*
X148408236Y-114675072D01*
X148411000Y-114703140D01*
X148411000Y-115166860D01*
X148408236Y-115194928D01*
X148401840Y-115216009D01*
X148391452Y-115235445D01*
X148377476Y-115252476D01*
X148360445Y-115266452D01*
X148341009Y-115276840D01*
X148319928Y-115283236D01*
X148291860Y-115286000D01*
X146478140Y-115286000D01*
X146450072Y-115283236D01*
X146428991Y-115276840D01*
X146409555Y-115266452D01*
X146392524Y-115252476D01*
X146378548Y-115235445D01*
X146368160Y-115216009D01*
X146361764Y-115194928D01*
X146359000Y-115166860D01*
X146359000Y-114703140D01*
X146361764Y-114675072D01*
X146368160Y-114653991D01*
X146378548Y-114634555D01*
X146392524Y-114617524D01*
X146409555Y-114603548D01*
X146428991Y-114593160D01*
X146450072Y-114586764D01*
X146478140Y-114584000D01*
X148291860Y-114584000D01*
X148319928Y-114586764D01*
X148319928Y-114586764D01*
G37*
G36*
X148319928Y-113316764D02*
G01*
X148341009Y-113323160D01*
X148360445Y-113333548D01*
X148377476Y-113347524D01*
X148391452Y-113364555D01*
X148401840Y-113383991D01*
X148408236Y-113405072D01*
X148411000Y-113433140D01*
X148411000Y-113896860D01*
X148408236Y-113924928D01*
X148401840Y-113946009D01*
X148391452Y-113965445D01*
X148377476Y-113982476D01*
X148360445Y-113996452D01*
X148341009Y-114006840D01*
X148319928Y-114013236D01*
X148291860Y-114016000D01*
X146478140Y-114016000D01*
X146450072Y-114013236D01*
X146428991Y-114006840D01*
X146409555Y-113996452D01*
X146392524Y-113982476D01*
X146378548Y-113965445D01*
X146368160Y-113946009D01*
X146361764Y-113924928D01*
X146359000Y-113896860D01*
X146359000Y-113433140D01*
X146361764Y-113405072D01*
X146368160Y-113383991D01*
X146378548Y-113364555D01*
X146392524Y-113347524D01*
X146409555Y-113333548D01*
X146428991Y-113323160D01*
X146450072Y-113316764D01*
X146478140Y-113314000D01*
X148291860Y-113314000D01*
X148319928Y-113316764D01*
X148319928Y-113316764D01*
G37*
G36*
X153269928Y-113316764D02*
G01*
X153291009Y-113323160D01*
X153310445Y-113333548D01*
X153327476Y-113347524D01*
X153341452Y-113364555D01*
X153351840Y-113383991D01*
X153358236Y-113405072D01*
X153361000Y-113433140D01*
X153361000Y-113896860D01*
X153358236Y-113924928D01*
X153351840Y-113946009D01*
X153341452Y-113965445D01*
X153327476Y-113982476D01*
X153310445Y-113996452D01*
X153291009Y-114006840D01*
X153269928Y-114013236D01*
X153241860Y-114016000D01*
X151428140Y-114016000D01*
X151400072Y-114013236D01*
X151378991Y-114006840D01*
X151359555Y-113996452D01*
X151342524Y-113982476D01*
X151328548Y-113965445D01*
X151318160Y-113946009D01*
X151311764Y-113924928D01*
X151309000Y-113896860D01*
X151309000Y-113433140D01*
X151311764Y-113405072D01*
X151318160Y-113383991D01*
X151328548Y-113364555D01*
X151342524Y-113347524D01*
X151359555Y-113333548D01*
X151378991Y-113323160D01*
X151400072Y-113316764D01*
X151428140Y-113314000D01*
X153241860Y-113314000D01*
X153269928Y-113316764D01*
X153269928Y-113316764D01*
G37*
G36*
X161395909Y-112135072D02*
G01*
X161466627Y-112142037D01*
X161636466Y-112193557D01*
X161792991Y-112277222D01*
X161828729Y-112306552D01*
X161930186Y-112389814D01*
X162013448Y-112491271D01*
X162042778Y-112527009D01*
X162126443Y-112683534D01*
X162177963Y-112853373D01*
X162195359Y-113030000D01*
X162177963Y-113206627D01*
X162126443Y-113376466D01*
X162042778Y-113532991D01*
X162013448Y-113568729D01*
X161930186Y-113670186D01*
X161828729Y-113753448D01*
X161792991Y-113782778D01*
X161636466Y-113866443D01*
X161466627Y-113917963D01*
X161400443Y-113924481D01*
X161334260Y-113931000D01*
X161245740Y-113931000D01*
X161179557Y-113924481D01*
X161113373Y-113917963D01*
X160943534Y-113866443D01*
X160787009Y-113782778D01*
X160751271Y-113753448D01*
X160649814Y-113670186D01*
X160566552Y-113568729D01*
X160537222Y-113532991D01*
X160453557Y-113376466D01*
X160402037Y-113206627D01*
X160384641Y-113030000D01*
X160402037Y-112853373D01*
X160453557Y-112683534D01*
X160537222Y-112527009D01*
X160566552Y-112491271D01*
X160649814Y-112389814D01*
X160751271Y-112306552D01*
X160787009Y-112277222D01*
X160943534Y-112193557D01*
X161113373Y-112142037D01*
X161184091Y-112135072D01*
X161245740Y-112129000D01*
X161334260Y-112129000D01*
X161395909Y-112135072D01*
X161395909Y-112135072D01*
G37*
G36*
X158855909Y-112135072D02*
G01*
X158926627Y-112142037D01*
X159096466Y-112193557D01*
X159252991Y-112277222D01*
X159288729Y-112306552D01*
X159390186Y-112389814D01*
X159473448Y-112491271D01*
X159502778Y-112527009D01*
X159586443Y-112683534D01*
X159637963Y-112853373D01*
X159655359Y-113030000D01*
X159637963Y-113206627D01*
X159586443Y-113376466D01*
X159502778Y-113532991D01*
X159473448Y-113568729D01*
X159390186Y-113670186D01*
X159288729Y-113753448D01*
X159252991Y-113782778D01*
X159096466Y-113866443D01*
X158926627Y-113917963D01*
X158860443Y-113924481D01*
X158794260Y-113931000D01*
X158705740Y-113931000D01*
X158639557Y-113924481D01*
X158573373Y-113917963D01*
X158403534Y-113866443D01*
X158247009Y-113782778D01*
X158211271Y-113753448D01*
X158109814Y-113670186D01*
X158026552Y-113568729D01*
X157997222Y-113532991D01*
X157913557Y-113376466D01*
X157862037Y-113206627D01*
X157844641Y-113030000D01*
X157862037Y-112853373D01*
X157913557Y-112683534D01*
X157997222Y-112527009D01*
X158026552Y-112491271D01*
X158109814Y-112389814D01*
X158211271Y-112306552D01*
X158247009Y-112277222D01*
X158403534Y-112193557D01*
X158573373Y-112142037D01*
X158644091Y-112135072D01*
X158705740Y-112129000D01*
X158794260Y-112129000D01*
X158855909Y-112135072D01*
X158855909Y-112135072D01*
G37*
G36*
X153269928Y-112046764D02*
G01*
X153291009Y-112053160D01*
X153310445Y-112063548D01*
X153327476Y-112077524D01*
X153341452Y-112094555D01*
X153351840Y-112113991D01*
X153358236Y-112135072D01*
X153361000Y-112163140D01*
X153361000Y-112626860D01*
X153358236Y-112654928D01*
X153351840Y-112676009D01*
X153341452Y-112695445D01*
X153327476Y-112712476D01*
X153310445Y-112726452D01*
X153291009Y-112736840D01*
X153269928Y-112743236D01*
X153241860Y-112746000D01*
X151428140Y-112746000D01*
X151400072Y-112743236D01*
X151378991Y-112736840D01*
X151359555Y-112726452D01*
X151342524Y-112712476D01*
X151328548Y-112695445D01*
X151318160Y-112676009D01*
X151311764Y-112654928D01*
X151309000Y-112626860D01*
X151309000Y-112163140D01*
X151311764Y-112135072D01*
X151318160Y-112113991D01*
X151328548Y-112094555D01*
X151342524Y-112077524D01*
X151359555Y-112063548D01*
X151378991Y-112053160D01*
X151400072Y-112046764D01*
X151428140Y-112044000D01*
X153241860Y-112044000D01*
X153269928Y-112046764D01*
X153269928Y-112046764D01*
G37*
G36*
X148319928Y-112046764D02*
G01*
X148341009Y-112053160D01*
X148360445Y-112063548D01*
X148377476Y-112077524D01*
X148391452Y-112094555D01*
X148401840Y-112113991D01*
X148408236Y-112135072D01*
X148411000Y-112163140D01*
X148411000Y-112626860D01*
X148408236Y-112654928D01*
X148401840Y-112676009D01*
X148391452Y-112695445D01*
X148377476Y-112712476D01*
X148360445Y-112726452D01*
X148341009Y-112736840D01*
X148319928Y-112743236D01*
X148291860Y-112746000D01*
X146478140Y-112746000D01*
X146450072Y-112743236D01*
X146428991Y-112736840D01*
X146409555Y-112726452D01*
X146392524Y-112712476D01*
X146378548Y-112695445D01*
X146368160Y-112676009D01*
X146361764Y-112654928D01*
X146359000Y-112626860D01*
X146359000Y-112163140D01*
X146361764Y-112135072D01*
X146368160Y-112113991D01*
X146378548Y-112094555D01*
X146392524Y-112077524D01*
X146409555Y-112063548D01*
X146428991Y-112053160D01*
X146450072Y-112046764D01*
X146478140Y-112044000D01*
X148291860Y-112044000D01*
X148319928Y-112046764D01*
X148319928Y-112046764D01*
G37*
G36*
X153269928Y-110776764D02*
G01*
X153291009Y-110783160D01*
X153310445Y-110793548D01*
X153327476Y-110807524D01*
X153341452Y-110824555D01*
X153351840Y-110843991D01*
X153358236Y-110865072D01*
X153361000Y-110893140D01*
X153361000Y-111356860D01*
X153358236Y-111384928D01*
X153351840Y-111406009D01*
X153341452Y-111425445D01*
X153327476Y-111442476D01*
X153310445Y-111456452D01*
X153291009Y-111466840D01*
X153269928Y-111473236D01*
X153241860Y-111476000D01*
X151428140Y-111476000D01*
X151400072Y-111473236D01*
X151378991Y-111466840D01*
X151359555Y-111456452D01*
X151342524Y-111442476D01*
X151328548Y-111425445D01*
X151318160Y-111406009D01*
X151311764Y-111384928D01*
X151309000Y-111356860D01*
X151309000Y-110893140D01*
X151311764Y-110865072D01*
X151318160Y-110843991D01*
X151328548Y-110824555D01*
X151342524Y-110807524D01*
X151359555Y-110793548D01*
X151378991Y-110783160D01*
X151400072Y-110776764D01*
X151428140Y-110774000D01*
X153241860Y-110774000D01*
X153269928Y-110776764D01*
X153269928Y-110776764D01*
G37*
G36*
X148319928Y-110776764D02*
G01*
X148341009Y-110783160D01*
X148360445Y-110793548D01*
X148377476Y-110807524D01*
X148391452Y-110824555D01*
X148401840Y-110843991D01*
X148408236Y-110865072D01*
X148411000Y-110893140D01*
X148411000Y-111356860D01*
X148408236Y-111384928D01*
X148401840Y-111406009D01*
X148391452Y-111425445D01*
X148377476Y-111442476D01*
X148360445Y-111456452D01*
X148341009Y-111466840D01*
X148319928Y-111473236D01*
X148291860Y-111476000D01*
X146478140Y-111476000D01*
X146450072Y-111473236D01*
X146428991Y-111466840D01*
X146409555Y-111456452D01*
X146392524Y-111442476D01*
X146378548Y-111425445D01*
X146368160Y-111406009D01*
X146361764Y-111384928D01*
X146359000Y-111356860D01*
X146359000Y-110893140D01*
X146361764Y-110865072D01*
X146368160Y-110843991D01*
X146378548Y-110824555D01*
X146392524Y-110807524D01*
X146409555Y-110793548D01*
X146428991Y-110783160D01*
X146450072Y-110776764D01*
X146478140Y-110774000D01*
X148291860Y-110774000D01*
X148319928Y-110776764D01*
X148319928Y-110776764D01*
G37*
G36*
X158855909Y-109595072D02*
G01*
X158926627Y-109602037D01*
X159096466Y-109653557D01*
X159252991Y-109737222D01*
X159288729Y-109766552D01*
X159390186Y-109849814D01*
X159473448Y-109951271D01*
X159502778Y-109987009D01*
X159586443Y-110143534D01*
X159637963Y-110313373D01*
X159655359Y-110490000D01*
X159637963Y-110666627D01*
X159586443Y-110836466D01*
X159502778Y-110992991D01*
X159473448Y-111028729D01*
X159390186Y-111130186D01*
X159288729Y-111213448D01*
X159252991Y-111242778D01*
X159096466Y-111326443D01*
X158926627Y-111377963D01*
X158860443Y-111384481D01*
X158794260Y-111391000D01*
X158705740Y-111391000D01*
X158639557Y-111384481D01*
X158573373Y-111377963D01*
X158403534Y-111326443D01*
X158247009Y-111242778D01*
X158211271Y-111213448D01*
X158109814Y-111130186D01*
X158026552Y-111028729D01*
X157997222Y-110992991D01*
X157913557Y-110836466D01*
X157862037Y-110666627D01*
X157844641Y-110490000D01*
X157862037Y-110313373D01*
X157913557Y-110143534D01*
X157997222Y-109987009D01*
X158026552Y-109951271D01*
X158109814Y-109849814D01*
X158211271Y-109766552D01*
X158247009Y-109737222D01*
X158403534Y-109653557D01*
X158573373Y-109602037D01*
X158644091Y-109595072D01*
X158705740Y-109589000D01*
X158794260Y-109589000D01*
X158855909Y-109595072D01*
X158855909Y-109595072D01*
G37*
G36*
X161395909Y-109595072D02*
G01*
X161466627Y-109602037D01*
X161636466Y-109653557D01*
X161792991Y-109737222D01*
X161828729Y-109766552D01*
X161930186Y-109849814D01*
X162013448Y-109951271D01*
X162042778Y-109987009D01*
X162126443Y-110143534D01*
X162177963Y-110313373D01*
X162195359Y-110490000D01*
X162177963Y-110666627D01*
X162126443Y-110836466D01*
X162042778Y-110992991D01*
X162013448Y-111028729D01*
X161930186Y-111130186D01*
X161828729Y-111213448D01*
X161792991Y-111242778D01*
X161636466Y-111326443D01*
X161466627Y-111377963D01*
X161400443Y-111384481D01*
X161334260Y-111391000D01*
X161245740Y-111391000D01*
X161179557Y-111384481D01*
X161113373Y-111377963D01*
X160943534Y-111326443D01*
X160787009Y-111242778D01*
X160751271Y-111213448D01*
X160649814Y-111130186D01*
X160566552Y-111028729D01*
X160537222Y-110992991D01*
X160453557Y-110836466D01*
X160402037Y-110666627D01*
X160384641Y-110490000D01*
X160402037Y-110313373D01*
X160453557Y-110143534D01*
X160537222Y-109987009D01*
X160566552Y-109951271D01*
X160649814Y-109849814D01*
X160751271Y-109766552D01*
X160787009Y-109737222D01*
X160943534Y-109653557D01*
X161113373Y-109602037D01*
X161184091Y-109595072D01*
X161245740Y-109589000D01*
X161334260Y-109589000D01*
X161395909Y-109595072D01*
X161395909Y-109595072D01*
G37*
G36*
X153269928Y-109506764D02*
G01*
X153291009Y-109513160D01*
X153310445Y-109523548D01*
X153327476Y-109537524D01*
X153341452Y-109554555D01*
X153351840Y-109573991D01*
X153358236Y-109595072D01*
X153361000Y-109623140D01*
X153361000Y-110086860D01*
X153358236Y-110114928D01*
X153351840Y-110136009D01*
X153341452Y-110155445D01*
X153327476Y-110172476D01*
X153310445Y-110186452D01*
X153291009Y-110196840D01*
X153269928Y-110203236D01*
X153241860Y-110206000D01*
X151428140Y-110206000D01*
X151400072Y-110203236D01*
X151378991Y-110196840D01*
X151359555Y-110186452D01*
X151342524Y-110172476D01*
X151328548Y-110155445D01*
X151318160Y-110136009D01*
X151311764Y-110114928D01*
X151309000Y-110086860D01*
X151309000Y-109623140D01*
X151311764Y-109595072D01*
X151318160Y-109573991D01*
X151328548Y-109554555D01*
X151342524Y-109537524D01*
X151359555Y-109523548D01*
X151378991Y-109513160D01*
X151400072Y-109506764D01*
X151428140Y-109504000D01*
X153241860Y-109504000D01*
X153269928Y-109506764D01*
X153269928Y-109506764D01*
G37*
G36*
X148319928Y-109506764D02*
G01*
X148341009Y-109513160D01*
X148360445Y-109523548D01*
X148377476Y-109537524D01*
X148391452Y-109554555D01*
X148401840Y-109573991D01*
X148408236Y-109595072D01*
X148411000Y-109623140D01*
X148411000Y-110086860D01*
X148408236Y-110114928D01*
X148401840Y-110136009D01*
X148391452Y-110155445D01*
X148377476Y-110172476D01*
X148360445Y-110186452D01*
X148341009Y-110196840D01*
X148319928Y-110203236D01*
X148291860Y-110206000D01*
X146478140Y-110206000D01*
X146450072Y-110203236D01*
X146428991Y-110196840D01*
X146409555Y-110186452D01*
X146392524Y-110172476D01*
X146378548Y-110155445D01*
X146368160Y-110136009D01*
X146361764Y-110114928D01*
X146359000Y-110086860D01*
X146359000Y-109623140D01*
X146361764Y-109595072D01*
X146368160Y-109573991D01*
X146378548Y-109554555D01*
X146392524Y-109537524D01*
X146409555Y-109523548D01*
X146428991Y-109513160D01*
X146450072Y-109506764D01*
X146478140Y-109504000D01*
X148291860Y-109504000D01*
X148319928Y-109506764D01*
X148319928Y-109506764D01*
G37*
G36*
X148319928Y-108236764D02*
G01*
X148341009Y-108243160D01*
X148360445Y-108253548D01*
X148377476Y-108267524D01*
X148391452Y-108284555D01*
X148401840Y-108303991D01*
X148408236Y-108325072D01*
X148411000Y-108353140D01*
X148411000Y-108816860D01*
X148408236Y-108844928D01*
X148401840Y-108866009D01*
X148391452Y-108885445D01*
X148377476Y-108902476D01*
X148360445Y-108916452D01*
X148341009Y-108926840D01*
X148319928Y-108933236D01*
X148291860Y-108936000D01*
X146478140Y-108936000D01*
X146450072Y-108933236D01*
X146428991Y-108926840D01*
X146409555Y-108916452D01*
X146392524Y-108902476D01*
X146378548Y-108885445D01*
X146368160Y-108866009D01*
X146361764Y-108844928D01*
X146359000Y-108816860D01*
X146359000Y-108353140D01*
X146361764Y-108325072D01*
X146368160Y-108303991D01*
X146378548Y-108284555D01*
X146392524Y-108267524D01*
X146409555Y-108253548D01*
X146428991Y-108243160D01*
X146450072Y-108236764D01*
X146478140Y-108234000D01*
X148291860Y-108234000D01*
X148319928Y-108236764D01*
X148319928Y-108236764D01*
G37*
G36*
X153269928Y-108236764D02*
G01*
X153291009Y-108243160D01*
X153310445Y-108253548D01*
X153327476Y-108267524D01*
X153341452Y-108284555D01*
X153351840Y-108303991D01*
X153358236Y-108325072D01*
X153361000Y-108353140D01*
X153361000Y-108816860D01*
X153358236Y-108844928D01*
X153351840Y-108866009D01*
X153341452Y-108885445D01*
X153327476Y-108902476D01*
X153310445Y-108916452D01*
X153291009Y-108926840D01*
X153269928Y-108933236D01*
X153241860Y-108936000D01*
X151428140Y-108936000D01*
X151400072Y-108933236D01*
X151378991Y-108926840D01*
X151359555Y-108916452D01*
X151342524Y-108902476D01*
X151328548Y-108885445D01*
X151318160Y-108866009D01*
X151311764Y-108844928D01*
X151309000Y-108816860D01*
X151309000Y-108353140D01*
X151311764Y-108325072D01*
X151318160Y-108303991D01*
X151328548Y-108284555D01*
X151342524Y-108267524D01*
X151359555Y-108253548D01*
X151378991Y-108243160D01*
X151400072Y-108236764D01*
X151428140Y-108234000D01*
X153241860Y-108234000D01*
X153269928Y-108236764D01*
X153269928Y-108236764D01*
G37*
G36*
X161395909Y-107055072D02*
G01*
X161466627Y-107062037D01*
X161636466Y-107113557D01*
X161792991Y-107197222D01*
X161828729Y-107226552D01*
X161930186Y-107309814D01*
X162013448Y-107411271D01*
X162042778Y-107447009D01*
X162126443Y-107603534D01*
X162177963Y-107773373D01*
X162195359Y-107950000D01*
X162177963Y-108126627D01*
X162126443Y-108296466D01*
X162042778Y-108452991D01*
X162013448Y-108488729D01*
X161930186Y-108590186D01*
X161828729Y-108673448D01*
X161792991Y-108702778D01*
X161636466Y-108786443D01*
X161466627Y-108837963D01*
X161400442Y-108844482D01*
X161334260Y-108851000D01*
X161245740Y-108851000D01*
X161179558Y-108844482D01*
X161113373Y-108837963D01*
X160943534Y-108786443D01*
X160787009Y-108702778D01*
X160751271Y-108673448D01*
X160649814Y-108590186D01*
X160566552Y-108488729D01*
X160537222Y-108452991D01*
X160453557Y-108296466D01*
X160402037Y-108126627D01*
X160384641Y-107950000D01*
X160402037Y-107773373D01*
X160453557Y-107603534D01*
X160537222Y-107447009D01*
X160566552Y-107411271D01*
X160649814Y-107309814D01*
X160751271Y-107226552D01*
X160787009Y-107197222D01*
X160943534Y-107113557D01*
X161113373Y-107062037D01*
X161184091Y-107055072D01*
X161245740Y-107049000D01*
X161334260Y-107049000D01*
X161395909Y-107055072D01*
X161395909Y-107055072D01*
G37*
G36*
X158855909Y-107055072D02*
G01*
X158926627Y-107062037D01*
X159096466Y-107113557D01*
X159252991Y-107197222D01*
X159288729Y-107226552D01*
X159390186Y-107309814D01*
X159473448Y-107411271D01*
X159502778Y-107447009D01*
X159586443Y-107603534D01*
X159637963Y-107773373D01*
X159655359Y-107950000D01*
X159637963Y-108126627D01*
X159586443Y-108296466D01*
X159502778Y-108452991D01*
X159473448Y-108488729D01*
X159390186Y-108590186D01*
X159288729Y-108673448D01*
X159252991Y-108702778D01*
X159096466Y-108786443D01*
X158926627Y-108837963D01*
X158860442Y-108844482D01*
X158794260Y-108851000D01*
X158705740Y-108851000D01*
X158639558Y-108844482D01*
X158573373Y-108837963D01*
X158403534Y-108786443D01*
X158247009Y-108702778D01*
X158211271Y-108673448D01*
X158109814Y-108590186D01*
X158026552Y-108488729D01*
X157997222Y-108452991D01*
X157913557Y-108296466D01*
X157862037Y-108126627D01*
X157844641Y-107950000D01*
X157862037Y-107773373D01*
X157913557Y-107603534D01*
X157997222Y-107447009D01*
X158026552Y-107411271D01*
X158109814Y-107309814D01*
X158211271Y-107226552D01*
X158247009Y-107197222D01*
X158403534Y-107113557D01*
X158573373Y-107062037D01*
X158644091Y-107055072D01*
X158705740Y-107049000D01*
X158794260Y-107049000D01*
X158855909Y-107055072D01*
X158855909Y-107055072D01*
G37*
G36*
X153269928Y-106966764D02*
G01*
X153291009Y-106973160D01*
X153310445Y-106983548D01*
X153327476Y-106997524D01*
X153341452Y-107014555D01*
X153351840Y-107033991D01*
X153358236Y-107055072D01*
X153361000Y-107083140D01*
X153361000Y-107546860D01*
X153358236Y-107574928D01*
X153351840Y-107596009D01*
X153341452Y-107615445D01*
X153327476Y-107632476D01*
X153310445Y-107646452D01*
X153291009Y-107656840D01*
X153269928Y-107663236D01*
X153241860Y-107666000D01*
X151428140Y-107666000D01*
X151400072Y-107663236D01*
X151378991Y-107656840D01*
X151359555Y-107646452D01*
X151342524Y-107632476D01*
X151328548Y-107615445D01*
X151318160Y-107596009D01*
X151311764Y-107574928D01*
X151309000Y-107546860D01*
X151309000Y-107083140D01*
X151311764Y-107055072D01*
X151318160Y-107033991D01*
X151328548Y-107014555D01*
X151342524Y-106997524D01*
X151359555Y-106983548D01*
X151378991Y-106973160D01*
X151400072Y-106966764D01*
X151428140Y-106964000D01*
X153241860Y-106964000D01*
X153269928Y-106966764D01*
X153269928Y-106966764D01*
G37*
G36*
X148319928Y-106966764D02*
G01*
X148341009Y-106973160D01*
X148360445Y-106983548D01*
X148377476Y-106997524D01*
X148391452Y-107014555D01*
X148401840Y-107033991D01*
X148408236Y-107055072D01*
X148411000Y-107083140D01*
X148411000Y-107546860D01*
X148408236Y-107574928D01*
X148401840Y-107596009D01*
X148391452Y-107615445D01*
X148377476Y-107632476D01*
X148360445Y-107646452D01*
X148341009Y-107656840D01*
X148319928Y-107663236D01*
X148291860Y-107666000D01*
X146478140Y-107666000D01*
X146450072Y-107663236D01*
X146428991Y-107656840D01*
X146409555Y-107646452D01*
X146392524Y-107632476D01*
X146378548Y-107615445D01*
X146368160Y-107596009D01*
X146361764Y-107574928D01*
X146359000Y-107546860D01*
X146359000Y-107083140D01*
X146361764Y-107055072D01*
X146368160Y-107033991D01*
X146378548Y-107014555D01*
X146392524Y-106997524D01*
X146409555Y-106983548D01*
X146428991Y-106973160D01*
X146450072Y-106966764D01*
X146478140Y-106964000D01*
X148291860Y-106964000D01*
X148319928Y-106966764D01*
X148319928Y-106966764D01*
G37*
G36*
X148319928Y-105696764D02*
G01*
X148341009Y-105703160D01*
X148360445Y-105713548D01*
X148377476Y-105727524D01*
X148391452Y-105744555D01*
X148401840Y-105763991D01*
X148408236Y-105785072D01*
X148411000Y-105813140D01*
X148411000Y-106276860D01*
X148408236Y-106304928D01*
X148401840Y-106326009D01*
X148391452Y-106345445D01*
X148377476Y-106362476D01*
X148360445Y-106376452D01*
X148341009Y-106386840D01*
X148319928Y-106393236D01*
X148291860Y-106396000D01*
X146478140Y-106396000D01*
X146450072Y-106393236D01*
X146428991Y-106386840D01*
X146409555Y-106376452D01*
X146392524Y-106362476D01*
X146378548Y-106345445D01*
X146368160Y-106326009D01*
X146361764Y-106304928D01*
X146359000Y-106276860D01*
X146359000Y-105813140D01*
X146361764Y-105785072D01*
X146368160Y-105763991D01*
X146378548Y-105744555D01*
X146392524Y-105727524D01*
X146409555Y-105713548D01*
X146428991Y-105703160D01*
X146450072Y-105696764D01*
X146478140Y-105694000D01*
X148291860Y-105694000D01*
X148319928Y-105696764D01*
X148319928Y-105696764D01*
G37*
G36*
X153269928Y-105696764D02*
G01*
X153291009Y-105703160D01*
X153310445Y-105713548D01*
X153327476Y-105727524D01*
X153341452Y-105744555D01*
X153351840Y-105763991D01*
X153358236Y-105785072D01*
X153361000Y-105813140D01*
X153361000Y-106276860D01*
X153358236Y-106304928D01*
X153351840Y-106326009D01*
X153341452Y-106345445D01*
X153327476Y-106362476D01*
X153310445Y-106376452D01*
X153291009Y-106386840D01*
X153269928Y-106393236D01*
X153241860Y-106396000D01*
X151428140Y-106396000D01*
X151400072Y-106393236D01*
X151378991Y-106386840D01*
X151359555Y-106376452D01*
X151342524Y-106362476D01*
X151328548Y-106345445D01*
X151318160Y-106326009D01*
X151311764Y-106304928D01*
X151309000Y-106276860D01*
X151309000Y-105813140D01*
X151311764Y-105785072D01*
X151318160Y-105763991D01*
X151328548Y-105744555D01*
X151342524Y-105727524D01*
X151359555Y-105713548D01*
X151378991Y-105703160D01*
X151400072Y-105696764D01*
X151428140Y-105694000D01*
X153241860Y-105694000D01*
X153269928Y-105696764D01*
X153269928Y-105696764D01*
G37*
G36*
X158860443Y-104515519D02*
G01*
X158926627Y-104522037D01*
X159096466Y-104573557D01*
X159252991Y-104657222D01*
X159288729Y-104686552D01*
X159390186Y-104769814D01*
X159473448Y-104871271D01*
X159502778Y-104907009D01*
X159586443Y-105063534D01*
X159637963Y-105233373D01*
X159655359Y-105410000D01*
X159637963Y-105586627D01*
X159586443Y-105756466D01*
X159502778Y-105912991D01*
X159473448Y-105948729D01*
X159390186Y-106050186D01*
X159288729Y-106133448D01*
X159252991Y-106162778D01*
X159096466Y-106246443D01*
X158926627Y-106297963D01*
X158860442Y-106304482D01*
X158794260Y-106311000D01*
X158705740Y-106311000D01*
X158639558Y-106304482D01*
X158573373Y-106297963D01*
X158403534Y-106246443D01*
X158247009Y-106162778D01*
X158211271Y-106133448D01*
X158109814Y-106050186D01*
X158026552Y-105948729D01*
X157997222Y-105912991D01*
X157913557Y-105756466D01*
X157862037Y-105586627D01*
X157844641Y-105410000D01*
X157862037Y-105233373D01*
X157913557Y-105063534D01*
X157997222Y-104907009D01*
X158026552Y-104871271D01*
X158109814Y-104769814D01*
X158211271Y-104686552D01*
X158247009Y-104657222D01*
X158403534Y-104573557D01*
X158573373Y-104522037D01*
X158639557Y-104515519D01*
X158705740Y-104509000D01*
X158794260Y-104509000D01*
X158860443Y-104515519D01*
X158860443Y-104515519D01*
G37*
G36*
X161400443Y-104515519D02*
G01*
X161466627Y-104522037D01*
X161636466Y-104573557D01*
X161792991Y-104657222D01*
X161828729Y-104686552D01*
X161930186Y-104769814D01*
X162013448Y-104871271D01*
X162042778Y-104907009D01*
X162126443Y-105063534D01*
X162177963Y-105233373D01*
X162195359Y-105410000D01*
X162177963Y-105586627D01*
X162126443Y-105756466D01*
X162042778Y-105912991D01*
X162013448Y-105948729D01*
X161930186Y-106050186D01*
X161828729Y-106133448D01*
X161792991Y-106162778D01*
X161636466Y-106246443D01*
X161466627Y-106297963D01*
X161400442Y-106304482D01*
X161334260Y-106311000D01*
X161245740Y-106311000D01*
X161179558Y-106304482D01*
X161113373Y-106297963D01*
X160943534Y-106246443D01*
X160787009Y-106162778D01*
X160751271Y-106133448D01*
X160649814Y-106050186D01*
X160566552Y-105948729D01*
X160537222Y-105912991D01*
X160453557Y-105756466D01*
X160402037Y-105586627D01*
X160384641Y-105410000D01*
X160402037Y-105233373D01*
X160453557Y-105063534D01*
X160537222Y-104907009D01*
X160566552Y-104871271D01*
X160649814Y-104769814D01*
X160751271Y-104686552D01*
X160787009Y-104657222D01*
X160943534Y-104573557D01*
X161113373Y-104522037D01*
X161179557Y-104515519D01*
X161245740Y-104509000D01*
X161334260Y-104509000D01*
X161400443Y-104515519D01*
X161400443Y-104515519D01*
G37*
G36*
X161400442Y-101975518D02*
G01*
X161466627Y-101982037D01*
X161636466Y-102033557D01*
X161792991Y-102117222D01*
X161828729Y-102146552D01*
X161930186Y-102229814D01*
X162013448Y-102331271D01*
X162042778Y-102367009D01*
X162126443Y-102523534D01*
X162177963Y-102693373D01*
X162195359Y-102870000D01*
X162177963Y-103046627D01*
X162126443Y-103216466D01*
X162042778Y-103372991D01*
X162013448Y-103408729D01*
X161930186Y-103510186D01*
X161828729Y-103593448D01*
X161792991Y-103622778D01*
X161636466Y-103706443D01*
X161466627Y-103757963D01*
X161400443Y-103764481D01*
X161334260Y-103771000D01*
X161245740Y-103771000D01*
X161179557Y-103764481D01*
X161113373Y-103757963D01*
X160943534Y-103706443D01*
X160787009Y-103622778D01*
X160751271Y-103593448D01*
X160649814Y-103510186D01*
X160566552Y-103408729D01*
X160537222Y-103372991D01*
X160453557Y-103216466D01*
X160402037Y-103046627D01*
X160384641Y-102870000D01*
X160402037Y-102693373D01*
X160453557Y-102523534D01*
X160537222Y-102367009D01*
X160566552Y-102331271D01*
X160649814Y-102229814D01*
X160751271Y-102146552D01*
X160787009Y-102117222D01*
X160943534Y-102033557D01*
X161113373Y-101982037D01*
X161179558Y-101975518D01*
X161245740Y-101969000D01*
X161334260Y-101969000D01*
X161400442Y-101975518D01*
X161400442Y-101975518D01*
G37*
G36*
X158860442Y-101975518D02*
G01*
X158926627Y-101982037D01*
X159096466Y-102033557D01*
X159252991Y-102117222D01*
X159288729Y-102146552D01*
X159390186Y-102229814D01*
X159473448Y-102331271D01*
X159502778Y-102367009D01*
X159586443Y-102523534D01*
X159637963Y-102693373D01*
X159655359Y-102870000D01*
X159637963Y-103046627D01*
X159586443Y-103216466D01*
X159502778Y-103372991D01*
X159473448Y-103408729D01*
X159390186Y-103510186D01*
X159288729Y-103593448D01*
X159252991Y-103622778D01*
X159096466Y-103706443D01*
X158926627Y-103757963D01*
X158860443Y-103764481D01*
X158794260Y-103771000D01*
X158705740Y-103771000D01*
X158639557Y-103764481D01*
X158573373Y-103757963D01*
X158403534Y-103706443D01*
X158247009Y-103622778D01*
X158211271Y-103593448D01*
X158109814Y-103510186D01*
X158026552Y-103408729D01*
X157997222Y-103372991D01*
X157913557Y-103216466D01*
X157862037Y-103046627D01*
X157844641Y-102870000D01*
X157862037Y-102693373D01*
X157913557Y-102523534D01*
X157997222Y-102367009D01*
X158026552Y-102331271D01*
X158109814Y-102229814D01*
X158211271Y-102146552D01*
X158247009Y-102117222D01*
X158403534Y-102033557D01*
X158573373Y-101982037D01*
X158639558Y-101975518D01*
X158705740Y-101969000D01*
X158794260Y-101969000D01*
X158860442Y-101975518D01*
X158860442Y-101975518D01*
G37*
G36*
X161400443Y-99435519D02*
G01*
X161466627Y-99442037D01*
X161636466Y-99493557D01*
X161792991Y-99577222D01*
X161828729Y-99606552D01*
X161930186Y-99689814D01*
X162013448Y-99791271D01*
X162042778Y-99827009D01*
X162126443Y-99983534D01*
X162177963Y-100153373D01*
X162195359Y-100330000D01*
X162177963Y-100506627D01*
X162126443Y-100676466D01*
X162042778Y-100832991D01*
X162013448Y-100868729D01*
X161930186Y-100970186D01*
X161828729Y-101053448D01*
X161792991Y-101082778D01*
X161636466Y-101166443D01*
X161466627Y-101217963D01*
X161400443Y-101224481D01*
X161334260Y-101231000D01*
X161245740Y-101231000D01*
X161179558Y-101224482D01*
X161113373Y-101217963D01*
X160943534Y-101166443D01*
X160787009Y-101082778D01*
X160751271Y-101053448D01*
X160649814Y-100970186D01*
X160566552Y-100868729D01*
X160537222Y-100832991D01*
X160453557Y-100676466D01*
X160402037Y-100506627D01*
X160384641Y-100330000D01*
X160402037Y-100153373D01*
X160453557Y-99983534D01*
X160537222Y-99827009D01*
X160566552Y-99791271D01*
X160649814Y-99689814D01*
X160751271Y-99606552D01*
X160787009Y-99577222D01*
X160943534Y-99493557D01*
X161113373Y-99442037D01*
X161179558Y-99435518D01*
X161245740Y-99429000D01*
X161334260Y-99429000D01*
X161400443Y-99435519D01*
X161400443Y-99435519D01*
G37*
G36*
X158860443Y-99435519D02*
G01*
X158926627Y-99442037D01*
X159096466Y-99493557D01*
X159252991Y-99577222D01*
X159288729Y-99606552D01*
X159390186Y-99689814D01*
X159473448Y-99791271D01*
X159502778Y-99827009D01*
X159586443Y-99983534D01*
X159637963Y-100153373D01*
X159655359Y-100330000D01*
X159637963Y-100506627D01*
X159586443Y-100676466D01*
X159502778Y-100832991D01*
X159473448Y-100868729D01*
X159390186Y-100970186D01*
X159288729Y-101053448D01*
X159252991Y-101082778D01*
X159096466Y-101166443D01*
X158926627Y-101217963D01*
X158860443Y-101224481D01*
X158794260Y-101231000D01*
X158705740Y-101231000D01*
X158639558Y-101224482D01*
X158573373Y-101217963D01*
X158403534Y-101166443D01*
X158247009Y-101082778D01*
X158211271Y-101053448D01*
X158109814Y-100970186D01*
X158026552Y-100868729D01*
X157997222Y-100832991D01*
X157913557Y-100676466D01*
X157862037Y-100506627D01*
X157844641Y-100330000D01*
X157862037Y-100153373D01*
X157913557Y-99983534D01*
X157997222Y-99827009D01*
X158026552Y-99791271D01*
X158109814Y-99689814D01*
X158211271Y-99606552D01*
X158247009Y-99577222D01*
X158403534Y-99493557D01*
X158573373Y-99442037D01*
X158639558Y-99435518D01*
X158705740Y-99429000D01*
X158794260Y-99429000D01*
X158860443Y-99435519D01*
X158860443Y-99435519D01*
G37*
G36*
X158855909Y-96895072D02*
G01*
X158926627Y-96902037D01*
X159096466Y-96953557D01*
X159252991Y-97037222D01*
X159288729Y-97066552D01*
X159390186Y-97149814D01*
X159473448Y-97251271D01*
X159502778Y-97287009D01*
X159586443Y-97443534D01*
X159637963Y-97613373D01*
X159655359Y-97790000D01*
X159637963Y-97966627D01*
X159586443Y-98136466D01*
X159502778Y-98292991D01*
X159473448Y-98328729D01*
X159390186Y-98430186D01*
X159288729Y-98513448D01*
X159252991Y-98542778D01*
X159096466Y-98626443D01*
X158926627Y-98677963D01*
X158860442Y-98684482D01*
X158794260Y-98691000D01*
X158705740Y-98691000D01*
X158639558Y-98684482D01*
X158573373Y-98677963D01*
X158403534Y-98626443D01*
X158247009Y-98542778D01*
X158211271Y-98513448D01*
X158109814Y-98430186D01*
X158026552Y-98328729D01*
X157997222Y-98292991D01*
X157913557Y-98136466D01*
X157862037Y-97966627D01*
X157844641Y-97790000D01*
X157862037Y-97613373D01*
X157913557Y-97443534D01*
X157997222Y-97287009D01*
X158026552Y-97251271D01*
X158109814Y-97149814D01*
X158211271Y-97066552D01*
X158247009Y-97037222D01*
X158403534Y-96953557D01*
X158573373Y-96902037D01*
X158644091Y-96895072D01*
X158705740Y-96889000D01*
X158794260Y-96889000D01*
X158855909Y-96895072D01*
X158855909Y-96895072D01*
G37*
G36*
X161395909Y-96895072D02*
G01*
X161466627Y-96902037D01*
X161636466Y-96953557D01*
X161792991Y-97037222D01*
X161828729Y-97066552D01*
X161930186Y-97149814D01*
X162013448Y-97251271D01*
X162042778Y-97287009D01*
X162126443Y-97443534D01*
X162177963Y-97613373D01*
X162195359Y-97790000D01*
X162177963Y-97966627D01*
X162126443Y-98136466D01*
X162042778Y-98292991D01*
X162013448Y-98328729D01*
X161930186Y-98430186D01*
X161828729Y-98513448D01*
X161792991Y-98542778D01*
X161636466Y-98626443D01*
X161466627Y-98677963D01*
X161400442Y-98684482D01*
X161334260Y-98691000D01*
X161245740Y-98691000D01*
X161179558Y-98684482D01*
X161113373Y-98677963D01*
X160943534Y-98626443D01*
X160787009Y-98542778D01*
X160751271Y-98513448D01*
X160649814Y-98430186D01*
X160566552Y-98328729D01*
X160537222Y-98292991D01*
X160453557Y-98136466D01*
X160402037Y-97966627D01*
X160384641Y-97790000D01*
X160402037Y-97613373D01*
X160453557Y-97443534D01*
X160537222Y-97287009D01*
X160566552Y-97251271D01*
X160649814Y-97149814D01*
X160751271Y-97066552D01*
X160787009Y-97037222D01*
X160943534Y-96953557D01*
X161113373Y-96902037D01*
X161184091Y-96895072D01*
X161245740Y-96889000D01*
X161334260Y-96889000D01*
X161395909Y-96895072D01*
X161395909Y-96895072D01*
G37*
G36*
X148384928Y-96806764D02*
G01*
X148406009Y-96813160D01*
X148425445Y-96823548D01*
X148442476Y-96837524D01*
X148456452Y-96854555D01*
X148466840Y-96873991D01*
X148473236Y-96895072D01*
X148476000Y-96923140D01*
X148476000Y-97386860D01*
X148473236Y-97414928D01*
X148466840Y-97436009D01*
X148456452Y-97455445D01*
X148442476Y-97472476D01*
X148425445Y-97486452D01*
X148406009Y-97496840D01*
X148384928Y-97503236D01*
X148356860Y-97506000D01*
X146543140Y-97506000D01*
X146515072Y-97503236D01*
X146493991Y-97496840D01*
X146474555Y-97486452D01*
X146457524Y-97472476D01*
X146443548Y-97455445D01*
X146433160Y-97436009D01*
X146426764Y-97414928D01*
X146424000Y-97386860D01*
X146424000Y-96923140D01*
X146426764Y-96895072D01*
X146433160Y-96873991D01*
X146443548Y-96854555D01*
X146457524Y-96837524D01*
X146474555Y-96823548D01*
X146493991Y-96813160D01*
X146515072Y-96806764D01*
X146543140Y-96804000D01*
X148356860Y-96804000D01*
X148384928Y-96806764D01*
X148384928Y-96806764D01*
G37*
G36*
X153334928Y-96806764D02*
G01*
X153356009Y-96813160D01*
X153375445Y-96823548D01*
X153392476Y-96837524D01*
X153406452Y-96854555D01*
X153416840Y-96873991D01*
X153423236Y-96895072D01*
X153426000Y-96923140D01*
X153426000Y-97386860D01*
X153423236Y-97414928D01*
X153416840Y-97436009D01*
X153406452Y-97455445D01*
X153392476Y-97472476D01*
X153375445Y-97486452D01*
X153356009Y-97496840D01*
X153334928Y-97503236D01*
X153306860Y-97506000D01*
X151493140Y-97506000D01*
X151465072Y-97503236D01*
X151443991Y-97496840D01*
X151424555Y-97486452D01*
X151407524Y-97472476D01*
X151393548Y-97455445D01*
X151383160Y-97436009D01*
X151376764Y-97414928D01*
X151374000Y-97386860D01*
X151374000Y-96923140D01*
X151376764Y-96895072D01*
X151383160Y-96873991D01*
X151393548Y-96854555D01*
X151407524Y-96837524D01*
X151424555Y-96823548D01*
X151443991Y-96813160D01*
X151465072Y-96806764D01*
X151493140Y-96804000D01*
X153306860Y-96804000D01*
X153334928Y-96806764D01*
X153334928Y-96806764D01*
G37*
G36*
X148384928Y-95536764D02*
G01*
X148406009Y-95543160D01*
X148425445Y-95553548D01*
X148442476Y-95567524D01*
X148456452Y-95584555D01*
X148466840Y-95603991D01*
X148473236Y-95625072D01*
X148476000Y-95653140D01*
X148476000Y-96116860D01*
X148473236Y-96144928D01*
X148466840Y-96166009D01*
X148456452Y-96185445D01*
X148442476Y-96202476D01*
X148425445Y-96216452D01*
X148406009Y-96226840D01*
X148384928Y-96233236D01*
X148356860Y-96236000D01*
X146543140Y-96236000D01*
X146515072Y-96233236D01*
X146493991Y-96226840D01*
X146474555Y-96216452D01*
X146457524Y-96202476D01*
X146443548Y-96185445D01*
X146433160Y-96166009D01*
X146426764Y-96144928D01*
X146424000Y-96116860D01*
X146424000Y-95653140D01*
X146426764Y-95625072D01*
X146433160Y-95603991D01*
X146443548Y-95584555D01*
X146457524Y-95567524D01*
X146474555Y-95553548D01*
X146493991Y-95543160D01*
X146515072Y-95536764D01*
X146543140Y-95534000D01*
X148356860Y-95534000D01*
X148384928Y-95536764D01*
X148384928Y-95536764D01*
G37*
G36*
X153334928Y-95536764D02*
G01*
X153356009Y-95543160D01*
X153375445Y-95553548D01*
X153392476Y-95567524D01*
X153406452Y-95584555D01*
X153416840Y-95603991D01*
X153423236Y-95625072D01*
X153426000Y-95653140D01*
X153426000Y-96116860D01*
X153423236Y-96144928D01*
X153416840Y-96166009D01*
X153406452Y-96185445D01*
X153392476Y-96202476D01*
X153375445Y-96216452D01*
X153356009Y-96226840D01*
X153334928Y-96233236D01*
X153306860Y-96236000D01*
X151493140Y-96236000D01*
X151465072Y-96233236D01*
X151443991Y-96226840D01*
X151424555Y-96216452D01*
X151407524Y-96202476D01*
X151393548Y-96185445D01*
X151383160Y-96166009D01*
X151376764Y-96144928D01*
X151374000Y-96116860D01*
X151374000Y-95653140D01*
X151376764Y-95625072D01*
X151383160Y-95603991D01*
X151393548Y-95584555D01*
X151407524Y-95567524D01*
X151424555Y-95553548D01*
X151443991Y-95543160D01*
X151465072Y-95536764D01*
X151493140Y-95534000D01*
X153306860Y-95534000D01*
X153334928Y-95536764D01*
X153334928Y-95536764D01*
G37*
G36*
X158855909Y-94355072D02*
G01*
X158926627Y-94362037D01*
X159096466Y-94413557D01*
X159252991Y-94497222D01*
X159288729Y-94526552D01*
X159390186Y-94609814D01*
X159473448Y-94711271D01*
X159502778Y-94747009D01*
X159586443Y-94903534D01*
X159637963Y-95073373D01*
X159655359Y-95250000D01*
X159637963Y-95426627D01*
X159586443Y-95596466D01*
X159502778Y-95752991D01*
X159473448Y-95788729D01*
X159390186Y-95890186D01*
X159288729Y-95973448D01*
X159252991Y-96002778D01*
X159096466Y-96086443D01*
X158926627Y-96137963D01*
X158860443Y-96144481D01*
X158794260Y-96151000D01*
X158705740Y-96151000D01*
X158639558Y-96144482D01*
X158573373Y-96137963D01*
X158403534Y-96086443D01*
X158247009Y-96002778D01*
X158211271Y-95973448D01*
X158109814Y-95890186D01*
X158026552Y-95788729D01*
X157997222Y-95752991D01*
X157913557Y-95596466D01*
X157862037Y-95426627D01*
X157844641Y-95250000D01*
X157862037Y-95073373D01*
X157913557Y-94903534D01*
X157997222Y-94747009D01*
X158026552Y-94711271D01*
X158109814Y-94609814D01*
X158211271Y-94526552D01*
X158247009Y-94497222D01*
X158403534Y-94413557D01*
X158573373Y-94362037D01*
X158644091Y-94355072D01*
X158705740Y-94349000D01*
X158794260Y-94349000D01*
X158855909Y-94355072D01*
X158855909Y-94355072D01*
G37*
G36*
X161395909Y-94355072D02*
G01*
X161466627Y-94362037D01*
X161636466Y-94413557D01*
X161792991Y-94497222D01*
X161828729Y-94526552D01*
X161930186Y-94609814D01*
X162013448Y-94711271D01*
X162042778Y-94747009D01*
X162126443Y-94903534D01*
X162177963Y-95073373D01*
X162195359Y-95250000D01*
X162177963Y-95426627D01*
X162126443Y-95596466D01*
X162042778Y-95752991D01*
X162013448Y-95788729D01*
X161930186Y-95890186D01*
X161828729Y-95973448D01*
X161792991Y-96002778D01*
X161636466Y-96086443D01*
X161466627Y-96137963D01*
X161400443Y-96144481D01*
X161334260Y-96151000D01*
X161245740Y-96151000D01*
X161179558Y-96144482D01*
X161113373Y-96137963D01*
X160943534Y-96086443D01*
X160787009Y-96002778D01*
X160751271Y-95973448D01*
X160649814Y-95890186D01*
X160566552Y-95788729D01*
X160537222Y-95752991D01*
X160453557Y-95596466D01*
X160402037Y-95426627D01*
X160384641Y-95250000D01*
X160402037Y-95073373D01*
X160453557Y-94903534D01*
X160537222Y-94747009D01*
X160566552Y-94711271D01*
X160649814Y-94609814D01*
X160751271Y-94526552D01*
X160787009Y-94497222D01*
X160943534Y-94413557D01*
X161113373Y-94362037D01*
X161184091Y-94355072D01*
X161245740Y-94349000D01*
X161334260Y-94349000D01*
X161395909Y-94355072D01*
X161395909Y-94355072D01*
G37*
G36*
X153334928Y-94266764D02*
G01*
X153356009Y-94273160D01*
X153375445Y-94283548D01*
X153392476Y-94297524D01*
X153406452Y-94314555D01*
X153416840Y-94333991D01*
X153423236Y-94355072D01*
X153426000Y-94383140D01*
X153426000Y-94846860D01*
X153423236Y-94874928D01*
X153416840Y-94896009D01*
X153406452Y-94915445D01*
X153392476Y-94932476D01*
X153375445Y-94946452D01*
X153356009Y-94956840D01*
X153334928Y-94963236D01*
X153306860Y-94966000D01*
X151493140Y-94966000D01*
X151465072Y-94963236D01*
X151443991Y-94956840D01*
X151424555Y-94946452D01*
X151407524Y-94932476D01*
X151393548Y-94915445D01*
X151383160Y-94896009D01*
X151376764Y-94874928D01*
X151374000Y-94846860D01*
X151374000Y-94383140D01*
X151376764Y-94355072D01*
X151383160Y-94333991D01*
X151393548Y-94314555D01*
X151407524Y-94297524D01*
X151424555Y-94283548D01*
X151443991Y-94273160D01*
X151465072Y-94266764D01*
X151493140Y-94264000D01*
X153306860Y-94264000D01*
X153334928Y-94266764D01*
X153334928Y-94266764D01*
G37*
G36*
X148384928Y-94266764D02*
G01*
X148406009Y-94273160D01*
X148425445Y-94283548D01*
X148442476Y-94297524D01*
X148456452Y-94314555D01*
X148466840Y-94333991D01*
X148473236Y-94355072D01*
X148476000Y-94383140D01*
X148476000Y-94846860D01*
X148473236Y-94874928D01*
X148466840Y-94896009D01*
X148456452Y-94915445D01*
X148442476Y-94932476D01*
X148425445Y-94946452D01*
X148406009Y-94956840D01*
X148384928Y-94963236D01*
X148356860Y-94966000D01*
X146543140Y-94966000D01*
X146515072Y-94963236D01*
X146493991Y-94956840D01*
X146474555Y-94946452D01*
X146457524Y-94932476D01*
X146443548Y-94915445D01*
X146433160Y-94896009D01*
X146426764Y-94874928D01*
X146424000Y-94846860D01*
X146424000Y-94383140D01*
X146426764Y-94355072D01*
X146433160Y-94333991D01*
X146443548Y-94314555D01*
X146457524Y-94297524D01*
X146474555Y-94283548D01*
X146493991Y-94273160D01*
X146515072Y-94266764D01*
X146543140Y-94264000D01*
X148356860Y-94264000D01*
X148384928Y-94266764D01*
X148384928Y-94266764D01*
G37*
G36*
X153334928Y-92996764D02*
G01*
X153356009Y-93003160D01*
X153375445Y-93013548D01*
X153392476Y-93027524D01*
X153406452Y-93044555D01*
X153416840Y-93063991D01*
X153423236Y-93085072D01*
X153426000Y-93113140D01*
X153426000Y-93576860D01*
X153423236Y-93604928D01*
X153416840Y-93626009D01*
X153406452Y-93645445D01*
X153392476Y-93662476D01*
X153375445Y-93676452D01*
X153356009Y-93686840D01*
X153334928Y-93693236D01*
X153306860Y-93696000D01*
X151493140Y-93696000D01*
X151465072Y-93693236D01*
X151443991Y-93686840D01*
X151424555Y-93676452D01*
X151407524Y-93662476D01*
X151393548Y-93645445D01*
X151383160Y-93626009D01*
X151376764Y-93604928D01*
X151374000Y-93576860D01*
X151374000Y-93113140D01*
X151376764Y-93085072D01*
X151383160Y-93063991D01*
X151393548Y-93044555D01*
X151407524Y-93027524D01*
X151424555Y-93013548D01*
X151443991Y-93003160D01*
X151465072Y-92996764D01*
X151493140Y-92994000D01*
X153306860Y-92994000D01*
X153334928Y-92996764D01*
X153334928Y-92996764D01*
G37*
G36*
X148384928Y-92996764D02*
G01*
X148406009Y-93003160D01*
X148425445Y-93013548D01*
X148442476Y-93027524D01*
X148456452Y-93044555D01*
X148466840Y-93063991D01*
X148473236Y-93085072D01*
X148476000Y-93113140D01*
X148476000Y-93576860D01*
X148473236Y-93604928D01*
X148466840Y-93626009D01*
X148456452Y-93645445D01*
X148442476Y-93662476D01*
X148425445Y-93676452D01*
X148406009Y-93686840D01*
X148384928Y-93693236D01*
X148356860Y-93696000D01*
X146543140Y-93696000D01*
X146515072Y-93693236D01*
X146493991Y-93686840D01*
X146474555Y-93676452D01*
X146457524Y-93662476D01*
X146443548Y-93645445D01*
X146433160Y-93626009D01*
X146426764Y-93604928D01*
X146424000Y-93576860D01*
X146424000Y-93113140D01*
X146426764Y-93085072D01*
X146433160Y-93063991D01*
X146443548Y-93044555D01*
X146457524Y-93027524D01*
X146474555Y-93013548D01*
X146493991Y-93003160D01*
X146515072Y-92996764D01*
X146543140Y-92994000D01*
X148356860Y-92994000D01*
X148384928Y-92996764D01*
X148384928Y-92996764D01*
G37*
G36*
X161400442Y-91815518D02*
G01*
X161466627Y-91822037D01*
X161636466Y-91873557D01*
X161792991Y-91957222D01*
X161828729Y-91986552D01*
X161930186Y-92069814D01*
X162013448Y-92171271D01*
X162042778Y-92207009D01*
X162126443Y-92363534D01*
X162177963Y-92533373D01*
X162195359Y-92710000D01*
X162177963Y-92886627D01*
X162126443Y-93056466D01*
X162042778Y-93212991D01*
X162013448Y-93248729D01*
X161930186Y-93350186D01*
X161828729Y-93433448D01*
X161792991Y-93462778D01*
X161636466Y-93546443D01*
X161466627Y-93597963D01*
X161400442Y-93604482D01*
X161334260Y-93611000D01*
X161245740Y-93611000D01*
X161179557Y-93604481D01*
X161113373Y-93597963D01*
X160943534Y-93546443D01*
X160787009Y-93462778D01*
X160751271Y-93433448D01*
X160649814Y-93350186D01*
X160566552Y-93248729D01*
X160537222Y-93212991D01*
X160453557Y-93056466D01*
X160402037Y-92886627D01*
X160384641Y-92710000D01*
X160402037Y-92533373D01*
X160453557Y-92363534D01*
X160537222Y-92207009D01*
X160566552Y-92171271D01*
X160649814Y-92069814D01*
X160751271Y-91986552D01*
X160787009Y-91957222D01*
X160943534Y-91873557D01*
X161113373Y-91822037D01*
X161179558Y-91815518D01*
X161245740Y-91809000D01*
X161334260Y-91809000D01*
X161400442Y-91815518D01*
X161400442Y-91815518D01*
G37*
G36*
X158860442Y-91815518D02*
G01*
X158926627Y-91822037D01*
X159096466Y-91873557D01*
X159252991Y-91957222D01*
X159288729Y-91986552D01*
X159390186Y-92069814D01*
X159473448Y-92171271D01*
X159502778Y-92207009D01*
X159586443Y-92363534D01*
X159637963Y-92533373D01*
X159655359Y-92710000D01*
X159637963Y-92886627D01*
X159586443Y-93056466D01*
X159502778Y-93212991D01*
X159473448Y-93248729D01*
X159390186Y-93350186D01*
X159288729Y-93433448D01*
X159252991Y-93462778D01*
X159096466Y-93546443D01*
X158926627Y-93597963D01*
X158860442Y-93604482D01*
X158794260Y-93611000D01*
X158705740Y-93611000D01*
X158639557Y-93604481D01*
X158573373Y-93597963D01*
X158403534Y-93546443D01*
X158247009Y-93462778D01*
X158211271Y-93433448D01*
X158109814Y-93350186D01*
X158026552Y-93248729D01*
X157997222Y-93212991D01*
X157913557Y-93056466D01*
X157862037Y-92886627D01*
X157844641Y-92710000D01*
X157862037Y-92533373D01*
X157913557Y-92363534D01*
X157997222Y-92207009D01*
X158026552Y-92171271D01*
X158109814Y-92069814D01*
X158211271Y-91986552D01*
X158247009Y-91957222D01*
X158403534Y-91873557D01*
X158573373Y-91822037D01*
X158639558Y-91815518D01*
X158705740Y-91809000D01*
X158794260Y-91809000D01*
X158860442Y-91815518D01*
X158860442Y-91815518D01*
G37*
G36*
X161400443Y-89275519D02*
G01*
X161466627Y-89282037D01*
X161636466Y-89333557D01*
X161792991Y-89417222D01*
X161801530Y-89424230D01*
X161930186Y-89529814D01*
X162009665Y-89626661D01*
X162042778Y-89667009D01*
X162126443Y-89823534D01*
X162177963Y-89993373D01*
X162195359Y-90170000D01*
X162177963Y-90346627D01*
X162126443Y-90516466D01*
X162042778Y-90672991D01*
X162019032Y-90701925D01*
X161930186Y-90810186D01*
X161851049Y-90875131D01*
X161792991Y-90922778D01*
X161636466Y-91006443D01*
X161466627Y-91057963D01*
X161400442Y-91064482D01*
X161334260Y-91071000D01*
X161245740Y-91071000D01*
X161179558Y-91064482D01*
X161113373Y-91057963D01*
X160943534Y-91006443D01*
X160787009Y-90922778D01*
X160728951Y-90875131D01*
X160649814Y-90810186D01*
X160560968Y-90701925D01*
X160537222Y-90672991D01*
X160453557Y-90516466D01*
X160402037Y-90346627D01*
X160384641Y-90170000D01*
X160402037Y-89993373D01*
X160453557Y-89823534D01*
X160537222Y-89667009D01*
X160570335Y-89626661D01*
X160649814Y-89529814D01*
X160778470Y-89424230D01*
X160787009Y-89417222D01*
X160943534Y-89333557D01*
X161113373Y-89282037D01*
X161179557Y-89275519D01*
X161245740Y-89269000D01*
X161334260Y-89269000D01*
X161400443Y-89275519D01*
X161400443Y-89275519D01*
G37*
G36*
X158860443Y-89275519D02*
G01*
X158926627Y-89282037D01*
X159096466Y-89333557D01*
X159252991Y-89417222D01*
X159261530Y-89424230D01*
X159390186Y-89529814D01*
X159469665Y-89626661D01*
X159502778Y-89667009D01*
X159586443Y-89823534D01*
X159637963Y-89993373D01*
X159655359Y-90170000D01*
X159637963Y-90346627D01*
X159586443Y-90516466D01*
X159502778Y-90672991D01*
X159479032Y-90701925D01*
X159390186Y-90810186D01*
X159311049Y-90875131D01*
X159252991Y-90922778D01*
X159096466Y-91006443D01*
X158926627Y-91057963D01*
X158860442Y-91064482D01*
X158794260Y-91071000D01*
X158705740Y-91071000D01*
X158639558Y-91064482D01*
X158573373Y-91057963D01*
X158403534Y-91006443D01*
X158247009Y-90922778D01*
X158188951Y-90875131D01*
X158109814Y-90810186D01*
X158020968Y-90701925D01*
X157997222Y-90672991D01*
X157913557Y-90516466D01*
X157862037Y-90346627D01*
X157844641Y-90170000D01*
X157862037Y-89993373D01*
X157913557Y-89823534D01*
X157997222Y-89667009D01*
X158030335Y-89626661D01*
X158109814Y-89529814D01*
X158238470Y-89424230D01*
X158247009Y-89417222D01*
X158403534Y-89333557D01*
X158573373Y-89282037D01*
X158639557Y-89275519D01*
X158705740Y-89269000D01*
X158794260Y-89269000D01*
X158860443Y-89275519D01*
X158860443Y-89275519D01*
G37*
G36*
X145878674Y-89423465D02*
G01*
X145916367Y-89434899D01*
X145951103Y-89453466D01*
X145981548Y-89478452D01*
X146006534Y-89508897D01*
X146025101Y-89543633D01*
X146036535Y-89581326D01*
X146041000Y-89626661D01*
X146041000Y-90713339D01*
X146036535Y-90758674D01*
X146025101Y-90796367D01*
X146006534Y-90831103D01*
X145981548Y-90861548D01*
X145951103Y-90886534D01*
X145916367Y-90905101D01*
X145878674Y-90916535D01*
X145833339Y-90921000D01*
X144996661Y-90921000D01*
X144951326Y-90916535D01*
X144913633Y-90905101D01*
X144878897Y-90886534D01*
X144848452Y-90861548D01*
X144823466Y-90831103D01*
X144804899Y-90796367D01*
X144793465Y-90758674D01*
X144789000Y-90713339D01*
X144789000Y-89626661D01*
X144793465Y-89581326D01*
X144804899Y-89543633D01*
X144823466Y-89508897D01*
X144848452Y-89478452D01*
X144878897Y-89453466D01*
X144913633Y-89434899D01*
X144951326Y-89423465D01*
X144996661Y-89419000D01*
X145833339Y-89419000D01*
X145878674Y-89423465D01*
X145878674Y-89423465D01*
G37*
G36*
X147928674Y-89423465D02*
G01*
X147966367Y-89434899D01*
X148001103Y-89453466D01*
X148031548Y-89478452D01*
X148056534Y-89508897D01*
X148075101Y-89543633D01*
X148086535Y-89581326D01*
X148091000Y-89626661D01*
X148091000Y-90713339D01*
X148086535Y-90758674D01*
X148075101Y-90796367D01*
X148056534Y-90831103D01*
X148031548Y-90861548D01*
X148001103Y-90886534D01*
X147966367Y-90905101D01*
X147928674Y-90916535D01*
X147883339Y-90921000D01*
X147046661Y-90921000D01*
X147001326Y-90916535D01*
X146963633Y-90905101D01*
X146928897Y-90886534D01*
X146898452Y-90861548D01*
X146873466Y-90831103D01*
X146854899Y-90796367D01*
X146843465Y-90758674D01*
X146839000Y-90713339D01*
X146839000Y-89626661D01*
X146843465Y-89581326D01*
X146854899Y-89543633D01*
X146873466Y-89508897D01*
X146898452Y-89478452D01*
X146928897Y-89453466D01*
X146963633Y-89434899D01*
X147001326Y-89423465D01*
X147046661Y-89419000D01*
X147883339Y-89419000D01*
X147928674Y-89423465D01*
X147928674Y-89423465D01*
G37*
G36*
X158860442Y-86735518D02*
G01*
X158926627Y-86742037D01*
X159096466Y-86793557D01*
X159252991Y-86877222D01*
X159288729Y-86906552D01*
X159390186Y-86989814D01*
X159473448Y-87091271D01*
X159502778Y-87127009D01*
X159586443Y-87283534D01*
X159637963Y-87453373D01*
X159655359Y-87630000D01*
X159637963Y-87806627D01*
X159586443Y-87976466D01*
X159502778Y-88132991D01*
X159473448Y-88168729D01*
X159390186Y-88270186D01*
X159288729Y-88353448D01*
X159252991Y-88382778D01*
X159096466Y-88466443D01*
X158926627Y-88517963D01*
X158860442Y-88524482D01*
X158794260Y-88531000D01*
X158705740Y-88531000D01*
X158639558Y-88524482D01*
X158573373Y-88517963D01*
X158403534Y-88466443D01*
X158247009Y-88382778D01*
X158211271Y-88353448D01*
X158109814Y-88270186D01*
X158026552Y-88168729D01*
X157997222Y-88132991D01*
X157913557Y-87976466D01*
X157862037Y-87806627D01*
X157844641Y-87630000D01*
X157862037Y-87453373D01*
X157913557Y-87283534D01*
X157997222Y-87127009D01*
X158026552Y-87091271D01*
X158109814Y-86989814D01*
X158211271Y-86906552D01*
X158247009Y-86877222D01*
X158403534Y-86793557D01*
X158573373Y-86742037D01*
X158639558Y-86735518D01*
X158705740Y-86729000D01*
X158794260Y-86729000D01*
X158860442Y-86735518D01*
X158860442Y-86735518D01*
G37*
G36*
X161400442Y-86735518D02*
G01*
X161466627Y-86742037D01*
X161636466Y-86793557D01*
X161792991Y-86877222D01*
X161828729Y-86906552D01*
X161930186Y-86989814D01*
X162013448Y-87091271D01*
X162042778Y-87127009D01*
X162126443Y-87283534D01*
X162177963Y-87453373D01*
X162195359Y-87630000D01*
X162177963Y-87806627D01*
X162126443Y-87976466D01*
X162042778Y-88132991D01*
X162013448Y-88168729D01*
X161930186Y-88270186D01*
X161828729Y-88353448D01*
X161792991Y-88382778D01*
X161636466Y-88466443D01*
X161466627Y-88517963D01*
X161400442Y-88524482D01*
X161334260Y-88531000D01*
X161245740Y-88531000D01*
X161179558Y-88524482D01*
X161113373Y-88517963D01*
X160943534Y-88466443D01*
X160787009Y-88382778D01*
X160751271Y-88353448D01*
X160649814Y-88270186D01*
X160566552Y-88168729D01*
X160537222Y-88132991D01*
X160453557Y-87976466D01*
X160402037Y-87806627D01*
X160384641Y-87630000D01*
X160402037Y-87453373D01*
X160453557Y-87283534D01*
X160537222Y-87127009D01*
X160566552Y-87091271D01*
X160649814Y-86989814D01*
X160751271Y-86906552D01*
X160787009Y-86877222D01*
X160943534Y-86793557D01*
X161113373Y-86742037D01*
X161179558Y-86735518D01*
X161245740Y-86729000D01*
X161334260Y-86729000D01*
X161400442Y-86735518D01*
X161400442Y-86735518D01*
G37*
G36*
X161400442Y-84195518D02*
G01*
X161466627Y-84202037D01*
X161636466Y-84253557D01*
X161792991Y-84337222D01*
X161828729Y-84366552D01*
X161930186Y-84449814D01*
X162013448Y-84551271D01*
X162042778Y-84587009D01*
X162126443Y-84743534D01*
X162177963Y-84913373D01*
X162195359Y-85090000D01*
X162177963Y-85266627D01*
X162126443Y-85436466D01*
X162042778Y-85592991D01*
X162013448Y-85628729D01*
X161930186Y-85730186D01*
X161828729Y-85813448D01*
X161792991Y-85842778D01*
X161636466Y-85926443D01*
X161466627Y-85977963D01*
X161400442Y-85984482D01*
X161334260Y-85991000D01*
X161245740Y-85991000D01*
X161179558Y-85984482D01*
X161113373Y-85977963D01*
X160943534Y-85926443D01*
X160787009Y-85842778D01*
X160751271Y-85813448D01*
X160649814Y-85730186D01*
X160566552Y-85628729D01*
X160537222Y-85592991D01*
X160453557Y-85436466D01*
X160402037Y-85266627D01*
X160384641Y-85090000D01*
X160402037Y-84913373D01*
X160453557Y-84743534D01*
X160537222Y-84587009D01*
X160566552Y-84551271D01*
X160649814Y-84449814D01*
X160751271Y-84366552D01*
X160787009Y-84337222D01*
X160943534Y-84253557D01*
X161113373Y-84202037D01*
X161179558Y-84195518D01*
X161245740Y-84189000D01*
X161334260Y-84189000D01*
X161400442Y-84195518D01*
X161400442Y-84195518D01*
G37*
G36*
X158860442Y-84195518D02*
G01*
X158926627Y-84202037D01*
X159096466Y-84253557D01*
X159252991Y-84337222D01*
X159288729Y-84366552D01*
X159390186Y-84449814D01*
X159473448Y-84551271D01*
X159502778Y-84587009D01*
X159586443Y-84743534D01*
X159637963Y-84913373D01*
X159655359Y-85090000D01*
X159637963Y-85266627D01*
X159586443Y-85436466D01*
X159502778Y-85592991D01*
X159473448Y-85628729D01*
X159390186Y-85730186D01*
X159288729Y-85813448D01*
X159252991Y-85842778D01*
X159096466Y-85926443D01*
X158926627Y-85977963D01*
X158860442Y-85984482D01*
X158794260Y-85991000D01*
X158705740Y-85991000D01*
X158639558Y-85984482D01*
X158573373Y-85977963D01*
X158403534Y-85926443D01*
X158247009Y-85842778D01*
X158211271Y-85813448D01*
X158109814Y-85730186D01*
X158026552Y-85628729D01*
X157997222Y-85592991D01*
X157913557Y-85436466D01*
X157862037Y-85266627D01*
X157844641Y-85090000D01*
X157862037Y-84913373D01*
X157913557Y-84743534D01*
X157997222Y-84587009D01*
X158026552Y-84551271D01*
X158109814Y-84449814D01*
X158211271Y-84366552D01*
X158247009Y-84337222D01*
X158403534Y-84253557D01*
X158573373Y-84202037D01*
X158639558Y-84195518D01*
X158705740Y-84189000D01*
X158794260Y-84189000D01*
X158860442Y-84195518D01*
X158860442Y-84195518D01*
G37*
G36*
X161400443Y-81655519D02*
G01*
X161466627Y-81662037D01*
X161636466Y-81713557D01*
X161792991Y-81797222D01*
X161828729Y-81826552D01*
X161930186Y-81909814D01*
X162013448Y-82011271D01*
X162042778Y-82047009D01*
X162126443Y-82203534D01*
X162177963Y-82373373D01*
X162195359Y-82550000D01*
X162177963Y-82726627D01*
X162126443Y-82896466D01*
X162042778Y-83052991D01*
X162013448Y-83088729D01*
X161930186Y-83190186D01*
X161828729Y-83273448D01*
X161792991Y-83302778D01*
X161636466Y-83386443D01*
X161466627Y-83437963D01*
X161400443Y-83444481D01*
X161334260Y-83451000D01*
X161245740Y-83451000D01*
X161179557Y-83444481D01*
X161113373Y-83437963D01*
X160943534Y-83386443D01*
X160787009Y-83302778D01*
X160751271Y-83273448D01*
X160649814Y-83190186D01*
X160566552Y-83088729D01*
X160537222Y-83052991D01*
X160453557Y-82896466D01*
X160402037Y-82726627D01*
X160384641Y-82550000D01*
X160402037Y-82373373D01*
X160453557Y-82203534D01*
X160537222Y-82047009D01*
X160566552Y-82011271D01*
X160649814Y-81909814D01*
X160751271Y-81826552D01*
X160787009Y-81797222D01*
X160943534Y-81713557D01*
X161113373Y-81662037D01*
X161179557Y-81655519D01*
X161245740Y-81649000D01*
X161334260Y-81649000D01*
X161400443Y-81655519D01*
X161400443Y-81655519D01*
G37*
G36*
X158860443Y-81655519D02*
G01*
X158926627Y-81662037D01*
X159096466Y-81713557D01*
X159252991Y-81797222D01*
X159288729Y-81826552D01*
X159390186Y-81909814D01*
X159473448Y-82011271D01*
X159502778Y-82047009D01*
X159586443Y-82203534D01*
X159637963Y-82373373D01*
X159655359Y-82550000D01*
X159637963Y-82726627D01*
X159586443Y-82896466D01*
X159502778Y-83052991D01*
X159473448Y-83088729D01*
X159390186Y-83190186D01*
X159288729Y-83273448D01*
X159252991Y-83302778D01*
X159096466Y-83386443D01*
X158926627Y-83437963D01*
X158860443Y-83444481D01*
X158794260Y-83451000D01*
X158705740Y-83451000D01*
X158639557Y-83444481D01*
X158573373Y-83437963D01*
X158403534Y-83386443D01*
X158247009Y-83302778D01*
X158211271Y-83273448D01*
X158109814Y-83190186D01*
X158026552Y-83088729D01*
X157997222Y-83052991D01*
X157913557Y-82896466D01*
X157862037Y-82726627D01*
X157844641Y-82550000D01*
X157862037Y-82373373D01*
X157913557Y-82203534D01*
X157997222Y-82047009D01*
X158026552Y-82011271D01*
X158109814Y-81909814D01*
X158211271Y-81826552D01*
X158247009Y-81797222D01*
X158403534Y-81713557D01*
X158573373Y-81662037D01*
X158639557Y-81655519D01*
X158705740Y-81649000D01*
X158794260Y-81649000D01*
X158860443Y-81655519D01*
X158860443Y-81655519D01*
G37*
G36*
X159651000Y-80911000D02*
G01*
X157849000Y-80911000D01*
X157849000Y-79109000D01*
X159651000Y-79109000D01*
X159651000Y-80911000D01*
X159651000Y-80911000D01*
G37*
G36*
X161400443Y-79115519D02*
G01*
X161466627Y-79122037D01*
X161636466Y-79173557D01*
X161792991Y-79257222D01*
X161828729Y-79286552D01*
X161930186Y-79369814D01*
X162013448Y-79471271D01*
X162042778Y-79507009D01*
X162126443Y-79663534D01*
X162177963Y-79833373D01*
X162195359Y-80010000D01*
X162177963Y-80186627D01*
X162126443Y-80356466D01*
X162042778Y-80512991D01*
X162013448Y-80548729D01*
X161930186Y-80650186D01*
X161828729Y-80733448D01*
X161792991Y-80762778D01*
X161636466Y-80846443D01*
X161466627Y-80897963D01*
X161400442Y-80904482D01*
X161334260Y-80911000D01*
X161245740Y-80911000D01*
X161179558Y-80904482D01*
X161113373Y-80897963D01*
X160943534Y-80846443D01*
X160787009Y-80762778D01*
X160751271Y-80733448D01*
X160649814Y-80650186D01*
X160566552Y-80548729D01*
X160537222Y-80512991D01*
X160453557Y-80356466D01*
X160402037Y-80186627D01*
X160384641Y-80010000D01*
X160402037Y-79833373D01*
X160453557Y-79663534D01*
X160537222Y-79507009D01*
X160566552Y-79471271D01*
X160649814Y-79369814D01*
X160751271Y-79286552D01*
X160787009Y-79257222D01*
X160943534Y-79173557D01*
X161113373Y-79122037D01*
X161179557Y-79115519D01*
X161245740Y-79109000D01*
X161334260Y-79109000D01*
X161400443Y-79115519D01*
X161400443Y-79115519D01*
G37*
M02*
