M48
; DRILL file {KiCad (5.1.4)-1} date 30/08/2020 01:02:54
; FORMAT={-:-/ absolute / inch / decimal}
; #@! TF.CreationDate,2020-08-30T01:02:54+01:00
; #@! TF.GenerationSoftware,Kicad,Pcbnew,(5.1.4)-1
; #@! TF.FileFunction,Plated,1,2,PTH
FMAT,2
INCH
T1C0.0157
T2C0.0394
%
G90
G05
T1
X5.65Y-3.65
X5.65Y-4.95
X5.675Y-4.425
X5.675Y-5.4
X5.7Y-3.125
X5.7Y-3.825
X5.725Y-4.65
X5.8Y-3.35
X5.8Y-3.975
X5.9Y-4.35
X5.95Y-3.975
X5.95Y-4.7
X6.05Y-3.125
X6.05Y-4.6
X6.05Y-4.825
X6.05Y-5.4
X6.1215Y-4.025
X6.125Y-3.375
X6.125Y-3.625
X6.15Y-3.95
T2
X6.25Y-3.15
X6.25Y-3.25
X6.25Y-3.35
X6.25Y-3.45
X6.25Y-3.55
X6.25Y-3.65
X6.25Y-3.75
X6.25Y-3.85
X6.25Y-3.95
X6.25Y-4.05
X6.25Y-4.15
X6.25Y-4.25
X6.25Y-4.35
X6.25Y-4.45
X6.25Y-4.55
X6.25Y-4.65
X6.25Y-4.75
X6.25Y-4.85
X6.25Y-4.95
X6.25Y-5.05
X6.25Y-5.15
X6.25Y-5.25
X6.25Y-5.35
X6.25Y-5.45
X6.25Y-5.55
X6.35Y-3.15
X6.35Y-3.25
X6.35Y-3.35
X6.35Y-3.45
X6.35Y-3.55
X6.35Y-3.65
X6.35Y-3.75
X6.35Y-3.85
X6.35Y-3.95
X6.35Y-4.05
X6.35Y-4.15
X6.35Y-4.25
X6.35Y-4.35
X6.35Y-4.45
X6.35Y-4.55
X6.35Y-4.65
X6.35Y-4.75
X6.35Y-4.85
X6.35Y-4.95
X6.35Y-5.05
X6.35Y-5.15
X6.35Y-5.25
X6.35Y-5.35
X6.35Y-5.45
X6.35Y-5.55
T0
M30
